<svg xmlns="http://www.w3.org/2000/svg" xmlns:xlink="http://www.w3.org/1999/xlink" viewBox="0 0 109.53 112.57"><defs><style>.cls-1{fill:none;}.cls-10,.cls-2,.cls-31{isolation:isolate;}.cls-3{mix-blend-mode:multiply;opacity:0.19;}.cls-4{fill:url(#Degradado_sin_nombre_14);}.cls-5{fill:url(#Degradado_sin_nombre_14-2);}.cls-6{fill:url(#Degradado_sin_nombre_34);}.cls-7{fill:url(#Degradado_sin_nombre_36);}.cls-10,.cls-8{fill:#fff;}.cls-9{fill:url(#Degradado_sin_nombre_39);}.cls-10{opacity:0.4;}.cls-11{fill:url(#Degradado_sin_nombre_14-3);}.cls-12{fill:url(#Degradado_sin_nombre_34-2);}.cls-13{fill:url(#Degradado_sin_nombre_34-3);}.cls-14{fill:url(#Degradado_sin_nombre_34-4);}.cls-15{fill:url(#Degradado_sin_nombre_34-5);}.cls-16{fill:url(#Degradado_sin_nombre_34-6);}.cls-17{fill:#f4f7fa;}.cls-18{fill:#abc;}.cls-19{fill:url(#Degradado_sin_nombre_34-7);}.cls-20{fill:url(#Degradado_sin_nombre_14-4);}.cls-21{fill:url(#Degradado_sin_nombre_14-5);}.cls-22{fill:url(#Degradado_sin_nombre_36-2);}.cls-23{fill:url(#Degradado_sin_nombre_29);}.cls-24{fill:url(#Degradado_sin_nombre_29-2);}.cls-25{fill:url(#Degradado_sin_nombre_39-2);}.cls-26{fill:url(#Degradado_sin_nombre_25);}.cls-27{fill:url(#Degradado_sin_nombre_29-3);}.cls-28{fill:url(#Degradado_sin_nombre_25-2);}.cls-29{fill:url(#Degradado_sin_nombre_29-4);}.cls-30{fill:url(#Degradado_sin_nombre_25-3);}.cls-31,.cls-35{opacity:0.3;}.cls-31{fill:url(#Degradado_sin_nombre_25-4);}.cls-32{fill:url(#Degradado_sin_nombre_25-5);}.cls-33{fill:url(#Degradado_sin_nombre_36-3);}.cls-34{fill:url(#Degradado_sin_nombre_29-5);}.cls-36{fill:url(#Degradado_sin_nombre_36-4);}.cls-37{fill:url(#Degradado_sin_nombre_29-6);}.cls-38{fill:url(#Degradado_sin_nombre_36-5);}.cls-39{fill:url(#Degradado_sin_nombre_34-8);}.cls-40{fill:url(#Degradado_sin_nombre_34-9);}.cls-41{fill:url(#Degradado_sin_nombre_34-10);}.cls-42{fill:url(#Degradado_sin_nombre_34-11);}.cls-43{fill:#eaedf3;}.cls-44{clip-path:url(#clip-path);}.cls-45{fill:url(#Degradado_sin_nombre_39-3);}.cls-46{fill:url(#Degradado_sin_nombre_36-6);}.cls-47{fill:url(#Degradado_sin_nombre_38);}.cls-48{fill:url(#Degradado_sin_nombre_38-2);}.cls-49{fill:url(#Degradado_sin_nombre_39-4);}</style><linearGradient id="Degradado_sin_nombre_14" x1="-65.36" y1="1527.4" x2="-65.64" y2="1527.38" gradientTransform="matrix(65.21, 0, 0, -104.6, 4261.46, 159832.61)" gradientUnits="userSpaceOnUse"><stop offset="0" stop-color="#444b8c"/><stop offset="1" stop-color="#26264f"/></linearGradient><linearGradient id="Degradado_sin_nombre_14-2" x1="-64.15" y1="1527.51" x2="-64.84" y2="1526.03" gradientTransform="matrix(65.49, 0, 0, -104.63, 4276.6, 159870.54)" xlink:href="#Degradado_sin_nombre_14"/><linearGradient id="Degradado_sin_nombre_34" x1="-64.84" y1="1527.61" x2="-63.84" y2="1527.61" gradientTransform="matrix(61.35, 0, 0, -96.71, 4021.76, 147788.28)" gradientUnits="userSpaceOnUse"><stop offset="0" stop-color="#aa80f9"/><stop offset="1" stop-color="#6165d7"/></linearGradient><linearGradient id="Degradado_sin_nombre_36" x1="-159.83" y1="1607.53" x2="-189.04" y2="1527.39" gradientTransform="matrix(1.84, 0, 0, -1.81, 364.56, 2931.72)" gradientUnits="userSpaceOnUse"><stop offset="0" stop-color="#ffc444"/><stop offset="1" stop-color="#f36f56"/></linearGradient><linearGradient id="Degradado_sin_nombre_39" x1="-64.94" y1="1528.15" x2="-63.94" y2="1528.15" gradientTransform="matrix(59.06, 0, 0, -74.32, 3875.48, 113625.27)" gradientUnits="userSpaceOnUse"><stop offset="0" stop-color="#311944"/><stop offset="1" stop-color="#893976"/></linearGradient><linearGradient id="Degradado_sin_nombre_14-3" x1="-68.46" y1="1532.18" x2="-67.46" y2="1532.18" gradientTransform="matrix(26.75, 0, 0, -26.94, 1838.44, 41285.33)" xlink:href="#Degradado_sin_nombre_14"/><linearGradient id="Degradado_sin_nombre_34-2" x1="-68.46" y1="1532.18" x2="-67.46" y2="1532.18" gradientTransform="matrix(26.75, 0, 0, -26.94, 1839.97, 41285.69)" xlink:href="#Degradado_sin_nombre_34"/><linearGradient id="Degradado_sin_nombre_34-3" x1="-84.24" y1="1546.65" x2="-84.86" y2="1547.38" gradientTransform="matrix(8.63, 0, 0, -9.96, 787.84, 15384.23)" xlink:href="#Degradado_sin_nombre_34"/><linearGradient id="Degradado_sin_nombre_34-4" x1="-163.15" y1="1653.96" x2="-163.62" y2="1654.58" gradientTransform="matrix(9.56, 0, 0, -9.81, 841.35, 15192.4)" xlink:href="#Degradado_sin_nombre_34"/><linearGradient id="Degradado_sin_nombre_34-5" x1="-68.9" y1="1528.58" x2="-69.38" y2="1529.19" gradientTransform="matrix(8.83, 0, 0, -9.42, 773.61, 14558.45)" xlink:href="#Degradado_sin_nombre_34"/><linearGradient id="Degradado_sin_nombre_34-6" x1="-152.9" y1="1618.47" x2="-153.53" y2="1619.16" gradientTransform="matrix(7.78, 0, 0, -9.67, 705.23, 14976.27)" xlink:href="#Degradado_sin_nombre_34"/><linearGradient id="Degradado_sin_nombre_34-7" x1="-73.98" y1="1553.93" x2="-71.59" y2="1546.57" gradientTransform="matrix(14.77, 0, 0, -6.66, 1144.63, 10399.46)" xlink:href="#Degradado_sin_nombre_34"/><linearGradient id="Degradado_sin_nombre_14-4" x1="-104.83" y1="1557.71" x2="-104.97" y2="1557.43" gradientTransform="matrix(3.96, 0, 0, -5.41, 448.11, 8473.21)" xlink:href="#Degradado_sin_nombre_14"/><linearGradient id="Degradado_sin_nombre_14-5" x1="-110.41" y1="1558.08" x2="-109.41" y2="1558.08" gradientTransform="matrix(3.64, 0, 0, -5.29, 428.71, 8287.36)" xlink:href="#Degradado_sin_nombre_14"/><linearGradient id="Degradado_sin_nombre_36-2" x1="-72.38" y1="1542.48" x2="-71.38" y2="1542.48" gradientTransform="matrix(16.22, 0, 0, -10.25, 1198.42, 15858.94)" xlink:href="#Degradado_sin_nombre_36"/><linearGradient id="Degradado_sin_nombre_29" x1="-120.43" y1="1581.24" x2="-120.43" y2="1580.24" gradientTransform="matrix(2.92, 0, 0, -3.1, 382.98, 4958.53)" gradientUnits="userSpaceOnUse"><stop offset="0" stop-color="#74316a"/><stop offset="1" stop-color="#c985bf"/></linearGradient><linearGradient id="Degradado_sin_nombre_29-2" x1="-140.45" y1="1576.49" x2="-140.45" y2="1575.49" gradientTransform="matrix(2.18, 0, 0, -3.4, 342.97, 5405.84)" xlink:href="#Degradado_sin_nombre_29"/><linearGradient id="Degradado_sin_nombre_39-2" x1="-68.28" y1="1531.75" x2="-67.71" y2="1531.36" gradientTransform="matrix(22.41, 0, 0, -26.1, 1562.26, 40047)" xlink:href="#Degradado_sin_nombre_39"/><linearGradient id="Degradado_sin_nombre_25" x1="-105.33" y1="1631.77" x2="-103.85" y2="1627.51" gradientTransform="matrix(3.93, 0, 0, -1.61, 428.26, 2729.8)" gradientUnits="userSpaceOnUse"><stop offset="0" stop-color="#444b8c"/><stop offset="1" stop-color="#3e4177"/></linearGradient><linearGradient id="Degradado_sin_nombre_29-3" x1="-198.77" y1="1606.18" x2="-198.77" y2="1605.18" gradientTransform="matrix(1.25, 0, 0, -2.13, 262.59, 3529.73)" xlink:href="#Degradado_sin_nombre_29"/><linearGradient id="Degradado_sin_nombre_25-2" x1="-105.17" y1="1631.28" x2="-103.69" y2="1627.02" gradientTransform="matrix(3.93, 0, 0, -1.61, 433.67, 2730.7)" xlink:href="#Degradado_sin_nombre_25"/><linearGradient id="Degradado_sin_nombre_29-4" x1="-198.77" y1="1606.18" x2="-198.77" y2="1605.18" gradientTransform="matrix(1.25, 0, 0, -2.13, 268.05, 3530.64)" xlink:href="#Degradado_sin_nombre_29"/><linearGradient id="Degradado_sin_nombre_25-3" x1="-75.28" y1="1531.01" x2="-74.28" y2="1531.01" gradientTransform="matrix(11.01, 0, 0, -33.05, 866.68, 50680.53)" xlink:href="#Degradado_sin_nombre_25"/><linearGradient id="Degradado_sin_nombre_25-4" x1="-75.63" y1="1531.01" x2="-74.63" y2="1531.01" gradientTransform="matrix(10.74, 0, 0, -33.05, 850.6, 50680.62)" xlink:href="#Degradado_sin_nombre_25"/><linearGradient id="Degradado_sin_nombre_25-5" x1="-73.52" y1="1530.95" x2="-72.52" y2="1530.95" gradientTransform="matrix(12.83, 0, 0, -33.41, 979.85, 51233.06)" xlink:href="#Degradado_sin_nombre_25"/><linearGradient id="Degradado_sin_nombre_36-3" x1="-68.49" y1="1531.93" x2="-67.49" y2="1531.93" gradientTransform="matrix(21.81, 0, 0, -28.02, 1529.13, 42980.08)" xlink:href="#Degradado_sin_nombre_36"/><linearGradient id="Degradado_sin_nombre_29-5" x1="-98.7" y1="1559" x2="-98.7" y2="1558" gradientTransform="matrix(4.63, 0, 0, -5.22, 475.85, 8178.38)" xlink:href="#Degradado_sin_nombre_29"/><linearGradient id="Degradado_sin_nombre_36-4" x1="-70.81" y1="1532.16" x2="-69.45" y2="1532.16" gradientTransform="matrix(16.04, 0, 0, -27.01, 1170.84, 41449.21)" xlink:href="#Degradado_sin_nombre_36"/><linearGradient id="Degradado_sin_nombre_29-6" x1="-115.34" y1="1574.11" x2="-115.34" y2="1573.11" gradientTransform="matrix(3.2, 0, 0, -3.57, 387.61, 5657.6)" xlink:href="#Degradado_sin_nombre_29"/><linearGradient id="Degradado_sin_nombre_36-5" x1="-70.32" y1="1538.54" x2="-69.32" y2="1538.54" gradientTransform="matrix(18.67, 0, 0, -13.42, 1342.51, 20707.36)" xlink:href="#Degradado_sin_nombre_36"/><linearGradient id="Degradado_sin_nombre_34-8" x1="-53.22" y1="1502.19" x2="-53.82" y2="1502.86" gradientTransform="matrix(3.59, 0, 0, -4.36, 406.27, 6865.01)" xlink:href="#Degradado_sin_nombre_34"/><linearGradient id="Degradado_sin_nombre_34-9" x1="-243.61" y1="1714.56" x2="-244.21" y2="1715.23" gradientTransform="matrix(3.59, 0, 0, -4.36, 406.65, 6877.99)" xlink:href="#Degradado_sin_nombre_34"/><linearGradient id="Degradado_sin_nombre_34-10" x1="-130.42" y1="1585.34" x2="-131.04" y2="1586.01" gradientTransform="matrix(3.28, 0, 0, -4.12, 398.23, 6501.58)" xlink:href="#Degradado_sin_nombre_34"/><linearGradient id="Degradado_sin_nombre_34-11" x1="-325.02" y1="1784.57" x2="-325.64" y2="1785.2" gradientTransform="matrix(3.29, 0, 0, -4.3, 398.66, 6777.04)" xlink:href="#Degradado_sin_nombre_34"/><clipPath id="clip-path"><path class="cls-1" d="M82.65,34.61a15,15,0,0,1-14.55,14c-7.59,0-13.15-6.33-12.44-14a15,15,0,0,1,14.51-13.5,12.46,12.46,0,0,1,12.52,12.4C82.69,33.88,82.68,34.25,82.65,34.61Z"/></clipPath><linearGradient id="Degradado_sin_nombre_39-3" x1="-69.6" y1="1533.75" x2="-69.66" y2="1534.67" gradientTransform="matrix(21.45, 0, 0, -23.37, 1560.4, 35871.73)" xlink:href="#Degradado_sin_nombre_39"/><linearGradient id="Degradado_sin_nombre_36-6" x1="-67.69" y1="1549.33" x2="-66.98" y2="1537.34" gradientTransform="matrix(29.81, 0, 0, -10.14, 2074.63, 15693.16)" xlink:href="#Degradado_sin_nombre_36"/><linearGradient id="Degradado_sin_nombre_38" x1="-71.33" y1="1545.32" x2="-71.33" y2="1544.32" gradientTransform="matrix(17.55, 0, 0, -8.98, 1320.25, 13917.11)" gradientUnits="userSpaceOnUse"><stop offset="0" stop-color="#7c3972"/><stop offset="1" stop-color="#ce9cc6"/></linearGradient><linearGradient id="Degradado_sin_nombre_38-2" x1="-82" y1="1542.4" x2="-82" y2="1541.4" gradientTransform="matrix(8.4, 0, 0, -10.62, 758.11, 16399.9)" xlink:href="#Degradado_sin_nombre_38"/><linearGradient id="Degradado_sin_nombre_39-4" x1="-75.53" y1="1542.67" x2="-75.64" y2="1544.69" gradientTransform="matrix(12.32, 0, 0, -10.64, 998.6, 16436.86)" xlink:href="#Degradado_sin_nombre_39"/></defs><g class="cls-2"><g id="Capa_2" data-name="Capa 2"><g id="Capa_1-2" data-name="Capa 1"><g id="Grupo_25303" data-name="Grupo 25303"><ellipse id="Elipse_293" data-name="Elipse 293" class="cls-3" cx="53.43" cy="108.26" rx="49.12" ry="4.31"/><g id="Grupo_14796" data-name="Grupo 14796"><path id="Trazado_14782" data-name="Trazado 14782" class="cls-4" d="M55.55,3.57,44.35,96.7a2.45,2.45,0,0,0,2.08,2.77h.06l46.66,5.12c2.86.18,4.43-1.28,4.6-2.77l11.77-99c.17-1.48-1.23-2.82-4.1-2.82L58.33,1A3,3,0,0,0,55.55,3.57Z"/><path id="Trazado_14783" data-name="Trazado 14783" class="cls-5" d="M53.45,3.41,42.18,97a2.46,2.46,0,0,0,2.09,2.79h.06l48.38,4.82a2.84,2.84,0,0,0,3.09-2.44L107.62,2.66A2.32,2.32,0,0,0,105.15,0L56.24.83A3,3,0,0,0,53.45,3.41Z"/><path id="Trazado_14784" data-name="Trazado 14784" class="cls-6" d="M54.36,8.57,43.92,95.35a2.3,2.3,0,0,0,2,2.6h.06l45.5,4.42a2.63,2.63,0,0,0,2.86-2.27L105.23,8.17a2.2,2.2,0,0,0-1.89-2.47,2.67,2.67,0,0,0-.4,0L57,6.18A2.77,2.77,0,0,0,54.36,8.57Z"/><path id="Trazado_14785" data-name="Trazado 14785" class="cls-7" d="M78.76,3.35a.78.78,0,0,0,.65.88h.15a1.07,1.07,0,0,0,1-.92.78.78,0,0,0-.65-.88h-.15A1.07,1.07,0,0,0,78.76,3.35Z"/><g id="Grupo_14795" data-name="Grupo 14795"><path id="Trazado_14786" data-name="Trazado 14786" class="cls-8" d="M62.23,66.82C71.54,49.6,85.46,44.45,89.65,26.7c2.26-9.6.72-18.78-1.88-26.4L105.15,0a2.36,2.36,0,0,1,2.49,2.2,2.33,2.33,0,0,1,0,.46L95.79,102.18a2.81,2.81,0,0,1-3.08,2.43l-38-3.78C54.4,85.4,58.08,74.5,62.23,66.82Z"/></g></g><g id="Grupo_14798" data-name="Grupo 14798"><path id="Trazado_14787" data-name="Trazado 14787" class="cls-9" d="M96.54,14.16l.23,1.22H92.09l-40.62.1a2.27,2.27,0,0,0-2.15,1.93l-9.7,64.8c-.14,1.08,1.53,2.71,2.57,2.79l18,1.39v0l26.95,2.06h0l.07,0a2.21,2.21,0,0,0,2.35-1.88h0L98.66,17.4C98.82,16.29,97.7,14.15,96.54,14.16Z"/><g id="Grupo_14797" data-name="Grupo 14797"><path id="Trazado_14788" data-name="Trazado 14788" class="cls-8" d="M88.67,85.24a2.23,2.23,0,0,1-2.36,1.9L41.23,83.67a1.79,1.79,0,0,1-1.64-1.94s0-.09,0-.14L48.42,16.1a2.26,2.26,0,0,1,2.15-1.93L95.92,14a1.76,1.76,0,0,1,1.84,1.68,2,2,0,0,1,0,.35Z"/><path id="Trazado_14789" data-name="Trazado 14789" class="cls-10" d="M97.75,16.07,88.67,85.24a2.28,2.28,0,0,1-2.42,1.89L59.17,85.05a14.47,14.47,0,0,1-3.1-4.79,14.89,14.89,0,0,1-.82-3,24.91,24.91,0,0,1,.42-9.5,31.41,31.41,0,0,1,2.58-7.22,24.29,24.29,0,0,1,3.16-4.8c.86-1,1.78-1.94,2.76-2.89,1.17-1.13,2.43-2.24,3.72-3.34,3-2.56,6.22-5.07,9.21-7.71C84,35.71,89.56,28.88,88.22,19.15c0-.3-.47-2.65-1-5.08l8.63,0a1.82,1.82,0,0,1,1.91,1.72C97.76,15.86,97.76,16,97.75,16.07Z"/></g></g><g id="Grupo_14799" data-name="Grupo 14799"><path id="Trazado_14790" data-name="Trazado 14790" class="cls-11" d="M33.92,14.79A14.49,14.49,0,0,1,20.58,29.07,12.41,12.41,0,0,1,7.21,17.69a11.83,11.83,0,0,1,0-1.19A14.49,14.49,0,0,1,20.58,2.21a12.42,12.42,0,0,1,13.3,11.48C33.91,14.06,33.92,14.43,33.92,14.79Z"/><path id="Trazado_14791" data-name="Trazado 14791" class="cls-12" d="M35.5,15.27A14.5,14.5,0,0,1,22.17,29.55,12.42,12.42,0,0,1,8.79,18.16c0-.39,0-.79,0-1.19A14.48,14.48,0,0,1,22.17,2.69a12.43,12.43,0,0,1,13.3,11.48C35.49,14.54,35.5,14.9,35.5,15.27Z"/><path id="Trazado_14792" data-name="Trazado 14792" class="cls-8" d="M21.69,23.39a1.55,1.55,0,0,1-1.42-.72L16.76,17a1.73,1.73,0,0,1,.56-2.33,1.61,1.61,0,0,1,2.24.37l0,.06,2,3.24,4.62-9.4A1.73,1.73,0,0,1,28.41,8a1.59,1.59,0,0,1,.75,2.12l0,.07-6,12.15a1.82,1.82,0,0,1-1.42,1Z"/></g><g id="Grupo_14806" data-name="Grupo 14806"><g id="Grupo_14802" data-name="Grupo 14802"><g id="Grupo_14800" data-name="Grupo 14800"><path id="Trazado_14793" data-name="Trazado 14793" class="cls-13" d="M87.33,27.29a.77.77,0,0,0,.77-.63L89.19,18a.56.56,0,0,0-.49-.63H81.3a.76.76,0,0,0-.73.63.54.54,0,0,0,.44.63h6.7l-1,8a.61.61,0,0,0,.55.65Z"/></g><g id="Grupo_14801" data-name="Grupo 14801"><path id="Trazado_14794" data-name="Trazado 14794" class="cls-14" d="M77,52.52l7.17.42a.71.71,0,0,0,.74-.59L86,43.79a.61.61,0,0,0-.56-.66h0a.75.75,0,0,0-.77.6l-1,7.92-6.49-.37a.66.66,0,0,0-.7.58.61.61,0,0,0,.54.66Z"/></g></g><g id="Grupo_14805" data-name="Grupo 14805"><g id="Grupo_14803" data-name="Grupo 14803"><path id="Trazado_14795" data-name="Trazado 14795" class="cls-15" d="M54.24,26.75a.65.65,0,0,0,.64-.59l.88-7.61h6.1a.73.73,0,0,0,.7-.61.52.52,0,0,0-.43-.61H55.36a.7.7,0,0,0-.67.6l-.95,8.2a.53.53,0,0,0,.41.61Z"/></g><g id="Grupo_14804" data-name="Grupo 14804"><path id="Trazado_14796" data-name="Trazado 14796" class="cls-16" d="M51.47,51l6.57.39a.66.66,0,0,0,.68-.57.58.58,0,0,0-.54-.63h0l-6-.33L53,42.36a.53.53,0,0,0-.42-.62h-.08a.63.63,0,0,0-.63.57L51,50.39a.56.56,0,0,0,.48.63Z"/></g></g></g><g id="Grupo_14807" data-name="Grupo 14807"><path id="Trazado_14797" data-name="Trazado 14797" class="cls-17" d="M78.55,58.58a.69.69,0,0,1-.7.57L54,58.28a.5.5,0,0,1-.5-.51.19.19,0,0,1,0-.08L54,54.21a.63.63,0,0,1,.65-.53l23.88.66a.53.53,0,0,1,.55.49.34.34,0,0,1,0,.1Z"/><path id="Trazado_14798" data-name="Trazado 14798" class="cls-17" d="M77.62,65.64a.71.71,0,0,1-.7.61L53.08,65.07a.54.54,0,0,1-.49-.6v0l.48-3.54a.67.67,0,0,1,.64-.59l23.86,1a.59.59,0,0,1,.55.61s0,0,0,.06Z"/><path id="Trazado_14799" data-name="Trazado 14799" class="cls-18" d="M79,54.92a.57.57,0,0,0-.18,0L55,54.23a.62.62,0,0,0-.65.53l-.47,3.47v0a.52.52,0,0,1-.36-.57L54,54.21a.62.62,0,0,1,.65-.53l23.88.66a.52.52,0,0,1,.54.49Z"/><path id="Trazado_14800" data-name="Trazado 14800" class="cls-18" d="M78.11,61.85a.58.58,0,0,0-.18,0l-23.86-1a.67.67,0,0,0-.64.58L53,65v.07a.57.57,0,0,1-.36-.62l.48-3.54a.67.67,0,0,1,.64-.59l23.86,1A.57.57,0,0,1,78.11,61.85Z"/><path id="Trazado_14801" data-name="Trazado 14801" class="cls-19" d="M71.28,71.36a.91.91,0,0,0-.77-1h-.07L58.1,69.6a1.06,1.06,0,0,0-1.06.92l-.5,3.84a.91.91,0,0,0,.74,1h.06l12.33.85a1.1,1.1,0,0,0,1.1-1Z"/></g><path id="Trazado_14802" data-name="Trazado 14802" class="cls-8" d="M19.6,42.68l14.83,5.43-3.75,5.22L20.35,45.84Z"/><g id="Grupo_14811" data-name="Grupo 14811"><g id="Grupo_14808" data-name="Grupo 14808"><path id="Trazado_14803" data-name="Trazado 14803" class="cls-20" d="M30.48,53.14l1.13-4.21a.5.5,0,0,1,.34-.35l2-.63H34a.46.46,0,0,1,.44.17.27.27,0,0,1-.3,0l-1.41,4.55-2,.63a.15.15,0,0,1-.19-.1.11.11,0,0,1,0-.08Z"/><path id="Trazado_14804" data-name="Trazado 14804" class="cls-21" d="M30.82,53.14l1.11-4.08a.5.5,0,0,1,.34-.35l2-.66a.14.14,0,0,1,.16.08v.08l-1.34,4.3a.34.34,0,0,1-.22.23L31,53.32a.15.15,0,0,1-.19-.1.11.11,0,0,1,0-.08Z"/></g><path id="Trazado_14805" data-name="Trazado 14805" class="cls-22" d="M36.35,51.59c.83.74-.7,6.26-5,7.91a8.33,8.33,0,0,1-9.49-3c-1.13-1.64-2.15-4.58-.9-6a2.43,2.43,0,0,1,1.78-.79c2.35.13,2.5,4.53,5,5.07.59.13.8-.07,5.74-2.22C35.83,51.53,36.15,51.42,36.35,51.59Z"/><path id="Trazado_14806" data-name="Trazado 14806" class="cls-23" d="M30,53.79s-.21-.82.29-1.2.71-1.36.8-1a2,2,0,0,1,0,.78s1.8-1.57,1.78-1a5.44,5.44,0,0,1-2.16,2.73C29.82,54.42,30,54.47,30,53.79Z"/><path id="Trazado_14807" data-name="Trazado 14807" class="cls-24" d="M36.12,51.65s0-1.16.63-1.43S38,48.62,38,49.3a1.34,1.34,0,0,1-.66,1s1,.36.56.91a3.3,3.3,0,0,1-1.43.92s-.13.42-.48.36S35.94,51.84,36.12,51.65Z"/><g id="Grupo_14810" data-name="Grupo 14810"><path id="Trazado_14808" data-name="Trazado 14808" class="cls-25" d="M15,66.06a14.2,14.2,0,0,1-8.75.79c-2.51-.37-4.93-.74-5.88-2.62s-.1-4.53,1.38-6c1.74-1.7,3.48-.85,4.7-2.52s-.22-3.09.89-5c1.4-2.4,4.42-1.38,5.88-3.81,1.2-2-.27-3.61.94-4.89,1.68-1.77,6.58-.83,7.36,1.26.31.82-.16,1.42-.5,2.57-1.09,3.64,1.14,5.71,1.35,9C22.67,59.36,19.15,64.09,15,66.06Z"/><path id="Trazado_14809" data-name="Trazado 14809" class="cls-26" d="M12.76,104.09s3.35.43,3.48,1.19-3.73.11-3.73.11S11.92,105.19,12.76,104.09Z"/><path id="Trazado_14810" data-name="Trazado 14810" class="cls-27" d="M13,102.28l-.08,1.87a.63.63,0,0,0,.87.15h0l.37-2Z"/><path id="Trazado_14811" data-name="Trazado 14811" class="cls-28" d="M18.22,105s3.35.42,3.48,1.18-3.73.11-3.73.11S17.38,106.1,18.22,105Z"/><path id="Trazado_14812" data-name="Trazado 14812" class="cls-29" d="M18.43,103.19l-.08,1.87a.62.62,0,0,0,.87.14h0l.37-2Z"/><path id="Trazado_14813" data-name="Trazado 14813" class="cls-30" d="M23,72.36a61.52,61.52,0,0,1-1.78,11.19c-.42,1.65-.84,3-1.8,5.88-1.14,3.42-2.74,8.08-4.83,13.71l-1.82.28c-1.25-4.57-.89-8.17.39-11,.77-1.69,1.22-1.71,2-3.6s1.18-4,1-10.86c-.06-1.94-.17-4.51-.4-7.55Z"/><path id="Trazado_14814" data-name="Trazado 14814" class="cls-31" d="M23,72.36a61.52,61.52,0,0,1-1.78,11.19c-.42,1.65-.84,3-1.8,5.88-1.14,3.42-2.74,8.08-4.83,13.71l-1.82.28c-1.07-4.27-.29-6.51.69-7.77A9.63,9.63,0,0,0,15.32,93c.65-1.58.19-2.3.53-4.15.45-2.5,1.53-2.54,1.91-4.49.45-2.31-.82-3.42-1.68-6.43a17.51,17.51,0,0,1-.4-7.55Z"/><path id="Trazado_14815" data-name="Trazado 14815" class="cls-32" d="M18.75,71.93a26.76,26.76,0,0,1,1.05,32.22L18,104a27.66,27.66,0,0,1,.3-7.27c.78-4.5,2-5,1.83-7.56-.24-3.22-2.27-3.73-5.44-9.58C13,76.43,11,72.66,12.28,71.27,12.53,71,13.76,69.92,18.75,71.93Z"/><path id="Trazado_14816" data-name="Trazado 14816" class="cls-33" d="M20.3,48.37a6.64,6.64,0,0,1,3.79,2.28c.44.52,1.74,2.22,1.77,6.55,0,4.16-1.16,4.64-1.52,8.58-.53,5.81,1.7,8.54.14,9.85-1.32,1.12-2.94-.86-7.41-.65-3.69.18-4.4,1.61-7.57,1.26-.49-.06-4.73-.58-5.38-2.8-.45-1.54,1.22-2.55,3.51-6.28a38.68,38.68,0,0,0,3.81-8.54c1.62-5,1-6.34,2.77-8.16C14.44,50.24,17,47.77,20.3,48.37Z"/><path id="Trazado_14817" data-name="Trazado 14817" class="cls-34" d="M18.13,44.43s.44,3-1.23,4.66a.21.21,0,0,0,0,.29.17.17,0,0,0,.1.06,8.55,8.55,0,0,0,4.32-.16.2.2,0,0,0,.14-.25.26.26,0,0,0-.07-.1,4.71,4.71,0,0,1-1.31-1.53,8.57,8.57,0,0,1-.57-2.7Z"/><g id="Grupo_14809" data-name="Grupo 14809" class="cls-35"><path id="Trazado_14818" data-name="Trazado 14818" class="cls-36" d="M7.63,67.16a38.68,38.68,0,0,0,3.81-8.54c1.61-5,.94-6.34,2.77-8.16a8.56,8.56,0,0,1,2-1.4,8,8,0,0,0-.31,3.38c.58,4.24,4.68,5.71,4.15,8.35-.47,2.41-4.12,2.31-4.64,4.89s3,4.41,2.27,6.28-4.24.86-7.76,3a9.15,9.15,0,0,0-1.46,1.1c-1.44-.29-3.84-1-4.32-2.63S5.34,70.89,7.63,67.16Z"/></g><path id="Trazado_14819" data-name="Trazado 14819" class="cls-37" d="M18.08,45.51a1.73,1.73,0,0,0,1.93.6c1.06-.39.43-3.12-.41-3.43a1.49,1.49,0,0,0-1.13.16A1.63,1.63,0,0,0,18,44.69c-.27-.08-.5,0-.56.12s.15.4.2.45A.89.89,0,0,0,18.08,45.51Z"/><path id="Trazado_14820" data-name="Trazado 14820" class="cls-38" d="M31.19,53.85,30,53.4c-.24.42-1.8,3.16-4.72,3.58-2.76.39-5.35-1.48-6.55-3.31s-.91-3.26-2-3.59-2.41.87-3,1.68a7,7,0,0,0-.52,6.9c1.51,3.37,5.55,5.1,9,4.74,5.34-.54,7.81-5.92,8.23-6.89A11.25,11.25,0,0,0,31.19,53.85Z"/></g></g><g id="Grupo_14818" data-name="Grupo 14818"><g id="Grupo_14814" data-name="Grupo 14814"><g id="Grupo_14812" data-name="Grupo 14812"><path id="Trazado_14821" data-name="Trazado 14821" class="cls-39" d="M12.07,40.93a.29.29,0,0,1-.29-.28V36.84a.29.29,0,0,1,.28-.28h3a.28.28,0,0,1,.27.28.28.28,0,0,1-.26.28H12.36v3.52A.3.3,0,0,1,12.07,40.93Z"/></g><g id="Grupo_14813" data-name="Grupo 14813"><path id="Trazado_14822" data-name="Trazado 14822" class="cls-40" d="M15.1,52.09l-3,.19a.26.26,0,0,1-.28-.24V48.21a.29.29,0,0,1,.29-.29.27.27,0,0,1,.29.25h0V51.7l2.74-.16a.26.26,0,0,1,.27.23v0A.29.29,0,0,1,15.1,52.09Z"/></g></g><g id="Grupo_14817" data-name="Grupo 14817"><g id="Grupo_14815" data-name="Grupo 14815"><path id="Trazado_14823" data-name="Trazado 14823" class="cls-41" d="M25.92,40.69a.24.24,0,0,1-.24-.25h0V37.09H23.14a.26.26,0,0,1-.26-.27.24.24,0,0,1,.24-.26h2.79a.24.24,0,0,1,.24.26v3.59A.25.25,0,0,1,25.92,40.69Z"/></g><g id="Grupo_14816" data-name="Grupo 14816"><path id="Trazado_14824" data-name="Trazado 14824" class="cls-42" d="M25.91,51.42l-2.78.18a.25.25,0,0,1-.26-.24v0a.29.29,0,0,1,.27-.28l2.54-.15V47.58a.26.26,0,0,1,.24-.28.24.24,0,0,1,.24.23v3.61A.27.27,0,0,1,25.91,51.42Z"/></g></g></g><g id="Grupo_14822" data-name="Grupo 14822"><path id="Trazado_14825" data-name="Trazado 14825" class="cls-18" d="M68.05,49.19c-7.89,0-13.69-6.6-12.94-14.58a15.57,15.57,0,0,1,15.1-14,13,13,0,0,1,13,12.93c0,.37,0,.74,0,1.11A15.57,15.57,0,0,1,68.05,49.19Z"/><g id="Grupo_14821" data-name="Grupo 14821"><path id="Trazado_14826" data-name="Trazado 14826" class="cls-43" d="M82.65,34.61a15,15,0,0,1-14.55,14c-7.59,0-13.15-6.33-12.44-14a15,15,0,0,1,14.51-13.5,12.46,12.46,0,0,1,12.52,12.4C82.69,33.88,82.68,34.25,82.65,34.61Z"/><g class="cls-44"><g id="Grupo_14820" data-name="Grupo 14820"><g id="Grupo_14819" data-name="Grupo 14819"><path id="Trazado_14827" data-name="Trazado 14827" class="cls-45" d="M68.42,24.84A7.62,7.62,0,0,0,62.05,28c-1.51,2.26.15,3.4-1,7.12-1.1,3.45-3,4-2.91,6.34.12,2.52,2.55,4.13,3.51,4.77C66,49.08,73.16,49,77,45.24c.32-.3,3-2.84,2.44-5.16C79,38,76.45,38,76.06,35.87c-.34-1.83,1.45-2.42,1.45-5,0-.51,0-2.93-1.84-4a4.59,4.59,0,0,0-3.17-.43A6.89,6.89,0,0,0,68.42,24.84Z"/><path id="Trazado_14828" data-name="Trazado 14828" class="cls-46" d="M53.53,44a35.64,35.64,0,0,1,29.81,0s-2.47,6.42-15.12,6.86C55.12,51.3,53.53,44,53.53,44Z"/><path id="Trazado_14829" data-name="Trazado 14829" class="cls-47" d="M67.12,34.41l-.77,3.49a3.58,3.58,0,0,1-2.45,2.59L59.73,41.8s7.49,3.58,17.55,0l-4.36-1.49a3,3,0,0,1-2-2.88l.09-3Z"/><path id="Trazado_14830" data-name="Trazado 14830" class="cls-48" d="M73.32,31.42c-.21,2.92-2.3,6.07-4.63,6s-4-3.23-3.74-6.18a4.42,4.42,0,0,1,4.55-4.43C71.8,26.91,73.52,28.53,73.32,31.42Z"/><path id="Trazado_14831" data-name="Trazado 14831" class="cls-49" d="M71.19,28.76a7.15,7.15,0,0,0-4.57,1.56C64.24,32.47,65,36,64,36.16s-2-2.32-1.8-5c.21-2.26,1.25-4.88,3.43-5.49,1.27-.36,1.59.27,5.57.73,2.32.27,1.34,1.24,1.84,1.62,2.22,1.68,1.55,7.12.28,7.17C72.72,35.19,72,33.75,71.19,28.76Z"/></g></g></g></g></g></g></g></g></g></svg>