<svg xmlns="http://www.w3.org/2000/svg" xmlns:xlink="http://www.w3.org/1999/xlink" viewBox="0 0 106.76 129.07"><defs><style>.cls-1{opacity:0.2;}.cls-2{fill:url(#Degradado_sin_nombre_14);}.cls-3{fill:url(#Degradado_sin_nombre_14-2);}.cls-4{fill:#fff;}.cls-5{fill:url(#Degradado_sin_nombre_34);}.cls-6{fill:url(#Degradado_sin_nombre_6);}.cls-7{fill:url(#Degradado_sin_nombre_6-2);}.cls-8{fill:url(#Degradado_sin_nombre_6-3);}.cls-9{opacity:0.48;}.cls-10{fill:url(#Degradado_sin_nombre_13);}.cls-11{fill:url(#Degradado_sin_nombre_13-2);}.cls-12{fill:url(#Degradado_sin_nombre_13-3);}.cls-13{fill:url(#Degradado_sin_nombre_13-4);}.cls-14{fill:url(#Degradado_sin_nombre_13-5);}.cls-15{fill:url(#Degradado_sin_nombre_13-6);}.cls-16{fill:url(#Degradado_sin_nombre_13-7);}.cls-17{fill:url(#Degradado_sin_nombre_39);}.cls-18{fill:url(#Degradado_sin_nombre_15);}.cls-19{fill:url(#Degradado_sin_nombre_16);}.cls-20{fill:url(#Degradado_sin_nombre_36);}.cls-21{fill:url(#Degradado_sin_nombre_64);}.cls-22{fill:url(#Degradado_sin_nombre_64-2);}.cls-23{fill:url(#Degradado_sin_nombre_14-3);}.cls-24{fill:url(#Degradado_sin_nombre_14-4);}.cls-25{fill:#d8dee8;}.cls-26{fill:url(#Degradado_sin_nombre_14-5);}.cls-27{fill:url(#Degradado_sin_nombre_36-2);}.cls-28{fill:url(#Degradado_sin_nombre_14-6);}.cls-29{fill:url(#Degradado_sin_nombre_14-7);}.cls-30{fill:url(#Degradado_sin_nombre_36-3);}.cls-31{fill:url(#Degradado_sin_nombre_14-8);}.cls-32{fill:url(#Degradado_sin_nombre_3);}.cls-33,.cls-40{isolation:isolate;opacity:0.3;}.cls-33{fill:url(#Degradado_sin_nombre_3-2);}.cls-34{fill:url(#Degradado_sin_nombre_30);}.cls-35{fill:#26264f;}.cls-36{fill:url(#Degradado_sin_nombre_36-4);}.cls-37{fill:url(#Degradado_sin_nombre_34-2);}.cls-38{fill:url(#Degradado_sin_nombre_36-5);}.cls-39{fill:url(#Degradado_sin_nombre_36-6);}.cls-40{fill:url(#Degradado_sin_nombre_66);}.cls-41{fill:url(#Degradado_sin_nombre_34-3);}.cls-42{fill:url(#Degradado_sin_nombre_14-9);}.cls-43{fill:url(#Degradado_sin_nombre_34-4);}</style><linearGradient id="Degradado_sin_nombre_14" x1="-487.87" y1="1538.76" x2="-486.81" y2="1538.76" gradientTransform="matrix(58.21, 0, 0, -101.11, 28451.14, 155652.78)" gradientUnits="userSpaceOnUse"><stop offset="0" stop-color="#444b8c"/><stop offset="1" stop-color="#26264f"/></linearGradient><linearGradient id="Degradado_sin_nombre_14-2" x1="-488" y1="1538.95" x2="-487.85" y2="1539.18" gradientTransform="matrix(58.57, 0, 0, -101.37, 28631.57, 156054.9)" xlink:href="#Degradado_sin_nombre_14"/><linearGradient id="Degradado_sin_nombre_34" x1="-487.44" y1="1547.36" x2="-486.78" y2="1550.25" gradientTransform="matrix(48.44, 0, 0, -16.07, 23637.84, 24907.15)" gradientUnits="userSpaceOnUse"><stop offset="0" stop-color="#aa80f9"/><stop offset="1" stop-color="#6165d7"/></linearGradient><linearGradient id="Degradado_sin_nombre_6" x1="-335.99" y1="1655.15" x2="-366.82" y2="1573.72" gradientTransform="matrix(1.7, 0, 0, -1.74, 615.74, 2873.33)" gradientUnits="userSpaceOnUse"><stop offset="0" stop-color="#fff2f7"/><stop offset="1" stop-color="#95c1f6"/></linearGradient><linearGradient id="Degradado_sin_nombre_6-2" x1="-486.41" y1="1545.46" x2="-485.86" y2="1543.74" gradientTransform="matrix(39.06, 0, 0, -26.92, 19023.88, 41639.59)" xlink:href="#Degradado_sin_nombre_6"/><linearGradient id="Degradado_sin_nombre_6-3" x1="-485.91" y1="1551.32" x2="-485.55" y2="1549.24" gradientTransform="matrix(37.88, 0, 0, -14.19, 18440.96, 22102.32)" xlink:href="#Degradado_sin_nombre_6"/><linearGradient id="Degradado_sin_nombre_13" x1="-469.53" y1="1552.45" x2="-470.94" y2="1547.42" gradientTransform="matrix(11.33, 0, 0, -12.34, 5349.06, 19212.4)" gradientUnits="userSpaceOnUse"><stop offset="0" stop-color="#311944"/><stop offset="1" stop-color="#532658"/></linearGradient><linearGradient id="Degradado_sin_nombre_13-2" x1="-471.8" y1="1554.42" x2="-471.88" y2="1552.26" gradientTransform="matrix(12.56, 0, 0, -12.52, 5958.86, 19483.05)" xlink:href="#Degradado_sin_nombre_13"/><linearGradient id="Degradado_sin_nombre_13-3" x1="-469.22" y1="1557.02" x2="-469.54" y2="1551.21" gradientTransform="matrix(11.13, 0, 0, -9.7, 5262.82, 15134.61)" xlink:href="#Degradado_sin_nombre_13"/><linearGradient id="Degradado_sin_nombre_13-4" x1="-468.79" y1="1552.28" x2="-464.27" y2="1555.38" gradientTransform="matrix(10.44, 0, 0, -11.68, 4935.53, 18192.19)" xlink:href="#Degradado_sin_nombre_13"/><linearGradient id="Degradado_sin_nombre_13-5" x1="-464.56" y1="1557.82" x2="-466.07" y2="1552.82" gradientTransform="matrix(9.71, 0, 0, -11.1, 4581.33, 17303.68)" xlink:href="#Degradado_sin_nombre_13"/><linearGradient id="Degradado_sin_nombre_13-6" x1="-370.23" y1="1552.27" x2="-369.78" y2="1552.27" gradientTransform="matrix(10.02, 0, 0, -12.16, 4721.12, 18924.49)" xlink:href="#Degradado_sin_nombre_13"/><linearGradient id="Degradado_sin_nombre_13-7" x1="-450.33" y1="1569.29" x2="-449.18" y2="1569.29" gradientTransform="matrix(5.53, 0, 0, -5.76, 2507.69, 9105.76)" xlink:href="#Degradado_sin_nombre_13"/><linearGradient id="Degradado_sin_nombre_39" x1="-422.54" y1="1590.21" x2="-421.39" y2="1590.21" gradientTransform="matrix(3.35, 0, 0, -3.5, 1435.26, 5628.18)" gradientUnits="userSpaceOnUse"><stop offset="0" stop-color="#311944"/><stop offset="1" stop-color="#893976"/></linearGradient><linearGradient id="Degradado_sin_nombre_15" x1="-469.53" y1="1552.51" x2="-470.93" y2="1547.52" gradientTransform="matrix(11.33, 0, 0, -12.29, 5350.16, 19133.61)" gradientUnits="userSpaceOnUse"><stop offset="0" stop-color="#ab316d"/><stop offset="1" stop-color="#792d3d"/></linearGradient><linearGradient id="Degradado_sin_nombre_16" x1="-471.8" y1="1554.44" x2="-471.88" y2="1552.27" gradientTransform="matrix(12.56, 0, 0, -12.51, 5959.25, 19459.38)" gradientUnits="userSpaceOnUse"><stop offset="0" stop-color="#ffc444"/><stop offset="0.54" stop-color="#f8964e"/><stop offset="1" stop-color="#f36f56"/></linearGradient><linearGradient id="Degradado_sin_nombre_36" x1="-469.22" y1="1557.19" x2="-469.53" y2="1551.36" gradientTransform="matrix(11.13, 0, 0, -9.62, 5263.18, 15016.33)" gradientUnits="userSpaceOnUse"><stop offset="0" stop-color="#ffc444"/><stop offset="1" stop-color="#f36f56"/></linearGradient><linearGradient id="Degradado_sin_nombre_64" x1="-468.78" y1="1552.38" x2="-464.26" y2="1555.49" gradientTransform="matrix(10.44, 0, 0, -11.62, 4934.44, 18097.23)" gradientUnits="userSpaceOnUse"><stop offset="0" stop-color="#e38ddd"/><stop offset="1" stop-color="#9571f6"/></linearGradient><linearGradient id="Degradado_sin_nombre_64-2" x1="-464.57" y1="1557.86" x2="-466.07" y2="1552.89" gradientTransform="matrix(9.71, 0, 0, -11.06, 4581.72, 17241.75)" xlink:href="#Degradado_sin_nombre_64"/><linearGradient id="Degradado_sin_nombre_14-3" x1="-370.24" y1="1552.27" x2="-369.78" y2="1552.27" gradientTransform="matrix(10.02, 0, 0, -12.16, 4721.5, 18929.33)" xlink:href="#Degradado_sin_nombre_14"/><linearGradient id="Degradado_sin_nombre_14-4" x1="-450.32" y1="1569.29" x2="-449.17" y2="1569.29" gradientTransform="matrix(5.53, 0, 0, -5.76, 2508.08, 9105.72)" xlink:href="#Degradado_sin_nombre_14"/><linearGradient id="Degradado_sin_nombre_14-5" x1="-321.76" y1="1574.43" x2="-320.71" y2="1572.98" gradientTransform="matrix(2.37, 0, 0, -1.53, 992.85, 2660.33)" xlink:href="#Degradado_sin_nombre_14"/><linearGradient id="Degradado_sin_nombre_36-2" x1="-309.21" y1="1578.55" x2="-309.21" y2="1579.97" gradientTransform="matrix(1.41, 0, 0, -3.07, 522.68, 5020.24)" xlink:href="#Degradado_sin_nombre_36"/><linearGradient id="Degradado_sin_nombre_14-6" x1="-274.77" y1="1581.29" x2="-273.44" y2="1579.5" gradientTransform="matrix(1.87, 0, 0, -1.24, 747.7, 2214.33)" xlink:href="#Degradado_sin_nombre_14"/><linearGradient id="Degradado_sin_nombre_14-7" x1="-307.46" y1="1561.85" x2="-306.37" y2="1560.54" gradientTransform="matrix(2.28, 0, 0, -1.7, 931.29, 2918.16)" xlink:href="#Degradado_sin_nombre_14"/><linearGradient id="Degradado_sin_nombre_36-3" x1="-349.97" y1="1596.99" x2="-349.97" y2="1598.36" gradientTransform="matrix(1.82, 0, 0, -3.18, 705.49, 5203.67)" xlink:href="#Degradado_sin_nombre_36"/><linearGradient id="Degradado_sin_nombre_14-8" x1="-271.92" y1="1583.66" x2="-270.56" y2="1581.89" gradientTransform="matrix(1.83, 0, 0, -1.24, 711.96, 2225.37)" xlink:href="#Degradado_sin_nombre_14"/><linearGradient id="Degradado_sin_nombre_3" x1="-467.85" y1="1541.46" x2="-466.85" y2="1541.46" gradientTransform="matrix(10.29, 0, 0, -41.07, 4893.98, 63408.57)" gradientUnits="userSpaceOnUse"><stop offset="0" stop-color="#311944"/><stop offset="1" stop-color="#6b3976"/></linearGradient><linearGradient id="Degradado_sin_nombre_3-2" x1="-465.72" y1="1541.46" x2="-464.72" y2="1541.46" gradientTransform="matrix(9.49, 0, 0, -41.07, 4497.73, 63408.57)" xlink:href="#Degradado_sin_nombre_3"/><linearGradient id="Degradado_sin_nombre_30" x1="-474.66" y1="1541.04" x2="-476.46" y2="1541.16" gradientTransform="matrix(15.77, 0, 0, -44.07, 7586.04, 68019.97)" gradientUnits="userSpaceOnUse"><stop offset="0" stop-color="#311944"/><stop offset="0.74" stop-color="#5c3169"/><stop offset="1" stop-color="#6b3976"/></linearGradient><linearGradient id="Degradado_sin_nombre_36-4" x1="-375.71" y1="1570.52" x2="-371.38" y2="1567.77" gradientTransform="matrix(2.21, 0, 0, -5.6, 886.5, 8848.13)" xlink:href="#Degradado_sin_nombre_36"/><linearGradient id="Degradado_sin_nombre_34-2" x1="-484.01" y1="1541.38" x2="-483.01" y2="1541.38" gradientTransform="matrix(28.73, 0, 0, -41.84, 13968.2, 64556.21)" xlink:href="#Degradado_sin_nombre_34"/><linearGradient id="Degradado_sin_nombre_36-5" x1="-444.32" y1="1530.84" x2="-443.14" y2="1529.29" gradientTransform="matrix(9.31, 0, 0, -8.92, 4403.03, 13948.41)" xlink:href="#Degradado_sin_nombre_36"/><linearGradient id="Degradado_sin_nombre_36-6" x1="136.73" y1="1388.41" x2="151.04" y2="1374.63" gradientTransform="matrix(0.86, 0, 0, -1.12, 241.44, 1950.86)" xlink:href="#Degradado_sin_nombre_36"/><linearGradient id="Degradado_sin_nombre_66" x1="-482.07" y1="1543.12" x2="-481.32" y2="1542.59" gradientTransform="matrix(23.37, 0, 0, -31.32, 11330.77, 48390.44)" gradientUnits="userSpaceOnUse"><stop offset="0" stop-color="#ff9085"/><stop offset="1" stop-color="#fb6fbb"/></linearGradient><linearGradient id="Degradado_sin_nombre_34-3" x1="-476.53" y1="1545.69" x2="-475.53" y2="1545.69" gradientTransform="matrix(15.7, 0, 0, -21.28, 7539.55, 32955.18)" xlink:href="#Degradado_sin_nombre_34"/><linearGradient id="Degradado_sin_nombre_14-9" x1="-482.72" y1="1533.15" x2="-481.72" y2="1533.15" gradientTransform="matrix(16.26, -24.1, -24.27, -16.37, 45086.94, 13491.33)" xlink:href="#Degradado_sin_nombre_14"/><linearGradient id="Degradado_sin_nombre_34-4" x1="-482.72" y1="1533.15" x2="-481.72" y2="1533.15" gradientTransform="matrix(16.26, -24.1, -24.27, -16.37, 45088.32, 13490.2)" xlink:href="#Degradado_sin_nombre_34"/></defs><g id="Capa_2" data-name="Capa 2"><g id="Capa_1-2" data-name="Capa 1"><g id="Grupo_25290" data-name="Grupo 25290"><ellipse id="Elipse_293" data-name="Elipse 293" class="cls-1" cx="53.38" cy="124.39" rx="53.38" ry="4.68"/><g id="Grupo_14875" data-name="Grupo 14875"><g id="Grupo_14870" data-name="Grupo 14870"><g id="Grupo_14856" data-name="Grupo 14856"><g id="Grupo_14852" data-name="Grupo 14852"><g id="Grupo_14851" data-name="Grupo 14851"><g id="Grupo_14850" data-name="Grupo 14850"><path id="Trazado_14895" data-name="Trazado 14895" class="cls-2" d="M60.61,16.4l8.15,91.41a2.47,2.47,0,0,1-2.14,2.74l-44.08,4.54c-2.63.14-4-1.29-4.15-2.73L10.57,17.45c-.11-1.4,1.2-2.73,3.8-2.82L58.05,14A2.61,2.61,0,0,1,60.61,16.4Z"/><path id="Trazado_14896" data-name="Trazado 14896" class="cls-3" d="M62.61,16.17l8.23,92a2.5,2.5,0,0,1-2.16,2.76L23,115.11a2.59,2.59,0,0,1-2.77-2.38v0L12.29,17.22a2.38,2.38,0,0,1,2.12-2.6h.2L60,13.74A2.64,2.64,0,0,1,62.61,16.17Z"/><path id="Trazado_14897" data-name="Trazado 14897" class="cls-4" d="M61.6,21.24l7.6,85.24a2.31,2.31,0,0,1-2,2.57l-43,3.9a2.41,2.41,0,0,1-2.58-2.23h0L14.3,22.41a2.21,2.21,0,0,1,2-2.43l.18,0,42.72-1A2.46,2.46,0,0,1,61.6,21.24Z"/><g id="Grupo_14849" data-name="Grupo 14849"><path id="Trazado_14898" data-name="Trazado 14898" class="cls-5" d="M61.6,21.24A2.45,2.45,0,0,0,59.19,19L16.46,20a2.22,2.22,0,0,0-2.17,2.27c0,.06,0,.12,0,.17l1,12.64,47.38-1.14Z"/></g></g><path id="Trazado_14899" data-name="Trazado 14899" class="cls-6" d="M38.79,17a.8.8,0,0,1-.7.88H38A.93.93,0,0,1,37.1,17a.8.8,0,0,1,.7-.88h.07A.93.93,0,0,1,38.79,17Z"/></g></g><g id="Grupo_14854" data-name="Grupo 14854"><g id="Grupo_14853" data-name="Grupo 14853"><path id="Trazado_14900" data-name="Trazado 14900" class="cls-7" d="M62.77,89.27,25.7,92.34l-2-24.57,37.21-2.35Z"/><path id="Trazado_14901" data-name="Trazado 14901" class="cls-8" d="M63.92,104.13l-37,3.5-.89-11,37-3.19Z"/></g></g><g id="Grupo_14855" data-name="Grupo 14855" class="cls-9"><path id="Trazado_14902" data-name="Trazado 14902" class="cls-4" d="M51.63,79.3C47.19,63.81,34.27,65.36,30.4,51.36c-3.18-11.5,4.15-17.56-.3-27.18a21.53,21.53,0,0,0-9.54-9.68l-5.95.11A2.37,2.37,0,0,0,12.28,17c0,.07,0,.14,0,.2l7.89,95.49a2.58,2.58,0,0,0,2.75,2.4h0l37.5-3.46a39.07,39.07,0,0,1-6.25-11.23C50.86,91,54.08,87.87,51.63,79.3Z"/></g></g><g id="Grupo_14865" data-name="Grupo 14865"><g id="Grupo_14864" data-name="Grupo 14864"><g id="Grupo_14857" data-name="Grupo 14857"><path id="Trazado_14903" data-name="Trazado 14903" class="cls-10" d="M25.32,49.42l.38,0,7.69,5.24A11.43,11.43,0,0,0,31.87,61l-9.78.77A21.21,21.21,0,0,1,25.32,49.42Z"/><path id="Trazado_14904" data-name="Trazado 14904" class="cls-11" d="M38.52,50a10.55,10.55,0,0,0-4.11,3.62s0,0,0,0a1.72,1.72,0,0,1-.39,0h0L26,48.5a19.93,19.93,0,0,1,9.41-7.31l.38,0Z"/><path id="Trazado_14905" data-name="Trazado 14905" class="cls-12" d="M47.52,40.81l-1.77,8.6A10.6,10.6,0,0,0,42.63,49a13.1,13.1,0,0,0-3.08.7L36.4,40.82a18.71,18.71,0,0,1,11.12,0Z"/><path id="Trazado_14906" data-name="Trazado 14906" class="cls-13" d="M56.78,47.38l-6,5.13.07.25-.38,0a10,10,0,0,0-4.13-3l2.14-8.63a2.58,2.58,0,0,1,.38,0h0A18.9,18.9,0,0,1,56.78,47.38Z"/><path id="Trazado_14907" data-name="Trazado 14907" class="cls-14" d="M60.8,58.64l-7.87.63a10.85,10.85,0,0,0-1.84-5.67l6.28-5.39c.38,0,.33,0,.38,0s-.2.3-.17.36A20.07,20.07,0,0,1,60.8,58.64Z"/></g><path id="Trazado_14908" data-name="Trazado 14908" class="cls-15" d="M41.46,57l10-9.5L44.62,59.64Z"/><g id="Grupo_14859" data-name="Grupo 14859"><path id="Trazado_14909" data-name="Trazado 14909" class="cls-16" d="M45.48,58.74a2.93,2.93,0,0,1-2.6,3.08A2.72,2.72,0,0,1,40,59.3s0-.09,0-.14a2.93,2.93,0,0,1,2.65-3.09,2.73,2.73,0,0,1,2.87,2.58Z"/><g id="Grupo_14858" data-name="Grupo 14858"><path id="Trazado_14910" data-name="Trazado 14910" class="cls-17" d="M42.83,60.69a1.64,1.64,0,0,1-1.76-1.54s0,0,0-.08a1.78,1.78,0,0,1,1.6-1.87,1.66,1.66,0,0,1,1.75,1.57v0A1.77,1.77,0,0,1,42.83,60.69Zm-.14-3.15a1.42,1.42,0,0,0-1.29,1.51,1.32,1.32,0,0,0,1.36,1.3h.06a1.43,1.43,0,0,0,1.27-1.51,1.33,1.33,0,0,0-1.36-1.3Z"/></g></g><g id="Grupo_14863" data-name="Grupo 14863"><g id="Grupo_14860" data-name="Grupo 14860"><path id="Trazado_14911" data-name="Trazado 14911" class="cls-18" d="M25.71,49.42l8.07,5.18a11.29,11.29,0,0,0-1.53,6.32l-9.78.79A21.07,21.07,0,0,1,25.71,49.42Z"/><path id="Trazado_14912" data-name="Trazado 14912" class="cls-19" d="M38.91,49.93a11.07,11.07,0,0,0-4.53,3.71l-8-5.19a20.24,20.24,0,0,1,9.41-7.32Z"/><path id="Trazado_14913" data-name="Trazado 14913" class="cls-20" d="M47.9,40.77l-2.15,8.64a9.7,9.7,0,0,0-3.08-.35,9.94,9.94,0,0,0-2.76.49l-3.13-8.77a18.76,18.76,0,0,1,5.47-.85A18.34,18.34,0,0,1,47.9,40.77Z"/><path id="Trazado_14914" data-name="Trazado 14914" class="cls-21" d="M57.17,47.35l-6.32,5.38a10.09,10.09,0,0,0-4.12-3l2.14-8.62A18.8,18.8,0,0,1,57.17,47.35Z"/><path id="Trazado_14915" data-name="Trazado 14915" class="cls-22" d="M61.18,58.6l-7.87.64a10.85,10.85,0,0,0-1.84-5.68l6.28-5.39A20.08,20.08,0,0,1,61.18,58.6Z"/></g><path id="Trazado_14916" data-name="Trazado 14916" class="cls-23" d="M41.84,57l10-9.5L45,59.61Z"/><g id="Grupo_14862" data-name="Grupo 14862"><path id="Trazado_14917" data-name="Trazado 14917" class="cls-24" d="M45.87,58.7a3,3,0,0,1-2.6,3.09,2.73,2.73,0,0,1-2.92-2.52v-.15A2.92,2.92,0,0,1,43,56a2.73,2.73,0,0,1,2.86,2.59A.22.22,0,0,0,45.87,58.7Z"/><g id="Grupo_14861" data-name="Grupo 14861"><path id="Trazado_14918" data-name="Trazado 14918" class="cls-25" d="M43.22,60.65a1.66,1.66,0,0,1-1.77-1.54V59a1.77,1.77,0,0,1,1.6-1.87,1.66,1.66,0,0,1,1.74,1.57v.05A1.78,1.78,0,0,1,43.22,60.65Zm-.15-3.15A1.42,1.42,0,0,0,41.78,59a1.34,1.34,0,0,0,1.37,1.3h.05a1.45,1.45,0,0,0,1.28-1.51,1.35,1.35,0,0,0-1.38-1.3Z"/></g></g></g></g></g><g id="Grupo_14869" data-name="Grupo 14869"><path id="Trazado_14919" data-name="Trazado 14919" class="cls-26" d="M83.71,123c.07-.4,1.33-.75,2-.23.31.26.53.79.35,1s.2.24-.06.24C85.11,124.05,83.64,123.38,83.71,123Z"/><path id="Trazado_14920" data-name="Trazado 14920" class="cls-27" d="M85.08,123l1.31.07c-.45-.83.1-3.07.1-3.07l-1.42,0s0,.65.12,1.62A5.48,5.48,0,0,1,85.08,123Z"/><path id="Trazado_14921" data-name="Trazado 14921" class="cls-28" d="M84.91,123s1.57-.36,1.73,0,.3,1.14-.69,1.11S84.83,123.24,84.91,123Z"/><path id="Trazado_14922" data-name="Trazado 14922" class="cls-29" d="M67.14,125.83c.13-.38,1.43-.55,2,0,.27.3.41.86.2,1.07s.17.26-.09.23C68.38,127.07,67,126.2,67.14,125.83Z"/><path id="Trazado_14923" data-name="Trazado 14923" class="cls-30" d="M68.68,126.19l1.28.25c-.33-.88.53-3,.53-3l-1.4-.16s-.06.65-.11,1.62A6.39,6.39,0,0,1,68.68,126.19Z"/><path id="Trazado_14924" data-name="Trazado 14924" class="cls-31" d="M68.34,126s1.6-.14,1.72.19.14,1.17-.84,1S68.21,126.23,68.34,126Z"/><path id="Trazado_14925" data-name="Trazado 14925" class="cls-32" d="M80.15,80.94q.52,9,1.5,18.66c.76,7.46,1.69,14.6,2.74,21.37a4,4,0,0,0,2.47,0s1.5-2.46,2.65-9c.73-4.2.78-4.14.79-4.87,0-3.69-1.25-4.76-1.5-8.06-.23-3.06.75-4,1.33-7.41a26,26,0,0,0-.8-11.53Z"/><path id="Trazado_14926" data-name="Trazado 14926" class="cls-33" d="M80.15,80.94q.52,9,1.5,18.66c.76,7.46,1.69,14.6,2.74,21.37a4,4,0,0,0,2.47,0c0-.62-.06-1.57-.19-2.71-.35-3-.9-3.89-1-5.75-.07-2.38.79-2.45,1-4.79.26-3.63-1.73-4.49-1.92-7.67-.2-3.36,1.9-4.46,3.52-8.63A22.14,22.14,0,0,0,89.33,80.1Z"/><path id="Trazado_14927" data-name="Trazado 14927" class="cls-34" d="M73.71,80.75a126,126,0,0,0-4.95,43.6l1.68.47A17.47,17.47,0,0,0,75.3,116c.65-3.38-.34-4.53.53-8.35.2-.88.47-1.82,3.7-8.15,3.09-6.05,3.72-6.93,4.24-9.1A19.91,19.91,0,0,0,84,82.72Z"/><g id="Grupo_14866" data-name="Grupo 14866"><path id="Trazado_14928" data-name="Trazado 14928" class="cls-35" d="M59.84,67.94,54.32,55a1.14,1.14,0,0,1,.6-1.5l.18-.05L65.2,51a1.13,1.13,0,0,1,1.32.67L71.6,64.11A1.13,1.13,0,0,1,71,65.59l-.1,0-9.66,3A1.14,1.14,0,0,1,59.84,67.94Z"/><path id="Trazado_14929" data-name="Trazado 14929" class="cls-4" d="M60.09,67.32,54.94,55.25a1.07,1.07,0,0,1,.56-1.4l.16-.05,9.44-2.29a1,1,0,0,1,1.23.63l4.74,11.6a1,1,0,0,1-.58,1.38l-.09,0-9,2.76A1.06,1.06,0,0,1,60.09,67.32Z"/></g><path id="Trazado_14930" data-name="Trazado 14930" class="cls-36" d="M56.91,63.77l-.17-1.52-.88-1.68a1.55,1.55,0,0,1-.18-.73V58.17l1.06,2.45a8.9,8.9,0,0,1,1-.76c.27-.13.23.4,0,.6s.09,1.82-.1,2l.06,1Z"/><path id="Trazado_14931" data-name="Trazado 14931" class="cls-37" d="M65.31,54.07a8.59,8.59,0,0,1,3.51-3.77c2.17-1.43,3.56-1.17,8.54-1.92,6.64-1,7.44-2,9.67-1.2,2.93,1,4.47,3.68,5.17,4.9,3.54,6.15-.6,9.28.46,21.52.44,5,1.55,9.35-1.12,11.92a7.78,7.78,0,0,1-2.46,1.39A22.68,22.68,0,0,1,76.9,88.5c-3-.3-4.5-.46-5.3-1.52-1.27-1.69,0-3.83.27-7.55.16-2.67-.45-4.78-1.66-9C67.4,60.6,63.74,57.93,65.31,54.07Z"/><g id="Grupo_14868" data-name="Grupo 14868"><g id="Grupo_14867" data-name="Grupo 14867"><path id="Trazado_14932" data-name="Trazado 14932" class="cls-38" d="M76.43,44.75a3.21,3.21,0,0,1,.35-2.29c.48-.9.61-1,.84-1.18l.32-.2h0A3.79,3.79,0,0,1,79,41c.46.1.95,2,.81,4.6,0,.1,0,.2.05.3q.1.63.18,1.23c0,.38.58.37,1,.34,1.56-.1,2.32,0,2.39.27.12.43-1.72,1.85-4,2.17-3.06,0-5.55-.3-5.28-.78.12-.21,2.49-.83,3.15-1.45a2,2,0,0,0,.61-1.56C77.73,46,76.66,45.54,76.43,44.75Z"/><path id="Trazado_14933" data-name="Trazado 14933" class="cls-35" d="M77,40.33a3,3,0,0,0,.58,1.83,1.18,1.18,0,0,1,.3.33.31.31,0,0,1,.05.1c.18.51-.64,1.12-.49,1.35s.68-.06.74.09-.4.41-.33.58.34,0,.52.2.06.16.16.45a2.44,2.44,0,0,0,.19.44c.28.48,1.08.65,1.23.46s0-.1,0-.28a1.58,1.58,0,0,1,.16-.35,3.62,3.62,0,0,1,1-.77,2.63,2.63,0,0,0,1-1.15s0-.1,0-.12a3,3,0,0,0-.08-2c-.45-.92-1.47-.48-2.31-1.39s-.39-2.46-.91-2.62S77,38.82,77,40.33Z"/><path id="Trazado_14934" data-name="Trazado 14934" class="cls-39" d="M77.73,43.74c.2-.28.56,0,.56.34s-.34.72-.68.65S77.46,44.11,77.73,43.74Z"/></g><path id="Trazado_14935" data-name="Trazado 14935" class="cls-35" d="M77.89,43.15l-.46.6s-.5.74-.79.33-.3-.32-.32-.31,0,0,0,0l.07-.31a2.76,2.76,0,0,0-.4.85,1.58,1.58,0,0,0,0,1.17,1.15,1.15,0,0,0,.69.53,2.76,2.76,0,0,0,.9-.09s-.8-.57-.81-.71c0-.37.48-.57.87-1.33A3.4,3.4,0,0,0,77.89,43.15Z"/></g><path id="Trazado_14936" data-name="Trazado 14936" class="cls-40" d="M79.49,85c-.88-1.75,1.28-4.08-.13-6.75C78.16,76,76,76.48,75,74.4c-1.21-2.51,1.41-4.39,1.32-8.21-.11-4.57-4-9.15-6.36-8.74-1.5.26-1.69,2.49-2.74,4.93a56.36,56.36,0,0,1,3,8c1.21,4.23,1.82,6.34,1.65,9-.23,3.71-1.53,5.86-.26,7.55.79,1.06,2.3,1.23,5.3,1.52a22.69,22.69,0,0,0,12.18-1.59c.63-.28,1.1-.5,1.49-.7C82.78,87.38,80.19,86.39,79.49,85Z"/><path id="Trazado_14937" data-name="Trazado 14937" class="cls-41" d="M56.61,63.47l1.46-.63c.82.84,1.86,1.66,2.74,1.39,1.32-.39,1-2.81,2.59-7.05,1.81-4.8,3.86-6,4.9-6.49a2.23,2.23,0,0,1,1.45-.3c2.21.54,2.94,6.29,2.32,10.6-.35,2.43-1,7.18-4.93,9.44-.56.32-3.6,2.08-6.62.7C57.94,69.93,56.35,66.89,56.61,63.47Z"/></g></g></g><g id="Grupo_14799" data-name="Grupo 14799"><path id="Trazado_14790" data-name="Trazado 14790" class="cls-42" d="M46.71,3.57a15.75,15.75,0,0,1,4.76,20.69,13.5,13.5,0,0,1-18.39,5.13A12.48,12.48,0,0,1,32,28.7,15.74,15.74,0,0,1,27.27,7.93a13.5,13.5,0,0,1,18.42-5C46,3.12,46.38,3.34,46.71,3.57Z"/><path id="Trazado_14791" data-name="Trazado 14791" class="cls-43" d="M48.1,2.43a15.75,15.75,0,0,1,4.76,20.69,13.5,13.5,0,0,1-18.39,5.13,12.48,12.48,0,0,1-1.09-.69A15.74,15.74,0,0,1,28.66,6.79a13.49,13.49,0,0,1,18.42-5C47.43,2,47.77,2.2,48.1,2.43Z"/></g><g id="Grupo_14876" data-name="Grupo 14876"><g id="Grupo_14871" data-name="Grupo 14871"><path id="Trazado_14938" data-name="Trazado 14938" class="cls-4" d="M41.11,19.25a.57.57,0,0,1-.44-.2l-4-4.71a.6.6,0,0,1,.06-.83.59.59,0,0,1,.83.07l3.59,4.18,3.23-3.85a.6.6,0,0,1,.83-.07.59.59,0,0,1,.07.83l-3.68,4.38a.62.62,0,0,1-.44.21Z"/></g><g id="Grupo_14872" data-name="Grupo 14872"><path id="Trazado_14939" data-name="Trazado 14939" class="cls-4" d="M41.12,19.23a.6.6,0,0,1-.59-.59V8.18a.59.59,0,0,1,.59-.59.6.6,0,0,1,.59.59V18.64a.6.6,0,0,1-.59.59Z"/></g><g id="Grupo_14873" data-name="Grupo 14873"><path id="Trazado_14940" data-name="Trazado 14940" class="cls-4" d="M36,22.1a.58.58,0,0,1-.57-.44L34,16a.59.59,0,0,1,.43-.71.58.58,0,0,1,.71.43l1.31,5.18,9.62-.45.87-5.33a.59.59,0,0,1,.67-.49.6.6,0,0,1,.49.68l-1,5.8a.61.61,0,0,1-.56.49L36,22.1Z"/></g></g></g></g></g></svg>