<svg xmlns="http://www.w3.org/2000/svg" xmlns:xlink="http://www.w3.org/1999/xlink" viewBox="0 0 106.74 110.35"><defs><style>.cls-1{fill:none;}.cls-2,.cls-35{fill:#f4f7fa;}.cls-13,.cls-2,.cls-20,.cls-26,.cls-29,.cls-47,.cls-51,.cls-61,.cls-64,.cls-71,.cls-73,.cls-75,.cls-77,.cls-79,.cls-85,.cls-91{isolation:isolate;}.cls-13,.cls-2,.cls-20,.cls-71,.cls-73,.cls-75,.cls-77,.cls-79{opacity:0.2;}.cls-3{fill:#d8dee8;}.cls-4{clip-path:url(#clip-path);}.cls-5{opacity:0.8;}.cls-6{fill:url(#Degradado_sin_nombre_34);}.cls-7{fill:#fff;}.cls-8{fill:url(#Degradado_sin_nombre_34-2);}.cls-9{fill:url(#Degradado_sin_nombre_34-3);}.cls-10{fill:url(#Degradado_sin_nombre_34-4);}.cls-11{fill:url(#Degradado_sin_nombre_34-5);}.cls-12{fill:url(#Degradado_sin_nombre_34-6);}.cls-13{fill:url(#Degradado_sin_nombre_34-7);}.cls-14{fill:url(#Degradado_sin_nombre_34-8);}.cls-15{fill:url(#Degradado_sin_nombre_34-9);}.cls-16{fill:url(#Degradado_sin_nombre_34-10);}.cls-17{fill:url(#Degradado_sin_nombre_34-11);}.cls-18{fill:url(#Degradado_sin_nombre_34-12);}.cls-19{fill:url(#Degradado_sin_nombre_34-13);}.cls-20{fill:url(#Degradado_sin_nombre_34-14);}.cls-21{fill:url(#Degradado_sin_nombre_78);}.cls-22{fill:url(#Degradado_sin_nombre_77);}.cls-23{fill:url(#Degradado_sin_nombre_78-2);}.cls-24{fill:url(#Degradado_sin_nombre_78-3);}.cls-25{fill:url(#Degradado_sin_nombre_77-2);}.cls-26,.cls-85,.cls-91{opacity:0.3;}.cls-26{fill:url(#Degradado_sin_nombre_78-4);}.cls-27{fill:#26264f;}.cls-28{fill:url(#Degradado_sin_nombre_14);}.cls-29{opacity:0.35;fill:url(#Degradado_sin_nombre_22);}.cls-30{fill:#de8bdf;}.cls-31{fill:url(#Degradado_sin_nombre_66);}.cls-32{fill:url(#Degradado_sin_nombre_66-2);}.cls-33{fill:url(#Degradado_sin_nombre_66-3);}.cls-34{fill:url(#Degradado_sin_nombre_66-4);}.cls-36{fill:url(#Degradado_sin_nombre_66-5);}.cls-37{fill:url(#Degradado_sin_nombre_39);}.cls-38{fill:url(#Degradado_sin_nombre_2);}.cls-39{opacity:0.7;}.cls-40{fill:url(#Degradado_sin_nombre_42);}.cls-41{fill:url(#Degradado_sin_nombre_66-6);}.cls-42{fill:url(#Degradado_sin_nombre_66-7);}.cls-43{fill:url(#Degradado_sin_nombre_66-8);}.cls-44{fill:url(#Degradado_sin_nombre_66-9);}.cls-45{fill:#fec045;}.cls-46{fill:url(#Degradado_sin_nombre_66-10);}.cls-47,.cls-61{opacity:0.15;}.cls-47{fill:url(#Degradado_sin_nombre_50);}.cls-48{opacity:0.42;}.cls-49{fill:url(#Degradado_sin_nombre_50-2);}.cls-50{fill:url(#Degradado_sin_nombre_50-3);}.cls-51,.cls-64{opacity:0.26;}.cls-51{fill:url(#Degradado_sin_nombre_66-11);}.cls-52{opacity:0.53;}.cls-53{fill:url(#Degradado_sin_nombre_39-2);}.cls-54{fill:url(#Degradado_sin_nombre_64);}.cls-55{fill:url(#Degradado_sin_nombre_42-2);}.cls-56{fill:url(#Degradado_sin_nombre_66-12);}.cls-57{fill:url(#Degradado_sin_nombre_66-13);}.cls-58{fill:url(#Degradado_sin_nombre_66-14);}.cls-59{fill:url(#Degradado_sin_nombre_66-15);}.cls-60{fill:url(#Degradado_sin_nombre_66-16);}.cls-61{fill:url(#Degradado_sin_nombre_50-4);}.cls-62{fill:url(#Degradado_sin_nombre_50-5);}.cls-63{fill:url(#Degradado_sin_nombre_50-6);}.cls-64{fill:url(#Degradado_sin_nombre_66-17);}.cls-65{fill:url(#Degradado_sin_nombre_25);}.cls-66{fill:url(#Degradado_sin_nombre_39-3);}.cls-67{fill:url(#Degradado_sin_nombre_39-4);}.cls-68{fill:url(#Degradado_sin_nombre_25-2);}.cls-69{fill:url(#Degradado_sin_nombre_39-5);}.cls-70{fill:url(#Degradado_sin_nombre_34-15);}.cls-71{fill:url(#Degradado_sin_nombre_34-16);}.cls-72{fill:url(#Degradado_sin_nombre_36);}.cls-73{fill:url(#Degradado_sin_nombre_36-2);}.cls-74{fill:url(#Degradado_sin_nombre_36-3);}.cls-75{fill:url(#Degradado_sin_nombre_36-4);}.cls-76{fill:url(#Degradado_sin_nombre_64-2);}.cls-77{fill:url(#Degradado_sin_nombre_64-3);}.cls-78{fill:url(#Degradado_sin_nombre_66-18);}.cls-79{fill:url(#Degradado_sin_nombre_66-19);}.cls-80{fill:url(#Degradado_sin_nombre_78-5);}.cls-81{fill:url(#Degradado_sin_nombre_77-3);}.cls-82{fill:url(#Degradado_sin_nombre_78-6);}.cls-83{fill:url(#Degradado_sin_nombre_78-7);}.cls-84{fill:url(#Degradado_sin_nombre_77-4);}.cls-85{fill:url(#Degradado_sin_nombre_78-8);}.cls-86{fill:url(#Degradado_sin_nombre_78-9);}.cls-87{fill:url(#Degradado_sin_nombre_77-5);}.cls-88{fill:url(#Degradado_sin_nombre_78-10);}.cls-89{fill:url(#Degradado_sin_nombre_78-11);}.cls-90{fill:url(#Degradado_sin_nombre_77-6);}.cls-91{fill:url(#Degradado_sin_nombre_78-12);}</style><clipPath id="clip-path"><path class="cls-1" d="M48.75,84.46c2.72,5.13,5.27,10.46,8,15.64,3.3-.31,7.17-.75,7.19-4.87,0-5.73,9.3-9.57,13.84-10.47,5.62-1.13,17.53-4.69,13.58-12.12-3.29-6.2-7.77-8.7-1.15-14.14s8.56-11.65,3.91-18c-4.89-6.65.52-17.76-7.33-21.18C73.1,13.4,67.6,36.18,70.44,47.63s-3.94,10-11,13.63c-9.63,4.89.68,12.77-2.27,18C54.86,83.28,52.43,83,48.75,84.46Z"/></clipPath><linearGradient id="Degradado_sin_nombre_34" x1="-272.24" y1="1563.38" x2="-271.83" y2="1562.12" gradientTransform="matrix(42.54, 0, 0, -45.21, 11212.77, 69255.25)" gradientUnits="userSpaceOnUse"><stop offset="0" stop-color="#aa80f9"/><stop offset="1" stop-color="#6165d7"/></linearGradient><linearGradient id="Degradado_sin_nombre_34-2" x1="-323.4" y1="1816.74" x2="-320.12" y2="1803.87" gradientTransform="matrix(6.24, 0, 0, -5.28, 1670.26, 8316.86)" xlink:href="#Degradado_sin_nombre_34"/><linearGradient id="Degradado_sin_nombre_34-3" x1="-308.52" y1="1848.71" x2="-305.65" y2="1832.45" gradientTransform="matrix(7.49, 0, 0, -4.41, 2012.7, 6987.83)" xlink:href="#Degradado_sin_nombre_34"/><linearGradient id="Degradado_sin_nombre_34-4" x1="-307.63" y1="1846" x2="-304.75" y2="1829.58" gradientTransform="matrix(7.43, 0, 0, -4.34, 2005.27, 6845.76)" xlink:href="#Degradado_sin_nombre_34"/><linearGradient id="Degradado_sin_nombre_34-5" x1="-322.58" y1="1813.42" x2="-319.32" y2="1800.61" gradientTransform="matrix(6.32, 0, 0, -5.33, 1726.62, 8375.9)" xlink:href="#Degradado_sin_nombre_34"/><linearGradient id="Degradado_sin_nombre_34-6" x1="-303.97" y1="1656.66" x2="-303.66" y2="1655.84" gradientTransform="matrix(10.97, 0, 0, -13.71, 2929.46, 21169.43)" xlink:href="#Degradado_sin_nombre_34"/><linearGradient id="Degradado_sin_nombre_34-7" x1="-300.41" y1="1531.87" x2="-299.43" y2="1531.87" gradientTransform="matrix(42.21, 0, 0, -32.17, 11123.76, 49362.93)" xlink:href="#Degradado_sin_nombre_34"/><linearGradient id="Degradado_sin_nombre_34-8" x1="-271.82" y1="1570.15" x2="-271.45" y2="1568.74" gradientTransform="matrix(40.51, 0, 0, -35.38, 10682.62, 54262.04)" xlink:href="#Degradado_sin_nombre_34"/><linearGradient id="Degradado_sin_nombre_34-9" x1="-333.87" y1="1874.59" x2="-330.45" y2="1860.87" gradientTransform="matrix(5.25, 0, 0, -4.36, 1415.18, 6911.32)" xlink:href="#Degradado_sin_nombre_34"/><linearGradient id="Degradado_sin_nombre_34-10" x1="-319.05" y1="1897.43" x2="-315.98" y2="1881.07" gradientTransform="matrix(6.16, 0, 0, -3.87, 1660.73, 6167.02)" xlink:href="#Degradado_sin_nombre_34"/><linearGradient id="Degradado_sin_nombre_34-11" x1="-318.08" y1="1897.96" x2="-315" y2="1881.35" gradientTransform="matrix(6.13, 0, 0, -3.79, 1671.32, 6018.49)" xlink:href="#Degradado_sin_nombre_34"/><linearGradient id="Degradado_sin_nombre_34-12" x1="-334.01" y1="1871.87" x2="-330.59" y2="1858.28" gradientTransform="matrix(5.3, 0, 0, -4.42, 1461.85, 7000.14)" xlink:href="#Degradado_sin_nombre_34"/><linearGradient id="Degradado_sin_nombre_34-13" x1="-309.56" y1="1674.26" x2="-309.25" y2="1673.44" gradientTransform="matrix(9.64, 0, 0, -12.07, 2583.86, 18682.42)" xlink:href="#Degradado_sin_nombre_34"/><linearGradient id="Degradado_sin_nombre_34-14" x1="-302.32" y1="1534.21" x2="-301.42" y2="1534.21" gradientTransform="matrix(40.3, 0, 0, -22.34, 10626.59, 34364.65)" xlink:href="#Degradado_sin_nombre_34"/><linearGradient id="Degradado_sin_nombre_78" x1="-260.91" y1="1535.78" x2="-261.49" y2="1535.6" gradientTransform="matrix(18.1, 0, 0, -18.43, 4741.02, 28388.82)" gradientUnits="userSpaceOnUse"><stop offset="0" stop-color="#fcb148"/><stop offset="0.05" stop-color="#fdb946"/><stop offset="0.14" stop-color="#fec144"/><stop offset="0.32" stop-color="#ffc444"/><stop offset="0.48" stop-color="#fdb946"/><stop offset="0.78" stop-color="#f99c4c"/><stop offset="0.87" stop-color="#f8924f"/><stop offset="1" stop-color="#f8924f"/></linearGradient><linearGradient id="Degradado_sin_nombre_77" x1="-260.51" y1="1536.33" x2="-261.03" y2="1535.2" gradientTransform="matrix(18.1, 0, 0, -18.43, 4742.34, 28386.94)" gradientUnits="userSpaceOnUse"><stop offset="0" stop-color="#ffdb44"/><stop offset="1" stop-color="#feef06"/></linearGradient><linearGradient id="Degradado_sin_nombre_78-2" x1="-260.53" y1="1535.55" x2="-260.63" y2="1536.12" gradientTransform="matrix(17.27, 0, 0, -17.59, 4525.34, 27102.97)" xlink:href="#Degradado_sin_nombre_78"/><linearGradient id="Degradado_sin_nombre_78-3" x1="-260.69" y1="1536.81" x2="-260.25" y2="1535.88" gradientTransform="matrix(16.68, 0, 0, -16.99, 4370.57, 26187.32)" xlink:href="#Degradado_sin_nombre_78"/><linearGradient id="Degradado_sin_nombre_77-2" x1="-259.08" y1="1539.39" x2="-258.62" y2="1538.37" gradientTransform="matrix(8.24, 0, 0, -13.85, 2155.23, 21394.5)" xlink:href="#Degradado_sin_nombre_77"/><linearGradient id="Degradado_sin_nombre_78-4" x1="-259.47" y1="1536.78" x2="-258.72" y2="1535.85" gradientTransform="matrix(9.95, 0, 0, -16.94, 2601.21, 26109.54)" xlink:href="#Degradado_sin_nombre_78"/><linearGradient id="Degradado_sin_nombre_14" x1="-261.25" y1="1528.3" x2="-259.75" y2="1528.33" gradientTransform="matrix(59.07, 0, 0, -99.33, 15517.49, 151864.85)" gradientUnits="userSpaceOnUse"><stop offset="0" stop-color="#444b8c"/><stop offset="1" stop-color="#26264f"/></linearGradient><linearGradient id="Degradado_sin_nombre_22" x1="-261.49" y1="1528.95" x2="-263.11" y2="1526.86" gradientTransform="matrix(52.69, 0, 0, -84.84, 13844.64, 129741.1)" gradientUnits="userSpaceOnUse"><stop offset="0" stop-color="#9d9d9c"/><stop offset="1" stop-color="#f6f6f6"/></linearGradient><linearGradient id="Degradado_sin_nombre_66" x1="-258.24" y1="1549.65" x2="-257.24" y2="1549.65" gradientTransform="matrix(6.28, 0, 0, -7.41, 1669.27, 11511.25)" gradientUnits="userSpaceOnUse"><stop offset="0" stop-color="#ff9085"/><stop offset="1" stop-color="#fb6fbb"/></linearGradient><linearGradient id="Degradado_sin_nombre_66-2" x1="-258.24" y1="1549.65" x2="-257.24" y2="1549.65" gradientTransform="matrix(6.28, 0, 0, -7.41, 1681.76, 11511.25)" xlink:href="#Degradado_sin_nombre_66"/><linearGradient id="Degradado_sin_nombre_66-3" x1="-258.24" y1="1549.65" x2="-257.24" y2="1549.65" gradientTransform="matrix(6.28, 0, 0, -7.41, 1694.26, 11511.25)" xlink:href="#Degradado_sin_nombre_66"/><linearGradient id="Degradado_sin_nombre_66-4" x1="-262.42" y1="1534.21" x2="-261.42" y2="1534.21" gradientTransform="matrix(69.76, 0, 0, -22.35, 18328.08, 34308.86)" xlink:href="#Degradado_sin_nombre_66"/><linearGradient id="Degradado_sin_nombre_66-5" x1="-258.19" y1="1579.67" x2="-257.19" y2="1579.67" gradientTransform="matrix(6.22, 0, 0, -3.22, 1691.04, 5121.18)" xlink:href="#Degradado_sin_nombre_66"/><linearGradient id="Degradado_sin_nombre_39" x1="-366.7" y1="1540.51" x2="-367.81" y2="1540.61" gradientTransform="matrix(30.42, 0, 0, -33.28, 7967.08, 50992.4)" gradientUnits="userSpaceOnUse"><stop offset="0" stop-color="#311944"/><stop offset="1" stop-color="#893976"/></linearGradient><linearGradient id="Degradado_sin_nombre_2" x1="-365.68" y1="1535.2" x2="-364.12" y2="1535.15" gradientTransform="matrix(30.68, 0, 0, -33.57, 8033.81, 51432.2)" gradientUnits="userSpaceOnUse"><stop offset="0" stop-color="#e9d000"/><stop offset="1" stop-color="#f8ff2a"/></linearGradient><linearGradient id="Degradado_sin_nombre_42" x1="-902" y1="1944.32" x2="-898.64" y2="1942.35" gradientTransform="matrix(4.41, 0, 0, -4.29, 1137.89, 6741.81)" gradientUnits="userSpaceOnUse"><stop offset="0" stop-color="#f57e53"/><stop offset="0.01" stop-color="#f58152"/><stop offset="0.04" stop-color="#f8994d"/><stop offset="0.08" stop-color="#fbac49"/><stop offset="0.13" stop-color="#fdb946"/><stop offset="0.2" stop-color="#fec144"/><stop offset="0.32" stop-color="#ffc444"/><stop offset="0.46" stop-color="#fdb946"/><stop offset="0.69" stop-color="#f99c4c"/><stop offset="1" stop-color="#f36f56"/></linearGradient><linearGradient id="Degradado_sin_nombre_66-6" x1="-254.89" y1="1571.85" x2="-253.91" y2="1571.85" gradientTransform="matrix(3.89, 0, 0, -3.78, 999, 5960.08)" xlink:href="#Degradado_sin_nombre_66"/><linearGradient id="Degradado_sin_nombre_66-7" x1="-2167.86" y1="1593.22" x2="-2166.05" y2="1593.22" gradientTransform="matrix(1.64, 0, 0, -2.57, 408.89, 4111.31)" xlink:href="#Degradado_sin_nombre_66"/><linearGradient id="Degradado_sin_nombre_66-8" x1="-2170.21" y1="1593.14" x2="-2168.4" y2="1593.14" gradientTransform="matrix(1.64, 0, 0, -2.57, 410.28, 4116.26)" xlink:href="#Degradado_sin_nombre_66"/><linearGradient id="Degradado_sin_nombre_66-9" x1="-2172.51" y1="1593.06" x2="-2170.69" y2="1593.06" gradientTransform="matrix(1.64, 0, 0, -2.57, 410.36, 4121.21)" xlink:href="#Degradado_sin_nombre_66"/><linearGradient id="Degradado_sin_nombre_66-10" x1="-251.6" y1="1597.28" x2="-250.6" y2="1597.28" gradientTransform="matrix(2.74, 0, 0, -2.42, 699.38, 3886.92)" xlink:href="#Degradado_sin_nombre_66"/><linearGradient id="Degradado_sin_nombre_50" x1="-411.85" y1="1537.76" x2="-409.66" y2="1537.7" gradientTransform="matrix(21.2, 0, 0, -25.99, 5551.78, 39869.42)" gradientUnits="userSpaceOnUse"><stop offset="0" stop-color="#fb6fbb"/><stop offset="1" stop-color="#ff9085"/></linearGradient><linearGradient id="Degradado_sin_nombre_50-2" x1="-975.25" y1="1554.58" x2="-973.76" y2="1554.58" gradientTransform="matrix(4.41, 0, 0, -6.1, 1145.81, 9516.54)" xlink:href="#Degradado_sin_nombre_50"/><linearGradient id="Degradado_sin_nombre_50-3" x1="-839.73" y1="1548.49" x2="-838.16" y2="1548.49" gradientTransform="matrix(5.44, 0, 0, -7.8, 1421.55, 12094.57)" xlink:href="#Degradado_sin_nombre_50"/><linearGradient id="Degradado_sin_nombre_66-11" x1="-927.12" y1="1565.22" x2="-926.08" y2="1565.22" gradientTransform="matrix(4.42, 0, 0, -4.42, 1146.48, 6930.44)" xlink:href="#Degradado_sin_nombre_66"/><linearGradient id="Degradado_sin_nombre_39-2" x1="-359.33" y1="1542.78" x2="-360.34" y2="1542.89" gradientTransform="matrix(33.15, 0, 0, -28.77, 8693.17, 44116.42)" xlink:href="#Degradado_sin_nombre_39"/><linearGradient id="Degradado_sin_nombre_64" x1="-357.89" y1="1536.57" x2="-356.46" y2="1536.51" gradientTransform="matrix(33.44, 0, 0, -28.99, 8771.18, 44447.14)" gradientUnits="userSpaceOnUse"><stop offset="0" stop-color="#e38ddd"/><stop offset="1" stop-color="#9571f6"/></linearGradient><linearGradient id="Degradado_sin_nombre_42-2" x1="-937.53" y1="1947.33" x2="-934.01" y2="1945.36" gradientTransform="matrix(4.23, 0, 0, -4.28, 1098.39, 6731.01)" xlink:href="#Degradado_sin_nombre_42"/><linearGradient id="Degradado_sin_nombre_66-12" x1="-252.88" y1="1571.97" x2="-251.86" y2="1571.97" gradientTransform="matrix(3.72, 0, 0, -3.77, 965.46, 5950.96)" xlink:href="#Degradado_sin_nombre_66"/><linearGradient id="Degradado_sin_nombre_66-13" x1="-1405.5" y1="1657.83" x2="-1404.42" y2="1657.83" gradientTransform="matrix(2.74, 0, 0, -1.3, 706.9, 2189.88)" xlink:href="#Degradado_sin_nombre_66"/><linearGradient id="Degradado_sin_nombre_66-14" x1="-1405.63" y1="1657.53" x2="-1404.55" y2="1657.53" gradientTransform="matrix(2.74, 0, 0, -1.31, 707.2, 2195.1)" xlink:href="#Degradado_sin_nombre_66"/><linearGradient id="Degradado_sin_nombre_66-15" x1="-1405.77" y1="1657.23" x2="-1404.69" y2="1657.23" gradientTransform="matrix(2.74, 0, 0, -1.31, 707.5, 2200.32)" xlink:href="#Degradado_sin_nombre_66"/><linearGradient id="Degradado_sin_nombre_66-16" x1="-246.99" y1="1589.38" x2="-245.81" y2="1589.38" gradientTransform="matrix(2.33, 0, 0, -2.72, 599.21, 4357.78)" xlink:href="#Degradado_sin_nombre_66"/><linearGradient id="Degradado_sin_nombre_50-4" x1="-375.75" y1="1545.66" x2="-374.15" y2="1545.55" gradientTransform="matrix(28.9, 0, 0, -15.39, 7580.99, 23704.49)" xlink:href="#Degradado_sin_nombre_50"/><linearGradient id="Degradado_sin_nombre_50-5" x1="-760.99" y1="1570.48" x2="-759.95" y2="1570.48" gradientTransform="matrix(6.31, 0, 0, -3.89, 1649.69, 6153.15)" xlink:href="#Degradado_sin_nombre_50"/><linearGradient id="Degradado_sin_nombre_50-6" x1="-649.93" y1="1562.75" x2="-648.87" y2="1562.75" gradientTransform="matrix(8.12, 0, 0, -4.73, 2133.4, 7418.49)" xlink:href="#Degradado_sin_nombre_50"/><linearGradient id="Degradado_sin_nombre_66-17" x1="-919.17" y1="1565.7" x2="-918.15" y2="1565.7" gradientTransform="matrix(4.47, 0, 0, -4.37, 1177.17, 6862.12)" xlink:href="#Degradado_sin_nombre_66"/><linearGradient id="Degradado_sin_nombre_25" x1="-291.99" y1="1541.12" x2="-290.99" y2="1541.12" gradientTransform="matrix(11.95, 0, 0, -11.74, 3167.95, 18166.62)" gradientUnits="userSpaceOnUse"><stop offset="0" stop-color="#444b8c"/><stop offset="1" stop-color="#3e4177"/></linearGradient><linearGradient id="Degradado_sin_nombre_39-3" x1="-289.9" y1="1540.85" x2="-288.9" y2="1540.85" gradientTransform="matrix(12.41, 0, 0, -11.96, 3283.42, 18519.94)" xlink:href="#Degradado_sin_nombre_39"/><linearGradient id="Degradado_sin_nombre_39-4" x1="-286.54" y1="1538.72" x2="-285.54" y2="1538.72" gradientTransform="matrix(14.3, 0, 0, -14.07, 3780.96, 21696.28)" xlink:href="#Degradado_sin_nombre_39"/><linearGradient id="Degradado_sin_nombre_25-2" x1="-285.64" y1="1540.13" x2="-284.64" y2="1540.13" gradientTransform="matrix(13.33, 0, 0, -12.6, 3507.14, 19456.25)" xlink:href="#Degradado_sin_nombre_25"/><linearGradient id="Degradado_sin_nombre_39-5" x1="-279.41" y1="1536.18" x2="-278.41" y2="1536.18" gradientTransform="matrix(18.86, 0, 0, -17.77, 4962.71, 27370.39)" xlink:href="#Degradado_sin_nombre_39"/><linearGradient id="Degradado_sin_nombre_34-15" x1="-262.22" y1="1534.05" x2="-264.93" y2="1525.72" gradientTransform="matrix(11.95, 0, 0, -11.74, 3168.42, 18166.09)" xlink:href="#Degradado_sin_nombre_34"/><linearGradient id="Degradado_sin_nombre_34-16" x1="-301.82" y1="1541.2" x2="-300.82" y2="1541.2" gradientTransform="matrix(9.03, 0, 0, -11.68, 2405.43, 18069.25)" xlink:href="#Degradado_sin_nombre_34"/><linearGradient id="Degradado_sin_nombre_36" x1="-261.52" y1="1536.12" x2="-264.59" y2="1526.49" gradientTransform="matrix(12.41, 0, 0, -11.96, 3283.9, 18517.72)" gradientUnits="userSpaceOnUse"><stop offset="0" stop-color="#ffc444"/><stop offset="1" stop-color="#f36f56"/></linearGradient><linearGradient id="Degradado_sin_nombre_36-2" x1="-299.82" y1="1541.81" x2="-298.82" y2="1541.81" gradientTransform="matrix(9.21, 0, 0, -11.21, 2445.19, 17370.81)" xlink:href="#Degradado_sin_nombre_36"/><linearGradient id="Degradado_sin_nombre_36-3" x1="-262.56" y1="1531.82" x2="-265" y2="1524.33" gradientTransform="matrix(14.3, 0, 0, -14.05, 3780.82, 21669.8)" xlink:href="#Degradado_sin_nombre_36"/><linearGradient id="Degradado_sin_nombre_36-4" x1="-292.39" y1="1538.73" x2="-291.39" y2="1538.73" gradientTransform="matrix(11.59, 0, 0, -14.05, 3070.46, 21663.68)" xlink:href="#Degradado_sin_nombre_36"/><linearGradient id="Degradado_sin_nombre_64-2" x1="-260.21" y1="1539.51" x2="-260.45" y2="1536.12" gradientTransform="matrix(13.32, 0, 0, -12.6, 3507.27, 19455.68)" xlink:href="#Degradado_sin_nombre_64"/><linearGradient id="Degradado_sin_nombre_64-3" x1="-290.55" y1="1540.15" x2="-289.55" y2="1540.15" gradientTransform="matrix(11.07, 0, 0, -12.58, 2918.15, 19428.21)" xlink:href="#Degradado_sin_nombre_64"/><linearGradient id="Degradado_sin_nombre_66-18" x1="-262.05" y1="1532.18" x2="-263.83" y2="1526.49" gradientTransform="matrix(18.86, 0, 0, -17.77, 4962.58, 27372.89)" xlink:href="#Degradado_sin_nombre_66"/><linearGradient id="Degradado_sin_nombre_66-19" x1="-286.63" y1="1536.22" x2="-285.63" y2="1536.22" gradientTransform="matrix(13.4, 0, 0, -17.7, 3533.11, 27253.03)" xlink:href="#Degradado_sin_nombre_66"/><linearGradient id="Degradado_sin_nombre_78-5" x1="-260.58" y1="1537.68" x2="-261.17" y2="1537.5" gradientTransform="matrix(15.03, 0, 0, -15.3, 3942.18, 23626.35)" xlink:href="#Degradado_sin_nombre_78"/><linearGradient id="Degradado_sin_nombre_77-3" x1="-260.19" y1="1538.23" x2="-260.71" y2="1537.1" gradientTransform="matrix(15.02, 0, 0, -15.3, 3942.75, 23625.88)" xlink:href="#Degradado_sin_nombre_77"/><linearGradient id="Degradado_sin_nombre_78-6" x1="-260.18" y1="1537.54" x2="-260.29" y2="1538.11" gradientTransform="matrix(14.34, 0, 0, -14.6, 3762.79, 22558.42)" xlink:href="#Degradado_sin_nombre_78"/><linearGradient id="Degradado_sin_nombre_78-7" x1="-260.34" y1="1538.88" x2="-259.89" y2="1537.94" gradientTransform="matrix(13.85, 0, 0, -14.1, 3634.22, 21797.7)" xlink:href="#Degradado_sin_nombre_78"/><linearGradient id="Degradado_sin_nombre_77-4" x1="-258.36" y1="1541.92" x2="-257.9" y2="1540.9" gradientTransform="matrix(6.83, 0, 0, -11.49, 1792.86, 17814.05)" xlink:href="#Degradado_sin_nombre_77"/><linearGradient id="Degradado_sin_nombre_78-8" x1="-258.88" y1="1538.85" x2="-258.12" y2="1537.92" gradientTransform="matrix(8.25, 0, 0, -14.06, 2164.07, 21732.81)" xlink:href="#Degradado_sin_nombre_78"/><linearGradient id="Degradado_sin_nombre_78-9" x1="-260.58" y1="1537.68" x2="-261.17" y2="1537.5" gradientTransform="matrix(15.02, 0, 0, -15.3, 3940.31, 23588.12)" xlink:href="#Degradado_sin_nombre_78"/><linearGradient id="Degradado_sin_nombre_77-5" x1="-260.19" y1="1538.23" x2="-260.71" y2="1537.1" gradientTransform="matrix(15.02, 0, 0, -15.3, 3941.14, 23587.58)" xlink:href="#Degradado_sin_nombre_77"/><linearGradient id="Degradado_sin_nombre_78-10" x1="-260.18" y1="1537.54" x2="-260.29" y2="1538.11" gradientTransform="matrix(14.34, 0, 0, -14.6, 3761.43, 22521.7)" xlink:href="#Degradado_sin_nombre_78"/><linearGradient id="Degradado_sin_nombre_78-11" x1="-260.34" y1="1538.88" x2="-259.89" y2="1537.94" gradientTransform="matrix(13.85, 0, 0, -14.1, 3632.89, 21759.78)" xlink:href="#Degradado_sin_nombre_78"/><linearGradient id="Degradado_sin_nombre_77-6" x1="-258.36" y1="1541.92" x2="-257.9" y2="1540.9" gradientTransform="matrix(6.83, 0, 0, -11.49, 1791.5, 17777.29)" xlink:href="#Degradado_sin_nombre_77"/><linearGradient id="Degradado_sin_nombre_78-12" x1="-258.88" y1="1538.85" x2="-258.13" y2="1537.91" gradientTransform="matrix(8.26, 0, 0, -14.06, 2164.55, 21702.38)" xlink:href="#Degradado_sin_nombre_78"/></defs><g id="Capa_2" data-name="Capa 2"><g id="Capa_1-2" data-name="Capa 1"><g id="Grupo_25285" data-name="Grupo 25285"><path id="Trazado_24415" data-name="Trazado 24415" class="cls-2" d="M58.1,14.1c-25.7-.74-48,17.65-51.33,41.78C3.09,82.27,23.34,106,48.24,109.81c31,4.73,61-22.63,58.33-52.31C104.54,35.13,84.23,14.86,58.1,14.1Z"/><g id="Grupo_25087" data-name="Grupo 25087"><g id="Grupo_25086" data-name="Grupo 25086"><path id="Trazado_24416" data-name="Trazado 24416" class="cls-3" d="M62.63,96.83a6.91,6.91,0,0,1-3.13-1c-2.77-2.48-8.26-6.8-8.7-10.7-.08-.66,2.76-1.8,3.07-2.47,1.64-1.16,2.28-1.46,3.3-3.33,3-5.52-7.37-13.07,2.28-18.06,7.06-3.65,13.83-2.18,11-13.64s2.67-34.22,16.34-28.27c7.84,3.42,2.43,14.53,7.33,21.18,4.64,6.31,2.71,12.52-3.91,18s-2.14,7.94,1.15,14.14c3.94,7.45-8,11-13.59,12.13C73.22,85.7,62.29,91.14,62.63,96.83Z"/><g id="Grupo_25085" data-name="Grupo 25085"><path id="Trazado_24417" data-name="Trazado 24417" class="cls-3" d="M48.75,84.46c2.72,5.13,5.27,10.46,8,15.64,3.3-.31,7.17-.75,7.19-4.87,0-5.73,9.3-9.57,13.84-10.47,5.62-1.13,17.53-4.69,13.58-12.12-3.29-6.2-7.77-8.7-1.15-14.14s8.56-11.65,3.91-18c-4.89-6.65.52-17.76-7.33-21.18C73.1,13.4,67.6,36.18,70.44,47.63s-3.94,10-11,13.63c-9.63,4.89.68,12.77-2.27,18C54.86,83.28,52.43,83,48.75,84.46Z"/><g class="cls-4"><g id="Grupo_25084" data-name="Grupo 25084"><g id="Grupo_25083" data-name="Grupo 25083" class="cls-5"><g id="Grupo_25078" data-name="Grupo 25078"><path id="Trazado_24418" data-name="Trazado 24418" class="cls-3" d="M55.3,90.78l-.09-.11C77.62,74.44,88,46.67,82.91,16.4l.14,0A83.26,83.26,0,0,1,79.81,57.8a70.22,70.22,0,0,1-9.55,18.13A67.76,67.76,0,0,1,55.3,90.78Z"/></g><g id="Grupo_25079" data-name="Grupo 25079"><path id="Trazado_24419" data-name="Trazado 24419" class="cls-3" d="M66.91,80l-.07-.13c7.11-3.57,19-5.58,26.52-4.5l0,.14C85.85,74.45,74,76.45,66.91,80Z"/></g><g id="Grupo_25080" data-name="Grupo 25080"><path id="Trazado_24420" data-name="Trazado 24420" class="cls-3" d="M59.65,87.55l-.11-.09c2.54-3.25,3.34-7.65,2.37-13.1a46.8,46.8,0,0,0-4.81-13.2l.13-.07a47.15,47.15,0,0,1,4.83,13.25C63,79.82,62.22,84.27,59.65,87.55Z"/></g><g id="Grupo_25081" data-name="Grupo 25081"><path id="Trazado_24421" data-name="Trazado 24421" class="cls-3" d="M80.38,56l-.12-.09C84.72,49.51,92.39,46.68,98,45.42l0,.14C92.45,46.82,84.82,49.64,80.38,56Z"/></g><g id="Grupo_25082" data-name="Grupo 25082"><path id="Trazado_24422" data-name="Trazado 24422" class="cls-3" d="M84,38.54l-.14,0C83,29.84,76.67,23.12,73,19.89l.1-.11C76.79,23,83.1,29.77,84,38.54Z"/></g></g></g></g></g></g></g><g id="Grupo_25093" data-name="Grupo 25093"><g id="Grupo_25092" data-name="Grupo 25092"><path id="Trazado_24424" data-name="Trazado 24424" class="cls-6" d="M85.75,49,102,62.47c-14,6.28-12.34,25.47-26.3,31.75L59.45,80.77C73.41,74.49,71.79,55.29,85.75,49Z"/><path id="Trazado_24425" data-name="Trazado 24425" class="cls-7" d="M99.26,62.24C87.41,68.91,87.86,85.77,76,92.45L62.19,81C74,74.32,73.59,57.46,85.43,50.79Z"/><g id="Grupo_25090" data-name="Grupo 25090"><g id="Grupo_25088" data-name="Grupo 25088"><path id="Trazado_24426" data-name="Trazado 24426" class="cls-8" d="M64.64,79l.17.15h0a2.6,2.6,0,0,1,.85,2.11A2.3,2.3,0,0,1,64.61,83l-.31.19a4.22,4.22,0,0,1-1.38.45l-3.47-2.87a19.32,19.32,0,0,0,4-2.41A3.6,3.6,0,0,1,64.64,79Z"/><path id="Trazado_24427" data-name="Trazado 24427" class="cls-9" d="M78.79,90.75a3.19,3.19,0,0,1,.84,1.08,18.87,18.87,0,0,1-3.94,2.4l-3.55-2.94a4.68,4.68,0,0,1,1-.75l.34-.16a5.19,5.19,0,0,1,5.13.25v0A.45.45,0,0,1,78.79,90.75Z"/></g><g id="Grupo_25089" data-name="Grupo 25089"><path id="Trazado_24428" data-name="Trazado 24428" class="cls-10" d="M85.75,49l3.47,2.88a5,5,0,0,1-1,.74l-.34.16a5.17,5.17,0,0,1-5.08-.22l-.18-.13a2.86,2.86,0,0,1-.8-1A19.32,19.32,0,0,1,85.75,49Z"/><path id="Trazado_24429" data-name="Trazado 24429" class="cls-11" d="M98.44,59.53,102,62.47a18.42,18.42,0,0,0-3.94,2.39,4,4,0,0,1-1.31-.7l-.13-.11v0a2.65,2.65,0,0,1-.92-2,2.3,2.3,0,0,1,1.08-1.88,3,3,0,0,1,.3-.19A4.22,4.22,0,0,1,98.44,59.53Z"/></g></g><path id="Trazado_24430" data-name="Trazado 24430" class="cls-12" d="M83.55,66a8.22,8.22,0,0,1,1.87,9.5,4.69,4.69,0,0,1-7.57,1.68A8.2,8.2,0,0,1,76,67.7a4.69,4.69,0,0,1,6.11-2.61A4.77,4.77,0,0,1,83.55,66Z"/><g id="Grupo_25091" data-name="Grupo 25091"><path id="Trazado_24431" data-name="Trazado 24431" class="cls-7" d="M81.65,69.77a2.91,2.91,0,0,0-1.47,1.06l-1.16-1,0-.08a4.1,4.1,0,0,1,.5-.68,2.42,2.42,0,0,1,.33-.31.32.32,0,0,0,0-.45h0l-.48-.47a.22.22,0,0,0-.32,0h0a5.35,5.35,0,0,0-.45.5,7.91,7.91,0,0,0-.54.75l-.4-.33a.21.21,0,0,0-.31,0,.08.08,0,0,0,0,0,.32.32,0,0,0,.08.4l.41.34a3.55,3.55,0,0,0-.4,1.89,2.12,2.12,0,0,0,.78,1.43,1.49,1.49,0,0,0,1.35.39,2.84,2.84,0,0,0,1.4-1l1.28,1.07a5.78,5.78,0,0,1-.57.8,4.47,4.47,0,0,1-.43.44.34.34,0,0,0,0,.48l.61.61a.23.23,0,0,0,.32,0l0,0a5.75,5.75,0,0,0,.44-.54,7.86,7.86,0,0,0,.54-.87l.06-.12.44.36a.2.2,0,0,0,.29,0l0-.06h0a.34.34,0,0,0-.09-.41l-.44-.37a4,4,0,0,0,.34-1.44,3.62,3.62,0,0,0,0-.57A2.3,2.3,0,0,0,83,70.14,1.48,1.48,0,0,0,81.65,69.77Zm-.34,2.06a1.2,1.2,0,0,1,.53-.35.55.55,0,0,1,.47.15.82.82,0,0,1,.3.52,1.07,1.07,0,0,1-.12.66Zm-2-.27a.46.46,0,0,1-.42-.12.7.7,0,0,1-.26-.46,1.35,1.35,0,0,1,.1-.63l1.06.88A1,1,0,0,1,79.36,71.56Z"/></g><path id="Trazado_24432" data-name="Trazado 24432" class="cls-13" d="M101.94,62.42l0,0c-14,6.28-12.34,25.47-26.3,31.75L59.79,81.05a20.82,20.82,0,0,1,2.5-.11,19.31,19.31,0,0,1,3.39.36,23,23,0,0,1,4.5,1.41c8.16,3.46,10.51.55,11.92-4.38.39-1.3.73-2.74,1.13-4.2.18-.64.38-1.29.6-1.93a24.18,24.18,0,0,1,1.6-3.65c2.08-4,5.73-6.62,10.24-6.5a12.48,12.48,0,0,1,2.52.29,5.37,5.37,0,0,0,.7.11A17.26,17.26,0,0,0,101.94,62.42Z"/></g></g><g id="Grupo_25099" data-name="Grupo 25099"><g id="Grupo_25098" data-name="Grupo 25098"><path id="Trazado_24433" data-name="Trazado 24433" class="cls-14" d="M94,62.21l10.16,15.52c-13.37,1.65-17,18.2-30.36,19.86L63.64,82.06C77,80.42,80.63,63.86,94,62.21Z"/><path id="Trazado_24434" data-name="Trazado 24434" class="cls-7" d="M101.91,76.83c-11.69,2.54-15.7,16.82-27.39,19.35L65.88,83c11.69-2.53,15.7-16.82,27.38-19.35Z"/><g id="Grupo_25096" data-name="Grupo 25096"><g id="Grupo_25094" data-name="Grupo 25094"><path id="Trazado_24435" data-name="Trazado 24435" class="cls-15" d="M68.46,82a1.62,1.62,0,0,1,.1.18h0a2.29,2.29,0,0,1,.17,2,2.06,2.06,0,0,1-1.35,1.16,1.63,1.63,0,0,1-.3.07,3.67,3.67,0,0,1-1.28,0l-2.17-3.31a16.84,16.84,0,0,0,4-1A3,3,0,0,1,68.46,82Z"/><path id="Trazado_24436" data-name="Trazado 24436" class="cls-16" d="M77.3,95.48a2.84,2.84,0,0,1,.43,1.12,15.82,15.82,0,0,1-3.94,1L71.57,94.2a4,4,0,0,1,1.06-.36l.32,0a4.57,4.57,0,0,1,4.25,1.55h0Z"/></g><g id="Grupo_25095" data-name="Grupo 25095"><path id="Trazado_24437" data-name="Trazado 24437" class="cls-17" d="M94,62.21l2.17,3.31a3.9,3.9,0,0,1-1.06.36l-.32.05a4.58,4.58,0,0,1-4.22-1.5l-.11-.16A2.42,2.42,0,0,1,90,63.21,16.36,16.36,0,0,1,94,62.21Z"/><path id="Trazado_24438" data-name="Trazado 24438" class="cls-18" d="M101.93,74.34l2.22,3.4a16.25,16.25,0,0,0-3.94,1,3.54,3.54,0,0,1-.92-.93s-.05-.08-.07-.13h0A2.33,2.33,0,0,1,99,75.74a2.05,2.05,0,0,1,1.4-1.3l.3-.07A3.93,3.93,0,0,1,101.93,74.34Z"/></g></g><path id="Trazado_24439" data-name="Trazado 24439" class="cls-19" d="M87.73,75.92a7.23,7.23,0,0,1-.9,8.47A4.14,4.14,0,0,1,81,85a4,4,0,0,1-1-1.15,7.23,7.23,0,0,1,.9-8.47,4.14,4.14,0,0,1,5.82-.6A4.34,4.34,0,0,1,87.73,75.92Z"/><g id="Grupo_25097" data-name="Grupo 25097"><path id="Trazado_24440" data-name="Trazado 24440" class="cls-7" d="M85.15,78.59a2.65,2.65,0,0,0-1.51.5L82.92,78l.06,0a2.9,2.9,0,0,1,.6-.44,2.42,2.42,0,0,1,.36-.18.27.27,0,0,0,.12-.37h0l-.28-.53a.2.2,0,0,0-.26-.1h0c-.17.09-.34.2-.51.31a6,6,0,0,0-.64.49l-.25-.39a.2.2,0,0,0-.27-.07l0,0a.28.28,0,0,0,0,.36l.26.4a3,3,0,0,0-.83,1.48,1.85,1.85,0,0,0,.28,1.41,1.32,1.32,0,0,0,1,.67,2.48,2.48,0,0,0,1.45-.51l.8,1.23a4,4,0,0,1-.69.53,3.67,3.67,0,0,1-.48.26.3.3,0,0,0-.12.4h0l.36.67a.19.19,0,0,0,.26.1h0a4.52,4.52,0,0,0,.51-.34,6.39,6.39,0,0,0,.68-.59l.09-.09.27.42a.18.18,0,0,0,.24.09l.06,0h0a.29.29,0,0,0,0-.36l-.28-.43a3.75,3.75,0,0,0,.67-1.12,2,2,0,0,0,.12-.49,2,2,0,0,0-.31-1.46A1.31,1.31,0,0,0,85.15,78.59Zm-.82,1.65a1,1,0,0,1,.54-.16.5.5,0,0,1,.36.24.79.79,0,0,1,.12.52,1,1,0,0,1-.28.52Zm-1.56-.74a.42.42,0,0,1-.33-.21.62.62,0,0,1-.1-.46,1.13,1.13,0,0,1,.25-.5l.66,1a.84.84,0,0,1-.48.16Z"/></g><path id="Trazado_24441" data-name="Trazado 24441" class="cls-20" d="M104.12,77.69l0,0c-13.37,1.65-17,18.2-30.36,19.85l-9.94-15.2a19,19,0,0,1,2.13.55,17.28,17.28,0,0,1,2.76,1.19,21,21,0,0,1,3.42,2.35c6,5,8.69,3.19,11.15-.58.67-1,1.33-2.11,2-3.24.31-.49.65-1,1-1.47a21.42,21.42,0,0,1,2.3-2.65c2.77-2.78,6.53-4.07,10.29-2.8a10.91,10.91,0,0,1,2,.9,5.6,5.6,0,0,0,.55.27A16.66,16.66,0,0,0,104.12,77.69Z"/></g></g><g id="Grupo_25101" data-name="Grupo 25101"><path id="Trazado_24442" data-name="Trazado 24442" class="cls-21" d="M30.61,81.86a8.44,8.44,0,0,1-8.26,8.61h-.46a9.87,9.87,0,0,1-9.38-9.82,8.4,8.4,0,0,1,8.2-8.6,9.32,9.32,0,0,1,1.18,0A10,10,0,0,1,30.61,81.86Z"/><path id="Trazado_24443" data-name="Trazado 24443" class="cls-22" d="M31.93,81.44A8.42,8.42,0,0,1,23.68,90h-.47a9.87,9.87,0,0,1-9.38-9.82A8.4,8.4,0,0,1,22,71.62a9.16,9.16,0,0,1,1.17,0A10,10,0,0,1,31.93,81.44Z"/><path id="Trazado_24444" data-name="Trazado 24444" class="cls-23" d="M31.54,81.41a8,8,0,0,1-7.88,8.21h-.45a9.42,9.42,0,0,1-8.93-9.36A8,8,0,0,1,22.1,72a8.25,8.25,0,0,1,1.11,0A9.47,9.47,0,0,1,31.54,81.41Z"/><path id="Trazado_24445" data-name="Trazado 24445" class="cls-24" d="M31.27,81.39a7.77,7.77,0,0,1-7.61,7.93c-.15,0-.3,0-.45,0a9.11,9.11,0,0,1-8.62-9,7.74,7.74,0,0,1,7.56-7.93,7.46,7.46,0,0,1,1.06,0A9.16,9.16,0,0,1,31.27,81.39Z"/><g id="Grupo_25100" data-name="Grupo 25100"><path id="Trazado_24446" data-name="Trazado 24446" class="cls-25" d="M23.16,73.92h0a.51.51,0,0,1,.44.49v.83a12.06,12.06,0,0,1,1.44.25,9.82,9.82,0,0,1,1.06.3.49.49,0,0,1,.33.5l-.1,1a.4.4,0,0,1-.42.37l-.14,0c-.23-.1-.47-.19-.71-.27a6.74,6.74,0,0,0-1.34-.25H23.6v2.39a6.22,6.22,0,0,1,2.77,1.42,3,3,0,0,1,.89,2.21,2.93,2.93,0,0,1-1,2.3,4.48,4.48,0,0,1-2.77,1v.91a.42.42,0,0,1-.41.43h0a.46.46,0,0,1-.44-.46V86.4h-.19a12.38,12.38,0,0,1-1.61-.17A10,10,0,0,1,19.71,86a.48.48,0,0,1-.35-.5l.12-1.35a.42.42,0,0,1,.46-.38.31.31,0,0,1,.13,0,7,7,0,0,0,1,.32,7.48,7.48,0,0,0,1.56.26V81.7a5.76,5.76,0,0,1-2.7-1.32A3,3,0,0,1,19,78.12a2.61,2.61,0,0,1,1-2.18,4.29,4.29,0,0,1,2.73-.77v-.85a.41.41,0,0,1,.39-.4Zm-.44,3.19a1.45,1.45,0,0,0-.87.3,1,1,0,0,0,0,1.43,2.05,2.05,0,0,0,.89.46Zm.78,4.8v2.44a1.38,1.38,0,0,0,.93-.29,1,1,0,0,0,.32-.82,1.12,1.12,0,0,0-.3-.8,2.35,2.35,0,0,0-.95-.53Z"/></g><path id="Trazado_24447" data-name="Trazado 24447" class="cls-26" d="M21.75,82.5c.27-2.69,2.74-3.83,2.42-6.3a6.23,6.23,0,0,0-2.64-3.81,7.74,7.74,0,0,0-6.94,7.88,9.09,9.09,0,0,0,8.62,9,7.41,7.41,0,0,0,1.33-.06A8.8,8.8,0,0,1,21.75,82.5Z"/></g><g id="Grupo_25104" data-name="Grupo 25104"><g id="Grupo_25102" data-name="Grupo 25102"><path id="Trazado_24448" data-name="Trazado 24448" class="cls-27" d="M67.41,10Q72.61,54,77.83,97.16A2.22,2.22,0,0,1,76,99.68h-.1q-21,2-41.9,4.06c-2.49.13-3.86-1.27-4-2.66Q24.56,54.52,19.2,7c-.16-1.43,1-2.65,3.53-2.53l42.12,3A2.94,2.94,0,0,1,67.41,10Z"/><path id="Trazado_24449" data-name="Trazado 24449" class="cls-28" d="M69.35,9.9Q74.6,54.15,79.84,97.47A2.24,2.24,0,0,1,78,100h-.1q-21.75,1.85-43.51,3.76a2.58,2.58,0,0,1-2.7-2.33q-5.4-46.78-10.8-94.56a2,2,0,0,1,1.6-2.4,1.87,1.87,0,0,1,.53,0q21.9,1.47,43.8,2.89A3,3,0,0,1,69.35,9.9Z"/><path id="Trazado_24450" data-name="Trazado 24450" class="cls-7" d="M68.51,14.73q4.84,41,9.71,81.2a2.07,2.07,0,0,1-1.76,2.36h-.1Q55.9,100,35.44,101.71a2.4,2.4,0,0,1-2.52-2.17q-5-43.21-10-87.27A1.91,1.91,0,0,1,24.45,10a1.83,1.83,0,0,1,.47,0q20.6,1.2,41.18,2.37A2.76,2.76,0,0,1,68.51,14.73Z"/><path id="Trazado_24451" data-name="Trazado 24451" class="cls-29" d="M66.1,12.35Q45.75,11.2,25.41,10a30.75,30.75,0,0,0,2.38,7.71c4.5,9.76,11.11,10.3,13.69,18.8,2.67,8.76-3.34,11.5-.41,19.41,3.19,8.59,11,7.35,15.13,16.76,3.56,8.12-1,11.83,2.66,16.76,4,5.41,11.49,3.58,19.23,5.4Q73.31,55.18,68.5,14.71A2.73,2.73,0,0,0,66.1,12.35Z"/></g><path id="Trazado_24452" data-name="Trazado 24452" class="cls-30" d="M46.29,8.75a.68.68,0,0,1-.54.8.55.55,0,0,1-.18,0,1,1,0,0,1-.91-.91.67.67,0,0,1,.53-.8.55.55,0,0,1,.18,0A1,1,0,0,1,46.29,8.75Z"/><ellipse id="Elipse_622" data-name="Elipse 622" class="cls-31" cx="51.18" cy="31.46" rx="3.14" ry="3.7"/><ellipse id="Elipse_623" data-name="Elipse 623" class="cls-32" cx="63.68" cy="31.46" rx="3.14" ry="3.7"/><ellipse id="Elipse_624" data-name="Elipse 624" class="cls-3" cx="57.4" cy="31.46" rx="3.18" ry="3.7"/><ellipse id="Elipse_625" data-name="Elipse 625" class="cls-33" cx="76.18" cy="31.46" rx="3.14" ry="3.7"/><path id="Trazado_24453" data-name="Trazado 24453" class="cls-3" d="M73.08,31.46a3.22,3.22,0,1,1-3.19-3.7A3.48,3.48,0,0,1,73.08,31.46Z"/><ellipse id="Elipse_626" data-name="Elipse 626" class="cls-3" cx="82.39" cy="31.46" rx="3.18" ry="3.7"/><ellipse id="Elipse_627" data-name="Elipse 627" class="cls-3" cx="44.9" cy="31.46" rx="3.18" ry="3.7"/><path id="Trazado_24454" data-name="Trazado 24454" class="cls-34" d="M22.31,9.61,41.79,32H92.07L67.7,12.45Z"/><g id="Grupo_25103" data-name="Grupo 25103"><path id="Trazado_24455" data-name="Trazado 24455" class="cls-35" d="M22.31,9.61,41.79,32h6.3l-20.54-22Z"/><path id="Trazado_24456" data-name="Trazado 24456" class="cls-35" d="M33.17,10.29,54.3,32h6.22L38.84,10.65Z"/><path id="Trazado_24457" data-name="Trazado 24457" class="cls-35" d="M44.55,11l22.2,21H73L50.3,11.36Z"/><path id="Trazado_24458" data-name="Trazado 24458" class="cls-35" d="M61.94,12.09l-5.83-.37L79.28,32h6.28Z"/></g><path id="Trazado_24459" data-name="Trazado 24459" class="cls-36" d="M85.57,32a3.11,3.11,0,0,0,6.21.23V32Z"/></g><g id="Grupo_25115" data-name="Grupo 25115"><path id="Trazado_24460" data-name="Trazado 24460" class="cls-37" d="M30,9.44a.8.8,0,0,1,.34,1.08h0L16.76,33.33a1,1,0,0,1-1.29.34L.38,24.53a1,1,0,0,1-.25-1.27L13.73.84A.85.85,0,0,1,14.85.62Z"/><path id="Trazado_24461" data-name="Trazado 24461" class="cls-38" d="M30.33,9a.79.79,0,0,1,.34,1.08h0L16.87,33.18a.86.86,0,0,1-1.18.25L.5,24.24a.83.83,0,0,1-.3-1.13h0L14,.35A.84.84,0,0,1,15.09.13Z"/><g id="Grupo_25105" data-name="Grupo 25105" class="cls-39"><path id="Trazado_24462" data-name="Trazado 24462" class="cls-35" d="M15.61,24,13.3,27.73a.38.38,0,0,1-.5.14l-1-.49a.33.33,0,0,1-.15-.43l0,0L14,23.19a.38.38,0,0,1,.5-.14l.94.49a.32.32,0,0,1,.15.43Z"/><path id="Trazado_24463" data-name="Trazado 24463" class="cls-35" d="M18.65,19.08l-2.27,3.67a.38.38,0,0,1-.5.13l-.94-.48a.32.32,0,0,1-.15-.43l0,0,2.28-3.67a.38.38,0,0,1,.49-.13l.94.49a.31.31,0,0,1,.15.42Z"/><path id="Trazado_24464" data-name="Trazado 24464" class="cls-35" d="M21.64,14.25l-2.23,3.6a.39.39,0,0,1-.49.14L18,17.5a.31.31,0,0,1-.14-.42v0l2.24-3.6a.38.38,0,0,1,.49-.13l.93.48a.33.33,0,0,1,.15.42Z"/><path id="Trazado_24465" data-name="Trazado 24465" class="cls-35" d="M24.57,9.51l-2.19,3.54a.38.38,0,0,1-.48.13L21,12.7a.32.32,0,0,1-.14-.42v0L23,8.72a.38.38,0,0,1,.49-.13l.91.48a.31.31,0,0,1,.15.41Z"/></g><g id="Grupo_25111" data-name="Grupo 25111"><path id="Trazado_24466" data-name="Trazado 24466" class="cls-40" d="M10.75,23.54,9.66,25.31a.72.72,0,0,1-1,.21L6.78,24.38a.7.7,0,0,1-.26-.95h0l1.1-1.76a.72.72,0,0,1,1-.2l1.88,1.12a.71.71,0,0,1,.27,1Z"/><path id="Trazado_24467" data-name="Trazado 24467" class="cls-41" d="M10.49,23.56l-.94,1.52a.66.66,0,0,1-.91.19L7,24.3a.65.65,0,0,1-.25-.88h0l.94-1.52a.67.67,0,0,1,.91-.19l1.61,1a.64.64,0,0,1,.25.88Zm-3.63-.1a.57.57,0,0,0,.2.76h0l1.62,1A.58.58,0,0,0,9.47,25l.94-1.52a.56.56,0,0,0-.2-.76h0l-1.61-1a.58.58,0,0,0-.79.16Z"/><g id="Grupo_25109" data-name="Grupo 25109"><g id="Grupo_25106" data-name="Grupo 25106"><path id="Trazado_24468" data-name="Trazado 24468" class="cls-35" d="M7.25,24.38l1.56-2.52Z"/><path id="Trazado_24469" data-name="Trazado 24469" class="cls-42" d="M8.85,21.88,7.29,24.4l-.08,0,1.56-2.52Z"/></g><g id="Grupo_25107" data-name="Grupo 25107"><path id="Trazado_24470" data-name="Trazado 24470" class="cls-35" d="M7.85,24.74l1.56-2.52Z"/><path id="Trazado_24471" data-name="Trazado 24471" class="cls-43" d="M9.45,22.25,7.89,24.77l-.08-.05L9.38,22.2Z"/></g><g id="Grupo_25108" data-name="Grupo 25108"><path id="Trazado_24472" data-name="Trazado 24472" class="cls-35" d="M8.46,25.11,10,22.59Z"/><path id="Trazado_24473" data-name="Trazado 24473" class="cls-44" d="M10.06,22.61,8.5,25.13l-.08-.05L10,22.56Z"/></g></g><g id="Grupo_25110" data-name="Grupo 25110"><path id="Trazado_24474" data-name="Trazado 24474" class="cls-45" d="M9.91,23.76l-.44.71a.4.4,0,0,1-.55.11l-1.41-.85a.38.38,0,0,1-.15-.53h0l.44-.7a.39.39,0,0,1,.55-.12l1.41.85a.39.39,0,0,1,.15.53Z"/><path id="Trazado_24475" data-name="Trazado 24475" class="cls-46" d="M9.94,23.79l-.43.7a.46.46,0,0,1-.62.13l-1.41-.85a.44.44,0,0,1-.17-.59h0l.44-.7a.45.45,0,0,1,.61-.13l1.41.85a.44.44,0,0,1,.17.59ZM7.4,23.22a.33.33,0,0,0,.13.47h0l1.41.85a.36.36,0,0,0,.49-.1l.43-.7a.34.34,0,0,0-.12-.47h0l-1.41-.84a.36.36,0,0,0-.49.1Z"/></g></g><path id="Trazado_24476" data-name="Trazado 24476" class="cls-47" d="M17.56,23.22a10.66,10.66,0,0,1-2.93,4.34,10.23,10.23,0,0,1-5.07,2.16l6.13,3.71a.84.84,0,0,0,1.17-.25l13.8-23.09A.8.8,0,0,0,30.34,9h0L27.88,7.58c-4.37,2.1-6.28,4.62-7.21,6.59C19.54,16.55,19.72,18.35,17.56,23.22Z"/><g id="Grupo_25112" data-name="Grupo 25112" class="cls-48"><path id="Trazado_24477" data-name="Trazado 24477" class="cls-49" d="M19.22,24.61l-3.11,5.17a.21.21,0,0,1-.3.06l-.87-.52a.21.21,0,0,1-.08-.29L18,23.87a.21.21,0,0,1,.3-.06l.86.51A.22.22,0,0,1,19.22,24.61Z"/><path id="Trazado_24478" data-name="Trazado 24478" class="cls-50" d="M25.22,14.71l-4.14,6.87a.22.22,0,0,1-.3.07l-.87-.52a.21.21,0,0,1-.08-.29h0L24,14a.2.2,0,0,1,.29-.06h0l.87.5a.22.22,0,0,1,.08.29Z"/></g><path id="Trazado_24479" data-name="Trazado 24479" class="cls-51" d="M17.16,4.44a2.19,2.19,0,0,1,.75,3l0,0a2.25,2.25,0,0,1-3,.8,2.18,2.18,0,0,1-.73-3h0A2.24,2.24,0,0,1,17.16,4.44Z"/><g id="Grupo_25114" data-name="Grupo 25114" class="cls-52"><path id="Trazado_24480" data-name="Trazado 24480" class="cls-35" d="M10.4,21a.36.36,0,0,1-.69.19h0a.36.36,0,0,1,.26-.43.35.35,0,0,1,.43.25Z"/><g id="Grupo_25113" data-name="Grupo 25113"><path id="Trazado_24481" data-name="Trazado 24481" class="cls-35" d="M12.17,20.75a.16.16,0,0,1-.08.06.14.14,0,0,1-.16-.1h0a2,2,0,0,0-2.41-1.44.15.15,0,0,1-.17-.1h0a.14.14,0,0,1,.1-.16h0a2.3,2.3,0,0,1,2.73,1.63A.14.14,0,0,1,12.17,20.75Z"/><path id="Trazado_24482" data-name="Trazado 24482" class="cls-35" d="M11.66,20.88a.16.16,0,0,1-.08.06.14.14,0,0,1-.17-.1h0a1.49,1.49,0,0,0-1.78-1.07.12.12,0,0,1-.16-.08.14.14,0,0,1,.08-.17h0a1.75,1.75,0,0,1,2.1,1.25A.14.14,0,0,1,11.66,20.88Z"/><path id="Trazado_24483" data-name="Trazado 24483" class="cls-35" d="M11.14,21a.13.13,0,0,1-.18,0A.1.1,0,0,1,10.9,21a1,1,0,0,0-1.14-.68.13.13,0,0,1-.16-.1A.13.13,0,0,1,9.7,20h0a1.26,1.26,0,0,1,.91.14,1.22,1.22,0,0,1,.55.74A.12.12,0,0,1,11.14,21Z"/></g></g></g><g id="Grupo_25126" data-name="Grupo 25126"><path id="Trazado_24484" data-name="Trazado 24484" class="cls-53" d="M42.8,30.63a.79.79,0,0,1-.32,1.08h0l-24,11.36a1,1,0,0,1-1.26-.43l-7.42-16a1,1,0,0,1,.5-1.2l23.8-11a.82.82,0,0,1,1,.43Z"/><path id="Trazado_24485" data-name="Trazado 24485" class="cls-54" d="M43.33,30.45A.81.81,0,0,1,43,31.54h0L18.66,43a.85.85,0,0,1-1.12-.44h0l-7.47-16.1a.82.82,0,0,1,.37-1.1h0l24.11-11.2a.84.84,0,0,1,1.06.44Z"/><g id="Grupo_25116" data-name="Grupo 25116" class="cls-39"><path id="Trazado_24486" data-name="Trazado 24486" class="cls-35" d="M22.74,34.68l-4,1.81a.4.4,0,0,1-.5-.16l-.52-.94a.33.33,0,0,1,.13-.44l0,0,4-1.8a.38.38,0,0,1,.49.17l.52.93a.34.34,0,0,1-.12.44Z"/><path id="Trazado_24487" data-name="Trazado 24487" class="cls-35" d="M28,32.3l-3.93,1.78a.38.38,0,0,1-.49-.17L23.08,33a.31.31,0,0,1,.12-.43l0,0,3.94-1.77a.39.39,0,0,1,.48.17l.51.92a.33.33,0,0,1-.12.44Z"/><path id="Trazado_24488" data-name="Trazado 24488" class="cls-35" d="M33.18,30l-3.85,1.75a.4.4,0,0,1-.49-.17l-.5-.92a.31.31,0,0,1,.11-.43l0,0,3.87-1.73a.37.37,0,0,1,.48.16l.5.92a.32.32,0,0,1-.12.43Z"/><path id="Trazado_24489" data-name="Trazado 24489" class="cls-35" d="M38.26,27.66l-3.79,1.72a.38.38,0,0,1-.47-.17l-.5-.91a.31.31,0,0,1,.11-.43h0l3.8-1.7a.36.36,0,0,1,.47.16l.5.91a.31.31,0,0,1-.12.42Z"/></g><g id="Grupo_25122" data-name="Grupo 25122"><path id="Trazado_24490" data-name="Trazado 24490" class="cls-55" d="M19,31.59l-1.9.86a.72.72,0,0,1-.94-.38l-.93-2a.69.69,0,0,1,.31-.94h0l1.9-.86a.73.73,0,0,1,.93.38l.93,2a.7.7,0,0,1-.31.94Z"/><path id="Trazado_24491" data-name="Trazado 24491" class="cls-56" d="M18.74,31.46l-1.62.74a.67.67,0,0,1-.87-.35l-.8-1.71a.65.65,0,0,1,.28-.87h0l1.63-.74a.67.67,0,0,1,.86.35l.8,1.7a.66.66,0,0,1-.27.88Zm-3-2.11a.56.56,0,0,0-.25.75h0l.8,1.71a.58.58,0,0,0,.75.3l1.63-.74a.56.56,0,0,0,.25-.74h0l-.8-1.7a.58.58,0,0,0-.74-.3Z"/><g id="Grupo_25120" data-name="Grupo 25120"><g id="Grupo_25117" data-name="Grupo 25117"><path id="Trazado_24492" data-name="Trazado 24492" class="cls-35" d="M15.59,30.33l2.7-1.22Z"/><path id="Trazado_24493" data-name="Trazado 24493" class="cls-57" d="M18.31,29.16l-2.7,1.22,0-.09,2.7-1.22Z"/></g><g id="Grupo_25118" data-name="Grupo 25118"><path id="Trazado_24494" data-name="Trazado 24494" class="cls-35" d="M15.89,31l2.7-1.22Z"/><path id="Trazado_24495" data-name="Trazado 24495" class="cls-58" d="M18.61,29.8,15.91,31l0-.09,2.7-1.22Z"/></g><g id="Grupo_25119" data-name="Grupo 25119"><path id="Trazado_24496" data-name="Trazado 24496" class="cls-35" d="M16.19,31.61l2.7-1.22Z"/><path id="Trazado_24497" data-name="Trazado 24497" class="cls-59" d="M18.91,30.44l-2.7,1.22,0-.08,2.7-1.23Z"/></g></g><g id="Grupo_25121" data-name="Grupo 25121"><path id="Trazado_24498" data-name="Trazado 24498" class="cls-45" d="M18.15,31.31l-.76.34a.4.4,0,0,1-.52-.21L16.17,30a.39.39,0,0,1,.17-.53h0l.75-.34a.4.4,0,0,1,.52.21l.7,1.49a.39.39,0,0,1-.17.53Z"/><path id="Trazado_24499" data-name="Trazado 24499" class="cls-60" d="M18.16,31.35l-.75.34a.44.44,0,0,1-.58-.23l-.7-1.5a.42.42,0,0,1,.19-.58h0l.75-.34a.45.45,0,0,1,.58.23l.7,1.49a.44.44,0,0,1-.19.59Zm-1.8-1.89a.35.35,0,0,0-.16.46h0l.7,1.49a.35.35,0,0,0,.46.19l.75-.34a.33.33,0,0,0,.16-.46h0l-.7-1.49a.36.36,0,0,0-.46-.19Z"/></g></g><path id="Trazado_24500" data-name="Trazado 24500" class="cls-61" d="M24.8,35.12a10.64,10.64,0,0,1-4.86,2,10.22,10.22,0,0,1-5.41-1l3,6.49a.85.85,0,0,0,1.12.45L43,31.54a.79.79,0,0,0,.33-1.08h0L42.1,27.91c-4.8-.7-7.8.33-9.67,1.44C30.16,30.7,29.31,32.29,24.8,35.12Z"/><g id="Grupo_25123" data-name="Grupo 25123" class="cls-48"><path id="Trazado_24501" data-name="Trazado 24501" class="cls-62" d="M25.39,37.21l-5.46,2.55a.21.21,0,0,1-.28-.11l-.43-.92a.22.22,0,0,1,.09-.29l5.47-2.54a.23.23,0,0,1,.28.11l.43.91A.22.22,0,0,1,25.39,37.21Z"/><path id="Trazado_24502" data-name="Trazado 24502" class="cls-63" d="M35.9,32.34l-7.27,3.39a.21.21,0,0,1-.28-.11l-.43-.92a.2.2,0,0,1,.09-.28L35.28,31a.2.2,0,0,1,.27.11l.44.9a.23.23,0,0,1-.09.29Z"/></g><path id="Trazado_24503" data-name="Trazado 24503" class="cls-64" d="M35,19.33a2.19,2.19,0,0,1-1.06,2.9l0,0a2.24,2.24,0,0,1-3-1A2.18,2.18,0,0,1,32,18.33h0A2.25,2.25,0,0,1,35,19.33Z"/><g id="Grupo_25125" data-name="Grupo 25125" class="cls-52"><path id="Trazado_24504" data-name="Trazado 24504" class="cls-35" d="M20.1,29.28a.36.36,0,0,1-.46.21.34.34,0,0,1-.21-.44h0a.36.36,0,0,1,.46-.21.35.35,0,0,1,.21.45Z"/><g id="Grupo_25124" data-name="Grupo 25124"><path id="Trazado_24505" data-name="Trazado 24505" class="cls-35" d="M21.7,30.07a.12.12,0,0,1-.1,0,.13.13,0,0,1-.08-.17,2,2,0,0,0-1.2-2.54.13.13,0,1,1,.09-.24h0A2.28,2.28,0,0,1,21.76,30,.12.12,0,0,1,21.7,30.07Z"/><path id="Trazado_24506" data-name="Trazado 24506" class="cls-35" d="M21.21,29.89a.12.12,0,0,1-.1,0,.16.16,0,0,1-.09-.18,1.47,1.47,0,0,0-.88-1.87.13.13,0,0,1-.08-.17h0a.14.14,0,0,1,.17-.08h0a1.75,1.75,0,0,1,1,2.21A.12.12,0,0,1,21.21,29.89Z"/><path id="Trazado_24507" data-name="Trazado 24507" class="cls-35" d="M20.7,29.71a.12.12,0,0,1-.17-.06.14.14,0,0,1,0-.11,1,1,0,0,0-.57-1.2.13.13,0,0,1-.07-.17.12.12,0,0,1,.17-.07,1.22,1.22,0,0,1,.68.62,1.18,1.18,0,0,1,0,.92A.1.1,0,0,1,20.7,29.71Z"/></g></g></g><g id="Grupo_25131" data-name="Grupo 25131"><path id="Trazado_24508" data-name="Trazado 24508" class="cls-65" d="M57.41,73.54,56.48,64a.9.9,0,0,1,.77-1h.09l9.3-.22a1,1,0,0,1,.25,0,1,1,0,0,1,.77.92l.75,9.46a.88.88,0,0,1-.78,1h-.06l-9.13.35A1,1,0,0,1,57.41,73.54Z"/><path id="Trazado_24509" data-name="Trazado 24509" class="cls-66" d="M51,80.32l9.6-.42a1,1,0,0,1,1,.68.8.8,0,0,1,0,.26l.87,9.49a.92.92,0,0,1-.83,1h0l-8.32.46h0l-1.12.07a1,1,0,0,1-1.08-.92l-1-9.58a.91.91,0,0,1,.8-1Z"/><path id="Trazado_24510" data-name="Trazado 24510" class="cls-67" d="M63.85,56.5l-10.59.18H53a1.29,1.29,0,0,1-1.24-1.15L50.56,43.85a1.06,1.06,0,0,1,.87-1.21H62.24v0h.43a1.3,1.3,0,0,1,1.22,1.2l1,11.52A1,1,0,0,1,64,56.49Z"/><path id="Trazado_24511" data-name="Trazado 24511" class="cls-68" d="M34.41,41.07l10.12,0a1.19,1.19,0,0,1,1.13,1.07L46.8,52.5a.9.9,0,0,1-.74,1h-.14L36,53.67l-.27,0a1.22,1.22,0,0,1-.89-1L33.5,42.15a.92.92,0,0,1,.73-1.06Z"/><path id="Trazado_24512" data-name="Trazado 24512" class="cls-69" d="M36.39,60l14.46-.3a1.64,1.64,0,0,1,1.6,1.46l1.47,14.27a1.31,1.31,0,0,1-1.13,1.46h-.12l-14,.57A1.61,1.61,0,0,1,37,76.13l-1.9-14.55a1.34,1.34,0,0,1,1.09-1.53Z"/><g id="Grupo_25127" data-name="Grupo 25127"><path id="Trazado_24513" data-name="Trazado 24513" class="cls-70" d="M56.94,63.4,57.87,73a1,1,0,0,0,1,.92L68,73.56a.89.89,0,0,0,.85-.93.43.43,0,0,1,0,0l-.76-9.46a1,1,0,0,0-.76-.93.71.71,0,0,0-.25,0l-9.3.22a.9.9,0,0,0-.87.92A.28.28,0,0,0,56.94,63.4Z"/><path id="Trazado_24514" data-name="Trazado 24514" class="cls-71" d="M59.84,73.87,68,73.56a.89.89,0,0,0,.85-.93.43.43,0,0,1,0,0l-.76-9.46a1,1,0,0,0-.76-.93,3.12,3.12,0,0,1-2.22,2.9,8.55,8.55,0,0,0-3,1.76c-.14.14-.27.27-.39.41a5.72,5.72,0,0,0-1.35,4.34A3.68,3.68,0,0,1,59.84,73.87Z"/></g><g id="Grupo_25128" data-name="Grupo 25128"><path id="Trazado_24515" data-name="Trazado 24515" class="cls-72" d="M50.66,80.68l1,9.58a1,1,0,0,0,1.08.92l9.44-.53a.91.91,0,0,0,.87-1v0l-.86-9.48a1.1,1.1,0,0,0-.06-.26,1,1,0,0,0-1-.68l-9.59.42a.92.92,0,0,0-.9,1A.25.25,0,0,0,50.66,80.68Z"/><path id="Trazado_24516" data-name="Trazado 24516" class="cls-73" d="M53.87,91.11l8.32-.46a.9.9,0,0,0,.87-1v0l-.86-9.49a1.14,1.14,0,0,0-.06-.25,3.72,3.72,0,0,1-2.46,2.36A12,12,0,0,0,57,83.62a7.84,7.84,0,0,0-1.8,1.7,6.77,6.77,0,0,0-1.28,4.77A5,5,0,0,1,53.87,91.11Z"/></g><g id="Grupo_25129" data-name="Grupo 25129"><path id="Trazado_24517" data-name="Trazado 24517" class="cls-74" d="M51,43.3,52.23,55a1.29,1.29,0,0,0,1.24,1.15l10.84-.19a1,1,0,0,0,1-1.07.28.28,0,0,0,0-.09l-1-11.5a1.28,1.28,0,0,0-1.21-1.2H52a1,1,0,0,0-1,1.06S51,43.24,51,43.3Z"/><path id="Trazado_24518" data-name="Trazado 24518" class="cls-75" d="M53.73,56.12,64.31,56a1,1,0,0,0,1-1.07.31.31,0,0,0,0-.1l-1-11.5a1.29,1.29,0,0,0-1.22-1.2H62.7a3.32,3.32,0,0,1-2.28,3.63,9.05,9.05,0,0,0-2.16,1,6.32,6.32,0,0,0-1.73,1.61,5.31,5.31,0,0,0-.67,1.24,5.54,5.54,0,0,0-.22.69,7.09,7.09,0,0,0-.16,2.25A3.57,3.57,0,0,1,53.73,56.12Z"/></g><path id="Trazado_24519" data-name="Trazado 24519" class="cls-76" d="M34,41.6l1.35,10.49a1.2,1.2,0,0,0,.88,1l.27,0L46.38,53a.89.89,0,0,0,.89-.91.57.57,0,0,0,0-.13L46.12,41.6A1.2,1.2,0,0,0,45,40.53H34.87a.91.91,0,0,0-.92.91A1,1,0,0,0,34,41.6Z"/><path id="Trazado_24520" data-name="Trazado 24520" class="cls-77" d="M36.2,53.09l.27,0L46.38,53a.89.89,0,0,0,.89-.91.57.57,0,0,0,0-.13L46.12,41.6A1.19,1.19,0,0,0,45,40.54h-.75A3.12,3.12,0,0,1,42,43.2c-3.4,1.11-5.36,3.39-5,7A3.73,3.73,0,0,1,36.2,53.09Z"/><g id="Grupo_25130" data-name="Grupo 25130"><path id="Trazado_24521" data-name="Trazado 24521" class="cls-78" d="M35.55,61l1.9,14.55A1.61,1.61,0,0,0,39.09,77l14-.57A1.3,1.3,0,0,0,54.39,75a.49.49,0,0,0,0-.12L52.91,60.65a1.64,1.64,0,0,0-1.6-1.46l-14.46.29a1.33,1.33,0,0,0-1.31,1.34A1.48,1.48,0,0,0,35.55,61Z"/><path id="Trazado_24522" data-name="Trazado 24522" class="cls-79" d="M41,76.88l12.13-.49A1.3,1.3,0,0,0,54.39,75a.49.49,0,0,0,0-.12L52.91,60.65a1.64,1.64,0,0,0-1.6-1.46H50.6c.24,1.39.35,4.24-2.55,5.3-.36.13-.69.27-1,.42a9,9,0,0,0-3,2.17l-.25.3a7,7,0,0,0-1.48,4,10.55,10.55,0,0,0,0,1.59A4.43,4.43,0,0,1,41,76.88Z"/></g></g><g id="Grupo_25133" data-name="Grupo 25133"><path id="Trazado_24523" data-name="Trazado 24523" class="cls-80" d="M36.59,99.61a7,7,0,0,1-6.85,7.13,2.54,2.54,0,0,1-.39,0,8.19,8.19,0,0,1-7.78-8.15,7,7,0,0,1,6.81-7.14,7.87,7.87,0,0,1,1,0A8.25,8.25,0,0,1,36.59,99.61Z"/><path id="Trazado_24524" data-name="Trazado 24524" class="cls-81" d="M37.69,99.25a7,7,0,0,1-6.86,7.14,2.41,2.41,0,0,1-.38,0,8.19,8.19,0,0,1-7.78-8.15,7,7,0,0,1,6.8-7.14,6.43,6.43,0,0,1,1,0A8.26,8.26,0,0,1,37.69,99.25Z"/><path id="Trazado_24525" data-name="Trazado 24525" class="cls-82" d="M37.37,99.23a6.68,6.68,0,0,1-6.54,6.82h-.38A7.81,7.81,0,0,1,23,98.27a6.66,6.66,0,0,1,6.49-6.82,7,7,0,0,1,.92,0A7.86,7.86,0,0,1,37.37,99.23Z"/><path id="Trazado_24526" data-name="Trazado 24526" class="cls-83" d="M37.14,99.22a6.44,6.44,0,0,1-6.31,6.58h-.38a7.56,7.56,0,0,1-7.15-7.52,6.42,6.42,0,0,1,6.28-6.58,6.33,6.33,0,0,1,.87,0A7.59,7.59,0,0,1,37.14,99.22Z"/><g id="Grupo_25132" data-name="Grupo 25132"><path id="Trazado_24527" data-name="Trazado 24527" class="cls-84" d="M30.41,93h0a.41.41,0,0,1,.37.4v.69a8.38,8.38,0,0,1,1.2.21c.29.06.58.15.87.24a.4.4,0,0,1,.28.42l-.09.87a.32.32,0,0,1-.34.3l-.12,0A4.19,4.19,0,0,0,32,95.9a5.3,5.3,0,0,0-1.11-.21h-.1v2a5.22,5.22,0,0,1,2.3,1.18,2.45,2.45,0,0,1,.73,1.83,2.42,2.42,0,0,1-.81,1.91,3.68,3.68,0,0,1-2.3.81v.76a.35.35,0,0,1-.34.36h0a.39.39,0,0,1-.36-.39v-.75h-.16a10,10,0,0,1-1.34-.14,7.21,7.21,0,0,1-.92-.21.4.4,0,0,1-.29-.41l.1-1.12a.36.36,0,0,1,.38-.32l.11,0a6,6,0,0,0,.82.27,7.05,7.05,0,0,0,1.3.21v-2.2a4.77,4.77,0,0,1-2.24-1.1A2.54,2.54,0,0,1,27,96.51a2.19,2.19,0,0,1,.8-1.82,3.58,3.58,0,0,1,2.27-.63v-.71a.33.33,0,0,1,.32-.34Zm-.36,2.64a1.25,1.25,0,0,0-.72.25.76.76,0,0,0-.26.6.82.82,0,0,0,.24.59,1.64,1.64,0,0,0,.74.38Zm.64,4v2a1.15,1.15,0,0,0,.78-.24.85.85,0,0,0,.26-.68.9.9,0,0,0-.25-.66,1.82,1.82,0,0,0-.79-.44Z"/></g><path id="Trazado_24528" data-name="Trazado 24528" class="cls-85" d="M29.24,100.14c.23-2.24,2.28-3.18,2-5.24a5.15,5.15,0,0,0-2.19-3.16,6.43,6.43,0,0,0-5.76,6.54,7.55,7.55,0,0,0,7.15,7.51,5.76,5.76,0,0,0,1.1-.05A7.31,7.31,0,0,1,29.24,100.14Z"/></g><g id="Grupo_25135" data-name="Grupo 25135"><path id="Trazado_24529" data-name="Trazado 24529" class="cls-86" d="M35.25,61.49a7,7,0,0,1-6.86,7.14H28a8.2,8.2,0,0,1-7.79-8.15A7,7,0,0,1,27,53.33a8,8,0,0,1,1,.05A8.25,8.25,0,0,1,35.25,61.49Z"/><path id="Trazado_24530" data-name="Trazado 24530" class="cls-87" d="M36.34,61.14a7,7,0,0,1-6.85,7.14H29.1a8.2,8.2,0,0,1-7.78-8.15A7,7,0,0,1,28.13,53a6.24,6.24,0,0,1,1,.05A8.23,8.23,0,0,1,36.34,61.14Z"/><path id="Trazado_24531" data-name="Trazado 24531" class="cls-88" d="M36,61.12a6.68,6.68,0,0,1-6.55,6.81H29.1a7.83,7.83,0,0,1-7.41-7.78,6.66,6.66,0,0,1,6.5-6.82c.3,0,.61,0,.91,0A7.89,7.89,0,0,1,36,61.12Z"/><path id="Trazado_24532" data-name="Trazado 24532" class="cls-89" d="M35.8,61.1a6.45,6.45,0,0,1-6.32,6.58h-.37A7.56,7.56,0,0,1,22,60.17a6.43,6.43,0,0,1,6.28-6.58,6.53,6.53,0,0,1,.88,0A7.61,7.61,0,0,1,35.8,61.1Z"/><g id="Grupo_25134" data-name="Grupo 25134"><path id="Trazado_24533" data-name="Trazado 24533" class="cls-90" d="M29.07,54.9h0a.43.43,0,0,1,.36.4V56q.6.07,1.2.21c.29.07.59.15.88.25a.4.4,0,0,1,.27.41l-.08.87a.33.33,0,0,1-.35.3.27.27,0,0,1-.12,0,5.18,5.18,0,0,0-1.7-.43h-.1v2a5.15,5.15,0,0,1,2.3,1.17,2.5,2.5,0,0,1,.74,1.84,2.43,2.43,0,0,1-.82,1.91,3.74,3.74,0,0,1-2.3.81V66a.34.34,0,0,1-.34.35h0a.38.38,0,0,1-.37-.38v-.75h-.16a11.75,11.75,0,0,1-1.33-.14q-.46-.09-.93-.21a.4.4,0,0,1-.28-.42l.1-1.11a.34.34,0,0,1,.38-.32.23.23,0,0,1,.11,0,7,7,0,0,0,.81.26,6.43,6.43,0,0,0,1.3.22v-2.2a4.73,4.73,0,0,1-2.24-1.1,2.47,2.47,0,0,1-.74-1.87,2.15,2.15,0,0,1,.8-1.81,3.58,3.58,0,0,1,2.26-.64v-.7A.34.34,0,0,1,29,54.9Zm-.37,2.65a1.19,1.19,0,0,0-.72.25.76.76,0,0,0-.26.6A.82.82,0,0,0,28,59a1.73,1.73,0,0,0,.74.37Zm.64,4v2a1.15,1.15,0,0,0,.78-.24.92.92,0,0,0,.27-.68,1,1,0,0,0-.25-.67,1.81,1.81,0,0,0-.79-.43Z"/></g><path id="Trazado_24534" data-name="Trazado 24534" class="cls-91" d="M27.89,62c.23-2.23,2.28-3.18,2-5.23a5.17,5.17,0,0,0-2.19-3.17A6.44,6.44,0,0,0,22,60.17a7.55,7.55,0,0,0,7.15,7.51,5.9,5.9,0,0,0,1.11-.05A7.32,7.32,0,0,1,27.89,62Z"/></g></g></g></g></svg>