<svg xmlns="http://www.w3.org/2000/svg" xmlns:xlink="http://www.w3.org/1999/xlink" width="210.216" height="200.247" viewBox="0 0 210.216 200.247"><defs><linearGradient id="a" x1="0.748" y1="-2.219" x2="0.252" y2="3.219" gradientUnits="objectBoundingBox"><stop offset="0" stop-color="#444b8c"/><stop offset="0.996" stop-color="#26264f"/></linearGradient><linearGradient id="c" y1="0.5" x2="1" y2="0.5" gradientUnits="objectBoundingBox"><stop offset="0" stop-color="#09005d"/><stop offset="1" stop-color="#1a0f91"/></linearGradient><linearGradient id="d" x1="1.323" y1="0.021" x2="0.034" y2="0.708" gradientUnits="objectBoundingBox"><stop offset="0" stop-color="#4f52ff"/><stop offset="1" stop-color="#4042e2"/></linearGradient><linearGradient id="e" x1="0.571" y1="0.385" x2="-2.067" y2="3.776" xlink:href="#d"/><linearGradient id="f" x1="0" y1="0.5" x2="1" y2="0.5" xlink:href="#a"/><linearGradient id="g" x1="0.168" y1="0.318" x2="2.168" y2="0.866" xlink:href="#a"/><linearGradient id="h" x1="1.406" y1="0.512" x2="5.003" y2="0.56" xlink:href="#c"/><linearGradient id="i" x1="-250.984" y1="0.5" x2="-249.984" y2="0.5" xlink:href="#a"/><linearGradient id="j" x1="-660.661" y1="0.318" x2="-658.661" y2="0.866" xlink:href="#a"/><linearGradient id="k" x1="-4270.287" y1="0.512" x2="-4266.69" y2="0.56" xlink:href="#c"/><linearGradient id="l" y1="0.5" x2="1" y2="0.5" gradientUnits="objectBoundingBox"><stop offset="0" stop-color="#febbba"/><stop offset="1" stop-color="#ff928e"/></linearGradient><linearGradient id="m" x1="0" y1="0.5" x2="1" y2="0.5" xlink:href="#a"/><linearGradient id="n" x1="0.508" y1="1.162" x2="0.501" y2="0.545" xlink:href="#a"/><linearGradient id="o" x1="0.539" y1="-0.093" x2="0.506" y2="0.69" xlink:href="#a"/><linearGradient id="q" x1="1.872" y1="-1.669" x2="0.597" y2="0.314" gradientUnits="objectBoundingBox"><stop offset="0" stop-color="#ffc444"/><stop offset="0.996" stop-color="#f36f56"/></linearGradient><linearGradient id="r" x1="0.953" y1="-0.153" x2="0.074" y2="1.115" xlink:href="#q"/><linearGradient id="s" x1="5.016" y1="-0.265" x2="4.137" y2="1.502" gradientUnits="objectBoundingBox"><stop offset="0" stop-color="#aa80f9"/><stop offset="0.996" stop-color="#6165d7"/></linearGradient><linearGradient id="t" x1="4.004" y1="0.5" x2="5.004" y2="0.5" gradientUnits="objectBoundingBox"><stop offset="0" stop-color="#40447e"/><stop offset="0.996" stop-color="#3c3b6b"/></linearGradient><linearGradient id="u" x1="-349.981" y1="0.5" x2="-348.981" y2="0.5" xlink:href="#c"/><linearGradient id="v" x1="-355.076" y1="-42.687" x2="-355.225" y2="-13.232" gradientUnits="objectBoundingBox"><stop offset="0" stop-color="#53d8ff"/><stop offset="1" stop-color="#3840f7"/></linearGradient><linearGradient id="w" x1="-927.598" y1="-0.844" x2="-928.105" y2="2.391" xlink:href="#l"/><linearGradient id="x" x1="-241.443" y1="-39.969" x2="-241.544" y2="-11.724" xlink:href="#v"/><linearGradient id="y" x1="-243.14" y1="0.5" x2="-242.14" y2="0.5" xlink:href="#c"/><linearGradient id="z" x1="-721.395" y1="-12.457" x2="-721.875" y2="-9.742" xlink:href="#l"/><linearGradient id="aa" x1="0.484" y1="0.526" x2="1.93" y2="-0.715" xlink:href="#c"/><linearGradient id="ab" x1="0.5" x2="0.5" y2="1" gradientUnits="objectBoundingBox"><stop offset="0" stop-color="#9f79ff"/><stop offset="1" stop-color="#632678"/></linearGradient><linearGradient id="ac" x1="0.699" y1="-0.143" x2="-0.009" y2="2.143" xlink:href="#l"/><linearGradient id="ad" x1="0.448" y1="0.412" x2="-0.055" y2="3.293" xlink:href="#l"/><linearGradient id="ag" x1="0.54" y1="1.217" x2="0.415" y2="-0.22" xlink:href="#l"/><linearGradient id="ah" x1="2.333" y1="0.199" x2="5.139" y2="-0.265" xlink:href="#l"/><linearGradient id="ai" x1="-1005.945" y1="-616.302" x2="-1004.857" y2="-616.302" xlink:href="#c"/><linearGradient id="aj" x1="-2797.158" y1="679.224" x2="-2804.061" y2="682.416" xlink:href="#l"/><linearGradient id="ak" x1="-1369.582" y1="265.828" x2="-1366.56" y2="267.6" xlink:href="#l"/><linearGradient id="al" x1="-716.016" y1="281.914" x2="-714.371" y2="283.874" xlink:href="#l"/><linearGradient id="an" x1="0.966" y1="239.294" x2="1.608" y2="237.115" xlink:href="#q"/><linearGradient id="ao" x1="1.076" y1="0.673" x2="1.117" y2="-1.244" xlink:href="#q"/><linearGradient id="ap" x1="0.974" y1="0.251" x2="1.359" y2="1.403" xlink:href="#q"/><linearGradient id="aq" x1="0.746" y1="0.525" x2="0.332" y2="0.584" xlink:href="#q"/><linearGradient id="ar" x1="0.976" y1="0.251" x2="1.36" y2="1.402" xlink:href="#q"/><linearGradient id="as" x1="1.084" y1="0.19" x2="1.469" y2="1.379" xlink:href="#q"/></defs><ellipse cx="69.07" cy="5.53" rx="69.07" ry="5.53" transform="translate(37.731 182.704)" opacity="0.15" fill="url(#a)" style="mix-blend-mode:multiply;isolation:isolate"/><ellipse cx="27.908" cy="3.678" rx="27.908" ry="3.678" transform="translate(4.601 192.892)" opacity="0.15" fill="url(#a)" style="mix-blend-mode:multiply;isolation:isolate"/><g transform="translate(120.269)"><path d="M157.259,667.455s8.516,3.751,11.664,6.627l-12.22-.5Z" transform="translate(-115.522 -643.805)" fill="url(#c)"/><path d="M168.517,669.011s6.3,1.548,7.981,2.034c2.168.625,5.15,16.125,5.421,22.375s-.969,28.376-.969,28.376l-33.584-.041-.542-47.086,12.6-5.75Z" transform="translate(-127.593 -642.269)" fill="#91b3fa"/><path d="M157.692,672.883l5.8,32.086a2.626,2.626,0,0,1-.293,1.742l-4.25,7.651a1.135,1.135,0,0,1-1.949-.008l-4.215-7.781a2.624,2.624,0,0,1-.315-1.46l2.515-31.857Z" transform="translate(-120.709 -638.107)" fill="url(#d)"/><path d="M153.224,671.969l-.213,1.839a1.347,1.347,0,0,0,.162.805l.68,1.224a1.564,1.564,0,0,0,1.3.777c.329.016.707.029,1.066.029a1.549,1.549,0,0,0,1.453-.941l.438-1.111a1.318,1.318,0,0,0,.071-.734l-.378-2.023a1.528,1.528,0,0,0-1.58-1.187l-1.5.045A1.506,1.506,0,0,0,153.224,671.969Z" transform="translate(-120.045 -640.456)" fill="url(#e)"/><path d="M154.19,672.225l2.966,7.588a1.087,1.087,0,0,0,1.94.084l3.526-6.887-1.991-3.937Z" transform="translate(-118.594 -642.108)" fill="#bdd0fb"/><path d="M151.885,669.041l6.1,3.751-2.137,6.633a1.084,1.084,0,0,1-1.98.1l-3.2-7.1Z" transform="translate(-122.898 -642.141)" fill="#bdd0fb"/><path d="M164.447,669.651l-19.3,7.719a10.673,10.673,0,0,0-6.974,10.2l1.338,33.415h34.069l-2.091-40.21Z" transform="translate(-138.169 -641.5)" fill="url(#f)"/><path d="M156.968,668.187a14.8,14.8,0,0,0-8.7,4.093.723.723,0,0,0-.111.871c1.238,2.173,6.437,11.431,7.672,15.953a.987.987,0,0,1-.611,1.168l-1.18.492a2.409,2.409,0,0,0-1.435,3.042c2.226,6.073,8.463,23.455,8.876,28.717l-1.4-41.142s-4.055-7.693-4.6-8.693S156.968,668.187,156.968,668.187Z" transform="translate(-126.084 -643.037)" fill="url(#g)"/><path d="M145.952,708.894a.256.256,0,0,1-.271-.221l-1.54-27.284a.25.25,0,0,1,.258-.242.259.259,0,0,1,.284.219l1.54,27.286a.248.248,0,0,1-.258.24Z" transform="translate(-130.872 -629.433)" fill="url(#h)"/><path d="M164.762,669.651l19.3,7.719a10.671,10.671,0,0,1,6.972,10.2l-1.338,33.415H155.624l2.091-40.21Z" transform="translate(-116.842 -641.5)" fill="url(#i)"/><path d="M160.142,668.187a14.8,14.8,0,0,1,8.7,4.093.723.723,0,0,1,.111.871c-1.238,2.173-6.436,11.431-7.672,15.953a.989.989,0,0,0,.611,1.168l1.182.492a2.408,2.408,0,0,1,1.433,3.042c-2.226,6.073-8.461,23.455-8.874,28.717l1.4-41.142s4.055-7.693,4.6-8.693S160.142,668.187,160.142,668.187Z" transform="translate(-116.83 -643.037)" fill="url(#j)"/><path d="M164.925,708.894a.256.256,0,0,0,.271-.221l1.54-27.284a.25.25,0,0,0-.258-.242.26.26,0,0,0-.284.219l-1.54,27.286a.248.248,0,0,0,.258.24Z" transform="translate(-105.809 -629.433)" fill="url(#k)"/><path d="M149.874,665.882s.271,14.5,9.485,14.625,9.078-17.626,9.078-17.626Z" transform="translate(-123.867 -648.607)" fill="url(#l)"/><path d="M149.593,665.555l20.089-.773a.4.4,0,0,1,.427.484l-.233.863a.415.415,0,0,1-.358.293l-.889.1-.533,2.29a2.037,2.037,0,0,1-2.024,1.511h-2.922a2.071,2.071,0,0,1-1.94-1.24l-.622-1.529a.816.816,0,0,0-.764-.488h0a.808.808,0,0,0-.782.541l-.424,1.34a2.056,2.056,0,0,1-1.986,1.376h-2.779a2.058,2.058,0,0,1-1.988-1.376l-.593-1.882h-1.442a.421.421,0,0,1-.409-.289l-.218-.732A.4.4,0,0,1,149.593,665.555Z" transform="translate(-124.706 -646.612)" fill="url(#m)"/><path d="M184.207,664.831l-8.689-2.556-10.433-.121v0l-.2,0-.2,0v0l-10.433.121-8.692,2.556a.62.62,0,0,0-.44.8.608.608,0,0,0,.191.269c.778.637,5.417,3.253,19.576,3.136,14.837.117,18.8-2.5,19.578-3.136a.586.586,0,0,0,.189-.269A.618.618,0,0,0,184.207,664.831Z" transform="translate(-129.728 -649.374)" fill="url(#n)"/><path d="M149.01,668.734a37.6,37.6,0,0,1,4.23-11.573,2.051,2.051,0,0,1,2.748-.637l2.268,1.322a2.086,2.086,0,0,0,2.337-.17l1.613-1.31a2.054,2.054,0,0,1,2.982.447c1.706,2.706,4.715,7.859,5.826,12.151A1.32,1.32,0,0,1,170,670.558a43.157,43.157,0,0,1-19.929-.3A1.328,1.328,0,0,1,149.01,668.734Z" transform="translate(-124.952 -655.917)" fill="url(#o)"/><g transform="translate(24.034 10.462)"><path d="M170.246,661.218c-11.162,2.712-18.43.641-20.7-.2-.24.935-.418,1.746-.54,2.355a1.328,1.328,0,0,0,1.058,1.527,43.155,43.155,0,0,0,19.929.3,1.32,1.32,0,0,0,1.018-1.595A23.26,23.26,0,0,0,170.246,661.218Z" transform="translate(-148.986 -661.021)" fill="url(#m)"/></g></g><g transform="translate(143.14 14.905)"><path d="M173.343,678.064l-24.064,18.294a1.964,1.964,0,0,0-.187,3.034l.149.143a2.209,2.209,0,0,0,2.957.041l22.429-20.2Z" transform="translate(-148.463 -647.574)" fill="url(#q)"/><path d="M16.518.006c9.346.23,17.1,7.4,17.33,16.023S26.68,31.45,17.335,31.221.231,23.817.005,15.2,7.173-.224,16.518.006Z" transform="translate(17.052 11.296) rotate(-19.493)" fill="#fff" opacity="0.19"/><path d="M169.869,665.737c-9.889,3.228-15.119,13.108-11.682,22.065s14.239,13.6,24.126,10.374S197.432,685.068,194,676.111,179.756,662.509,169.869,665.737ZM181.4,695.795c-8.436,2.755-17.652-1.207-20.583-8.851s1.529-16.07,9.965-18.825,17.652,1.207,20.583,8.851S189.836,693.04,181.4,695.795Z" transform="translate(-137.872 -661.591)" fill="url(#r)"/><path d="M159.585,688.719a.05.05,0,0,1-.042-.025c-.2-.367-.387-.744-.555-1.123a.042.042,0,0,1,.027-.057.052.052,0,0,1,.064.025c.167.377.353.752.551,1.115a.043.043,0,0,1-.022.059Zm-1.617-4.577a.047.047,0,0,1-.047-.037,14.6,14.6,0,0,1-.2-3.349,15.365,15.365,0,0,1,3.437-8.791,17.846,17.846,0,0,1,8.436-5.739,19.332,19.332,0,0,1,9.887-.564.042.042,0,0,1,.036.053.049.049,0,0,1-.058.035,19.233,19.233,0,0,0-9.831.562,17.747,17.747,0,0,0-8.392,5.706,15.269,15.269,0,0,0-3.417,8.742,14.556,14.556,0,0,0,.2,3.331.045.045,0,0,1-.04.051Z" transform="translate(-137.182 -661.007)" fill="#fff"/><path d="M150.668,691.024c-.926,0-1.526-.3-1.782-.885a1.467,1.467,0,0,1,.493-1.74l2.857-2.275a.042.042,0,0,1,.058,0,.035.035,0,0,1,0,.053l-2.857,2.275a1.4,1.4,0,0,0-.471,1.654c.247.564.827.844,1.735.839h0a.039.039,0,0,1,.04.039.037.037,0,0,1-.04.037Z" transform="translate(-148.086 -639.125)" fill="#fff"/><path d="M150.763,686a.041.041,0,0,1-.031-.012.037.037,0,0,1,0-.055l.369-.293a.047.047,0,0,1,.06,0,.041.041,0,0,1,0,.055l-.371.3Z" transform="translate(-145.703 -639.635)" fill="#fff"/></g><g transform="translate(4.682 70.64)"><path d="M86.144,738.183l203.37-1.634v4.835a2.6,2.6,0,0,1-2.089,2.626l-57.506,9.521a8.6,8.6,0,0,1-2.064.09l-139.5-10.855a2.5,2.5,0,0,1-2.208-2.564Z" transform="translate(-86.144 -641.915)" fill="#97a6b7"/><path d="M117.6,778.81l135.666,8.845a3.92,3.92,0,0,0,4.4-3.755V694.424a4.237,4.237,0,0,0-4.4-4.044H117.6a3.634,3.634,0,0,0-3.617,3.655v80.885A3.935,3.935,0,0,0,117.6,778.81Z" transform="translate(-52.132 -690.38)" fill="#97a6b7"/><path d="M116.625,778.81l135.666,8.845a3.919,3.919,0,0,0,4.4-3.755V694.424a4.235,4.235,0,0,0-4.4-4.044H116.625a3.634,3.634,0,0,0-3.617,3.655v80.885A3.935,3.935,0,0,0,116.625,778.81Z" transform="translate(-53.322 -690.38)" fill="#d8dee8"/><path d="M118.181,770.447l126.357,7.682a3.209,3.209,0,0,0,3.581-3.083V696.712a3.466,3.466,0,0,0-3.581-3.314l-126.357-.484a2.982,2.982,0,0,0-2.986,3V767.26A3.226,3.226,0,0,0,118.181,770.447Z" transform="translate(-50.65 -687.72)" fill="url(#s)"/><path d="M143.011,692.344a1.563,1.563,0,1,0,1.56-1.5A1.538,1.538,0,0,0,143.011,692.344Z" transform="translate(-16.665 -689.897)" fill="#fff"/><path d="M152.833,733.339l136.681,9.312-59.595,9.865a8.589,8.589,0,0,1-2.064.09L86.144,741.579l64.514-8.177A11.353,11.353,0,0,1,152.833,733.339Z" transform="translate(-86.144 -645.311)" fill="#d8dee8"/><path d="M250.644,742.012l-113.792-7.866-35.218,4.427,112.812,8.409Z" transform="translate(-67.217 -644.439)" opacity="0.3" fill="url(#t)" style="mix-blend-mode:multiply;isolation:isolate"/><path d="M148.664,754.27c10.46-5.192,18.683,1.386,26.619-5.1,4.812-3.935,2.448-6.869,8.369-12.749,6.559-6.514,10.827-4.323,17.417-10.185,8.334-7.412,4.166-13.178,11.342-18.5,8.709-6.457,18.1-.482,26.388-6.672a18.389,18.389,0,0,0,6.561-10.681h8.109a2.48,2.48,0,0,1,2.575,2.374V785.5a2.294,2.294,0,0,1-2.575,2.2L115.2,778.652a2.267,2.267,0,0,1-1.666-.939c10.122-.34,16.339-3.472,20.314-6.707C141.628,764.674,140.279,758.433,148.664,754.27Z" transform="translate(-52.675 -690.38)" fill="#fff" opacity="0.48" style="mix-blend-mode:soft-light;isolation:isolate"/></g><g transform="translate(0 89.867)"><g transform="translate(17.55 50.367)"><path d="M101.786,754.807a.645.645,0,0,0-.02-.17c-.922-3.374-5.5-5.475-5.5-5.475l-1.813.131a10.781,10.781,0,0,0-.742,5.608c0,.023.013.045.02.068A46.763,46.763,0,0,0,101.786,754.807Z" transform="translate(-89.908 -698.269)" fill="url(#u)"/><path d="M93.656,752.078a.755.755,0,0,0,.575.535,26.866,26.866,0,0,0,6.932-.09.627.627,0,0,0,.549-.607A46.778,46.778,0,0,1,93.656,752.078Z" transform="translate(-89.835 -695.378)" fill="url(#v)"/><path d="M93.653,748.01l.766,3.411a.588.588,0,0,0,.518.459,5.577,5.577,0,0,0,1.191-.016.709.709,0,0,0,.6-.824l-.535-3.03Z" transform="translate(-89.838 -699.479)" fill="url(#w)"/><path d="M102.785,752.216a11.774,11.774,0,0,1-3.577-.471c0,.182,0,.371.007.564a.379.379,0,0,0,.378.371l11-.065a.462.462,0,0,0,.4-.675C109.555,752.05,105.882,752.3,102.785,752.216Z" transform="translate(-83.051 -695.559)" fill="url(#x)"/><path d="M111,754.385a.533.533,0,0,0-.042-.076,14.138,14.138,0,0,0-8.336-4.829l-2.346-.068a9.747,9.747,0,0,0-1.064,4.778,11.777,11.777,0,0,0,3.577.471C105.882,754.742,109.555,754.5,111,754.385Z" transform="translate(-83.051 -698.006)" fill="url(#y)"/><path d="M99.445,748.22c.036.16.524,2.589.713,3.53a.5.5,0,0,0,.458.4,5.827,5.827,0,0,0,1.606-.117.643.643,0,0,0,.482-.672l-.262-3.839Z" transform="translate(-82.762 -699.992)" fill="url(#z)"/><path d="M107.737,726.1s2.331,22.086,4.659,46.426a.952.952,0,0,1-.831.943,13.241,13.241,0,0,1-2.622.279.95.95,0,0,1-.926-.748c-.793-4.292-6.454-27.325-7.941-32.394,0,0-1.706,21.533-1.16,32.706a.543.543,0,0,1-.507.549,10.4,10.4,0,0,1-2.106,0,.747.747,0,0,1-.684-.6C95.055,769.622,91.8,748,91.94,732.427c.009-.877,1.118-8.094,1.118-8.094Z" transform="translate(-91.936 -724.333)" fill="url(#aa)"/></g><g transform="translate(29.432 9.019)"><g transform="translate(0 6.076)"><path d="M113.581,717.35c-.462,3.036-.951,3.733-1.331,3.751-1.206.057-.962-6.784-5.379-10.245-2.788-2.187-6.6-2.365-9.587-2.111l4.184,13.842c.609,1.379,3.264,6.955,9.271,8.648a7.408,7.408,0,0,0,4.737.184c3.342-1.324,4.908-6.754,3.415-13.555C118.189,717.625,117.216,717.368,113.581,717.35Z" transform="translate(-97.284 -705.517)" fill="url(#ab)"/><path d="M104.14,707.125l.553,2.884a20.841,20.841,0,0,1,.511,8.949q1.146.043,2.4.156c1.029.092,2,.217,2.911.359-.48-3.587-3.068-9.544-3.068-9.544C105.886,707.851,105.7,709.2,104.14,707.125Z" transform="translate(-88.908 -707.125)" fill="url(#ac)"/></g><path d="M111.322,704.161a2.148,2.148,0,0,0-1.631.674l-3.944,4.311s-.718-.135-.784-1.4-1.529-1.42-1.529-1.42.211,1.767.611,4.384a5.461,5.461,0,0,0,1.968,3.251l2.282-.723a22.98,22.98,0,0,0,4.112-9.048Z" transform="translate(-89.769 -704.161)" fill="url(#ad)"/></g><path d="M90.256,711.558c.264-.063,2.06-1.775,2.331-1.824,4.426-.777,15.475-3.523,22.871,1.511.02.146.031.26.038.357a3.79,3.79,0,0,1,.3.482,22.969,22.969,0,0,0,2.5,3.6,2.379,2.379,0,0,0-.515.672c-1.777,3.511-8.514,17.537-7.33,26.114a.823.823,0,0,1-.744.912c-2.615.334-10.4,1.148-14.426-.385a.565.565,0,0,1-.38-.535,58.564,58.564,0,0,0-3.022-18.191,9.651,9.651,0,0,1-.273-1.021l-.107.207Z" transform="translate(-76.438 -690.81)" fill="url(#ab)"/><path d="M101.923,708.614c-8.256.555-9.98,4.909-15.686,2.246l1.009,8.152a15.849,15.849,0,0,0,9.336,4.173Z" transform="translate(-81.349 -690.467)" fill="url(#ab)"/><path d="M97.036,705.017a18.759,18.759,0,0,0-2.182,7.719c.3.1,4.364,2.7,7.081.187-.58-1.726-.484-4.325-.335-6.99Z" transform="translate(-70.821 -694.242)" fill="url(#ag)"/><g transform="translate(24.083)"><path d="M102.809,701.968c.078.115,2.106,8.943,2.106,8.943l-5.488.961-3.27-8.1S101.507,700.023,102.809,701.968Z" transform="translate(-93.312 -698.031)" fill="url(#ah)"/><path d="M99.817,706.218a.7.7,0,0,0-.124.644l1.34,4.327a.724.724,0,0,0,.089.185,1.365,1.365,0,0,0,2.042.492,7.235,7.235,0,0,1,2.471-1.437.8.8,0,0,1,.953.578,25.607,25.607,0,0,1,.6,4.04.759.759,0,0,1-.7.76,23.917,23.917,0,0,1-5.017.1.792.792,0,0,1-.651-.467c-.469-1.123-1.8-4.263-2.322-5.1-.487-.775-1.777-.847-2.373-.838a.846.846,0,0,1-.6-.227,1.555,1.555,0,0,1,.056-2.556.7.7,0,0,0,.042-1.031,1.555,1.555,0,0,1,0-2.408,2.656,2.656,0,0,1,2.962-.533.881.881,0,0,0,.971-.225.547.547,0,0,1,.484-.191.761.761,0,0,0,.844-.664,1.943,1.943,0,0,1,1.72-1.824c2.406-.545,3.737,1.642,3.779,3.22s-2.6,2.031-4.128,1.841A2.945,2.945,0,0,0,99.817,706.218Z" transform="translate(-94.876 -699.761)" fill="url(#ai)"/><path d="M98.814,707.276s-.511-2.8-1.731-3-2.48.662-1.358,2.261A2.117,2.117,0,0,0,98.814,707.276Z" transform="translate(-94.371 -695.05)" fill="url(#aj)"/></g><g transform="translate(0 2.169)"><path d="M98.849,700.82a3.218,3.218,0,0,1,.7.061c.58.113,1.353.388,1.151.9-.3.773-1.871.049-2.706,1.3-.735,1.1-.133,2.292-.358,3.476a2.908,2.908,0,0,1-1.069,1.767c-.249.149-2.22.437-2.326.115l-.547-1.638c-.493-1.474,1.4-3.931,2.373-4.923A3.981,3.981,0,0,1,98.849,700.82Z" transform="translate(-72.336 -700.818)" fill="url(#ak)"/><g transform="translate(0 4.954)"><path d="M102.61,704.2l-1.884,1.447a24.692,24.692,0,0,0-8.136,4.895,10.22,10.22,0,0,0-3.582-3.655,42.216,42.216,0,0,1,6.352-2.343C102.707,701.818,102.61,704.2,102.61,704.2Z" transform="translate(-77.963 -703.236)" fill="url(#al)"/><path d="M98.663,708.671c-5.939,5.641-4.2,2.773-4.25,7.582-.018,1.794-1.7,8.638-1.7,8.638-18.159-7.235-3-17.115,2.373-19.874A10.221,10.221,0,0,1,98.663,708.671Z" transform="translate(-84.037 -701.366)" fill="url(#ab)"/></g></g></g><g transform="translate(54.498 51.057)"><path d="M139.1,688.805l-30.163,29.319a2.478,2.478,0,0,0,2.024.426L180.9,713a2.688,2.688,0,0,0,1.682-.812l-38.4-24.117A4.154,4.154,0,0,0,139.1,688.805Z" transform="translate(-108.115 -673.818)" fill="url(#an)"/><g transform="translate(0 38.336)"><path d="M138.645,729.851,108.878,705.64a2.746,2.746,0,0,1,1.893-.984l69.984-5.12a2.381,2.381,0,0,1,1.713.554l-38.746,29.752A4.067,4.067,0,0,1,138.645,729.851Z" transform="translate(-108.185 -699.529)" fill="url(#ao)"/><path d="M139.027,729.564a4.067,4.067,0,0,0,5.077-.01L182.849,699.8a2.64,2.64,0,0,1,.924,2.041v46.476a2.787,2.787,0,0,1-2.739,2.835l-69.988-1.726a2.561,2.561,0,0,1-2.479-2.624V707.228a2.892,2.892,0,0,1,.693-1.876Z" transform="translate(-108.566 -699.242)" fill="url(#ap)"/></g><g transform="translate(1.233 38.293)"><path d="M111.7,704.633l69.928-5.118a2.505,2.505,0,0,1,2.635,2.593v46.457a2.784,2.784,0,0,1-2.739,2.833l-69.93-1.726a2.558,2.558,0,0,1-2.477-2.622V707.488A2.851,2.851,0,0,1,111.7,704.633Z" transform="translate(-109.121 -699.508)" fill="url(#aq)"/></g><path d="M110.09,768.907V693.733a12.855,12.855,0,0,1,2.22-7.164l68.666-5.743,1,.9a12.615,12.615,0,0,0-2.264,7.07v79.078Z" transform="translate(-106.704 -680.826)" fill="#d8dee8"/><path d="M109.471,768.087V692.815c0-4.479.92-5,2.366-7.168l69.895-4.821a12.543,12.543,0,0,0-2.188,7.076v79.161Z" transform="translate(-107.46 -680.826)" fill="#d8dee8"/><path d="M130.911,694.945a26.537,26.537,0,0,1,7.818-11.815l33.409-2.3a12.543,12.543,0,0,0-2.188,7.076v79.161l-52.627.769c13.069-14.129,16.543-26.288,17.057-35.274C135.295,716.555,127,707.471,130.911,694.945Z" transform="translate(-97.867 -680.826)" fill="#fff" opacity="0.3" style="mix-blend-mode:overlay;isolation:isolate"/><g transform="translate(0.007 38.896)"><path d="M108.569,707.226V746.8a2.556,2.556,0,0,0,2.475,2.624l4.5.11,65.434,1.617a2.745,2.745,0,0,0,2.688-2.835V701.848c0-.053.049-.107.044-.158a1.941,1.941,0,0,0,.009-.195c0-.035,0-.07,0-.1l0-.014a1.4,1.4,0,0,0-.024-.139c-.009-.043-.018-.084-.029-.125-.018-.066-.036-.129-.058-.193a2.684,2.684,0,0,0-.153-.353c-.029-.051-.058-.1-.089-.154l-.062-.1c-.027-.039-.053-.076-.082-.113s-.058-.074-.089-.109-.06-.07-.093-.1-.073-.076-.111-.112-.06-.052-.091-.078L144.1,729.554a4.064,4.064,0,0,1-5.075.01l-29.77-24.211a2.8,2.8,0,0,0-.5.861,1.834,1.834,0,0,0-.08.242c-.011.041-.022.08-.031.121s-.016.074-.022.109a1.211,1.211,0,0,0-.022.129c-.007.045-.009.09-.013.135C108.571,707.042,108.569,707.134,108.569,707.226Z" transform="translate(-108.569 -699.802)" fill="url(#ar)"/></g><path d="M108.569,707.226V746.8a2.556,2.556,0,0,0,2.475,2.624l4.5.11a10.015,10.015,0,0,1,3.5-4.952c5.634-3.95,12.378,2.63,18.947-1.334,4.675-2.819,2.862-7.119,8.518-11.108,5.334-3.761,8.543-1.049,12.255-4.905,3.553-3.7,1.78-7.414,5.83-10.875,2.1-1.794,2.6-.812,7.343-3.36,5.059-2.716,5.637-4.476,8.272-4.812a6.3,6.3,0,0,1,3.453.508v-6.852c0-.053.049-.107.044-.158a1.941,1.941,0,0,0,.009-.195c0-.035,0-.07,0-.1l0-.014a1.4,1.4,0,0,0-.024-.139c-.009-.043-.018-.084-.029-.125-.018-.066-.036-.129-.058-.193a2.684,2.684,0,0,0-.153-.353c-.029-.051-.058-.1-.089-.154l-.062-.1c-.027-.039-.053-.076-.082-.113s-.058-.074-.089-.109-.06-.07-.093-.1-.073-.076-.111-.112-.06-.052-.091-.078L144.1,729.554a4.064,4.064,0,0,1-5.075.01l-29.77-24.211a2.993,2.993,0,0,0-.5.861c-.031.08-.056.162-.08.242-.011.041-.022.08-.031.121s-.016.074-.022.109a1.211,1.211,0,0,0-.022.129c-.007.045-.009.09-.013.135C108.571,707.042,108.569,707.134,108.569,707.226Z" transform="translate(-108.562 -660.906)" opacity="0.37" fill="url(#as)" style="mix-blend-mode:multiply;isolation:isolate"/><g transform="translate(12.535 9.707)"><path d="M115.739,699.553a3.485,3.485,0,0,1,4.381.621h0a1.028,1.028,0,0,0,1.36.119l3.25-2.421a2.967,2.967,0,0,0,2.388,2.845l-3.119,2.3a.9.9,0,0,0-.162,1.347h0a2.825,2.825,0,0,1-.509,4.227h0a3.5,3.5,0,0,1-4.61-.465h0a2.784,2.784,0,0,1-.351-3.237,3.4,3.4,0,0,1-3.355-1h0A2.842,2.842,0,0,1,115.739,699.553Z" transform="translate(-114.09 -672.639)" fill="#9899b2"/><path d="M141.047,695.625a4.055,4.055,0,0,1-4.926-.533h0a1.167,1.167,0,0,0-1.5-.088l-3.459,2.55a10.335,10.335,0,0,0-2.264-3.1l2.979-2.218a.931.931,0,0,0,.18-1.414h0a2.932,2.932,0,0,1,.562-4.448,3.951,3.951,0,0,1,5.09.232h0a2.8,2.8,0,0,1,.382,3.423,3.888,3.888,0,0,1,3.8.914h0A2.971,2.971,0,0,1,141.047,695.625Z" transform="translate(-96.259 -685.562)" fill="#9899b2"/><path d="M128.694,700.9a2.88,2.88,0,0,0,1.557-3.3,2.248,2.248,0,0,1-.069-.412l4.828,3.191a1.183,1.183,0,0,0,1.5-.187l.051-.06a4.059,4.059,0,0,1,5.123-.637h0a2.876,2.876,0,0,1,.655,4.446h0a4.023,4.023,0,0,1-3.777,1.162,2.816,2.816,0,0,1-.324,3.433h0a3.988,3.988,0,0,1-5.068.566h0a2.875,2.875,0,0,1-.642-4.388h0a.912.912,0,0,0-.2-1.4Z" transform="translate(-96.509 -673.348)" fill="#9899b2"/><path d="M126.157,694.06a10.113,10.113,0,0,0-2.273,3.038l-2.457-1.642a1.044,1.044,0,0,0-1.355.211h0a3.545,3.545,0,0,1-4.512.83,2.8,2.8,0,0,1-.684-4.216h0a3.526,3.526,0,0,1,3.337-1.222,2.829,2.829,0,0,1,.28-3.271,3.552,3.552,0,0,1,4.606-.775h0a2.8,2.8,0,0,1,.6,4.208h0a.892.892,0,0,0,.191,1.34Z" transform="translate(-114.208 -684.594)" fill="#9899b2"/><path d="M119.016,698c.04,2.712.322,4.458,1.424,6a3.144,3.144,0,0,1,.322,2.511c-.224,1.42.229,2.007,1.789,2.273.615.106,1.258.1,1.886.164,1.042.1,1.36.473,1.24,1.418a1.124,1.124,0,0,1-.042.244c-.571,1.513-.353,1.871,1.646,2.4a11.625,11.625,0,0,0,6.979-.285c.884-.313,1.22-.816.953-1.623a4.715,4.715,0,0,1-.136-.482c-.264-1.242.127-1.648,1.577-1.783a13.9,13.9,0,0,0,2.488-.422,1.377,1.377,0,0,0,1.133-1.72,4.881,4.881,0,0,1,.851-3.837,8.7,8.7,0,0,0-3.526-12.208,13.486,13.486,0,0,0-13.5.123C120.694,692.619,118.874,695.3,119.016,698Zm13.026,4.583c.287-1.043,1.155-1.58,2.575-1.472a8.757,8.757,0,0,1,2.26.445,2.167,2.167,0,0,1,1.417,2.691c-.24.9-1.135,1.4-2.535,1.478a20.358,20.358,0,0,1-2.246-.486A1.985,1.985,0,0,1,132.043,702.58Zm-3.586,5.264,1.1-2.1a.846.846,0,0,1,1.455-.016l1.078,2.085a.933.933,0,0,1-.935,1.3l-1.8.01A.9.9,0,0,1,128.457,707.844Zm-4.37-6.071a11.192,11.192,0,0,1,3.1-.455,1.525,1.525,0,0,1,1.537,1.281,2.105,2.105,0,0,1-1.613,2.765,14.36,14.36,0,0,1-1.7.385c-1.677.053-2.542-.4-2.773-1.263A2.177,2.177,0,0,1,124.086,701.773Z" transform="translate(-108.342 -682.06)" fill="#9899b2"/></g></g></svg>