<svg xmlns="http://www.w3.org/2000/svg" xmlns:xlink="http://www.w3.org/1999/xlink" width="386.952" height="337.38" viewBox="0 0 386.952 337.38"><defs><linearGradient id="a" x1="19.887" y1="0.298" x2="20.396" y2="0.84" gradientUnits="objectBoundingBox"><stop offset="0" stop-color="#ff9085"/><stop offset="1" stop-color="#fb6fbb"/></linearGradient><linearGradient id="b" y1="0.5" x2="1" y2="0.5" gradientUnits="objectBoundingBox"><stop offset="0.004" stop-color="#e38ddd"/><stop offset="1" stop-color="#9571f6"/></linearGradient><linearGradient id="c" x1="21.448" y1="0.047" x2="20.733" y2="0.702" gradientUnits="objectBoundingBox"><stop offset="0" stop-color="#fff"/><stop offset="0.996" stop-color="#ebeff2"/></linearGradient><linearGradient id="d" x1="32.183" y1="0.5" x2="33.183" y2="0.5" xlink:href="#c"/><linearGradient id="g" x1="62.993" y1="0.5" x2="63.993" y2="0.5" xlink:href="#c"/><linearGradient id="j" x1="19.951" y1="0.067" x2="19.503" y2="0.559" xlink:href="#b"/><linearGradient id="k" x1="-106.345" y1="0.512" x2="-105.345" y2="0.512" gradientUnits="objectBoundingBox"><stop offset="0" stop-color="#311944"/><stop offset="1" stop-color="#893976"/></linearGradient><linearGradient id="l" x1="36.064" y1="-55.335" x2="36.476" y2="-55.335" gradientUnits="objectBoundingBox"><stop offset="0" stop-color="#444b8c"/><stop offset="0.996" stop-color="#26264f"/></linearGradient><linearGradient id="m" x1="-64.481" y1="0.509" x2="-63.482" y2="0.509" xlink:href="#l"/><linearGradient id="n" x1="-77.782" y1="0.5" x2="-76.782" y2="0.5" xlink:href="#l"/><linearGradient id="o" x1="-10.794" y1="0.453" x2="-11.026" y2="-0.325" gradientUnits="objectBoundingBox"><stop offset="0" stop-color="#aa80f9"/><stop offset="0.996" stop-color="#6165d7"/></linearGradient><linearGradient id="p" x1="-51.253" y1="0.5" x2="-50.253" y2="0.5" xlink:href="#l"/><linearGradient id="q" x1="292.816" y1="0.298" x2="292.996" y2="5.334" gradientUnits="objectBoundingBox"><stop offset="0" stop-color="#311944"/><stop offset="1" stop-color="#a03976"/></linearGradient><linearGradient id="r" x1="474.733" y1="0.108" x2="475.019" y2="3.06" xlink:href="#q"/><linearGradient id="s" x1="179.838" y1="0.672" x2="180.912" y2="0.672" gradientUnits="objectBoundingBox"><stop offset="0" stop-color="#444b8c"/><stop offset="0.996" stop-color="#3e4177"/></linearGradient><linearGradient id="t" x1="443.712" y1="25.782" x2="442.962" y2="24.107" xlink:href="#s"/><linearGradient id="u" x1="86.092" y1="0.5" x2="87.092" y2="0.5" xlink:href="#o"/><linearGradient id="v" x1="521.789" y1="-922.993" x2="522.668" y2="-922.993" gradientUnits="objectBoundingBox"><stop offset="0" stop-color="#ffc444"/><stop offset="0.996" stop-color="#f36f56"/></linearGradient><linearGradient id="w" x1="43.095" y1="0.5" x2="44.095" y2="0.5" xlink:href="#o"/><linearGradient id="x" x1="34.094" y1="0.5" x2="35.094" y2="0.5" xlink:href="#l"/><linearGradient id="y" x1="31.286" y1="0.5" x2="32.286" y2="0.5" xlink:href="#l"/><linearGradient id="z" x1="-151.864" y1="38.939" x2="-152.367" y2="38.396" xlink:href="#l"/><linearGradient id="aa" x1="-161.808" y1="40.407" x2="-161.085" y2="41.175" xlink:href="#l"/><linearGradient id="ab" x1="944.03" y1="-2.696" x2="944.253" y2="1.989" xlink:href="#l"/><linearGradient id="ac" x1="379.459" y1="0.663" x2="379.459" y2="-0.547" xlink:href="#l"/><linearGradient id="ad" x1="0.5" x2="0.5" y2="1" gradientUnits="objectBoundingBox"><stop offset="0" stop-color="#eceff5"/><stop offset="1" stop-color="#fff"/></linearGradient><linearGradient id="ae" x1="32.076" y1="-0.504" x2="31.657" y2="6.434" gradientUnits="objectBoundingBox"><stop offset="0" stop-color="#b2b4eb"/><stop offset="1" stop-color="#a3a6e8"/></linearGradient><linearGradient id="af" x1="431.406" y1="-0.15" x2="430.026" y2="1.505" xlink:href="#ae"/><linearGradient id="ag" x1="435.794" y1="-0.143" x2="435.032" y2="1.677" xlink:href="#ae"/><linearGradient id="ah" x1="440.334" y1="-0.101" x2="439.866" y2="2.015" xlink:href="#ae"/><linearGradient id="ai" x1="445.73" y1="-0.114" x2="443.532" y2="1.474" xlink:href="#ae"/><linearGradient id="aj" x1="450.328" y1="-0.103" x2="448.359" y2="1.498" xlink:href="#ae"/><linearGradient id="ak" x1="455.211" y1="-0.099" x2="452.815" y2="1.481" xlink:href="#ae"/><linearGradient id="al" x1="459.676" y1="-0.077" x2="457.911" y2="1.538" xlink:href="#ae"/><linearGradient id="am" x1="464.125" y1="-0.018" x2="463.065" y2="1.694" xlink:href="#ae"/><linearGradient id="an" x1="33.728" y1="-0.027" x2="33.44" y2="0.192" gradientUnits="objectBoundingBox"><stop offset="0" stop-color="#311944"/><stop offset="1" stop-color="#6165d7"/></linearGradient><linearGradient id="ao" x1="33.402" y1="0.696" x2="32.903" y2="1.347" gradientUnits="objectBoundingBox"><stop offset="0" stop-color="#a3a6e8"/><stop offset="1" stop-color="#a3a6e8"/></linearGradient><linearGradient id="ap" x1="35.45" y1="0.758" x2="34.605" y2="-0.571" xlink:href="#ae"/><linearGradient id="aq" x1="42.582" y1="0.5" x2="43.582" y2="0.5" xlink:href="#an"/></defs><g transform="translate(141.175 30.724)"><path d="M976.268,149.406l141.343-4.784a5.6,5.6,0,0,1,5.856,5.592V406.967a5.444,5.444,0,0,1-5.856,5.458l-141.343-8.038a5.779,5.779,0,0,1-5.289-5.793V155.077A5.619,5.619,0,0,1,976.268,149.406Z" transform="translate(-970.979 -144.618)" fill="url(#a)"/><g transform="translate(20.602)"><path d="M1040.95,339c2.4-29.358-15.63-41.475-8.753-68.074,8.5-32.878,41.195-34.286,52.329-66.527,4.266-12.353,5.952-31.028-6.26-58.217l46.035-1.558a5.594,5.594,0,0,1,5.856,5.592V406.967a5.444,5.444,0,0,1-5.856,5.458l-126.03-7.167C1030.335,380.43,1039.472,357.043,1040.95,339Z" transform="translate(-998.27 -144.618)" fill="url(#b)"/></g><path d="M977.279,153.754l141.343-4.621a2.3,2.3,0,0,1,2.4,2.3V407.883a2.239,2.239,0,0,1-2.4,2.242l-141.343-7.874a2.376,2.376,0,0,1-2.175-2.379V156.084A2.31,2.31,0,0,1,977.279,153.754Z" transform="translate(-971.99 -145.725)" opacity="0.3" fill="url(#c)"/><g transform="translate(28.536 202.171)"><path d="M1012.228,412.432l85.764,3.091a3.83,3.83,0,0,1,3.668,3.794h0a3.5,3.5,0,0,1-3.668,3.522l-85.764-3.3a3.665,3.665,0,0,1-3.448-3.679h0A3.35,3.35,0,0,1,1012.228,412.432Z" transform="translate(-1008.78 -412.43)" opacity="0.6" fill="url(#d)"/><path d="M1012.228,429.188l85.764,3.473a3.851,3.851,0,0,1,3.668,3.811h0a3.482,3.482,0,0,1-3.668,3.5l-85.764-3.687a3.685,3.685,0,0,1-3.448-3.694h0A3.332,3.332,0,0,1,1012.228,429.188Z" transform="translate(-1008.78 -416.537)" opacity="0.6" fill="url(#d)"/><path d="M1012.228,445.944l85.764,3.855a3.872,3.872,0,0,1,3.668,3.827h0a3.464,3.464,0,0,1-3.668,3.488l-85.764-4.07a3.705,3.705,0,0,1-3.448-3.71h0A3.315,3.315,0,0,1,1012.228,445.944Z" transform="translate(-1008.78 -420.643)" opacity="0.6" fill="url(#d)"/></g><g transform="translate(74.696 17.074)"><path d="M1071.688,168.458l43.142-1.221a1.754,1.754,0,0,1,1.816,1.761h0a1.876,1.876,0,0,1-1.816,1.862l-43.142,1.168a1.715,1.715,0,0,1-1.761-1.736h0A1.835,1.835,0,0,1,1071.688,168.458Z" transform="translate(-1069.927 -167.236)" opacity="0.6" fill="url(#g)"/><path d="M1071.688,176.913l43.142-1.127a1.76,1.76,0,0,1,1.816,1.766h0a1.87,1.87,0,0,1-1.816,1.858l-43.142,1.073a1.72,1.72,0,0,1-1.761-1.74h0A1.829,1.829,0,0,1,1071.688,176.913Z" transform="translate(-1069.927 -169.331)" opacity="0.6" fill="url(#g)"/><path d="M1071.688,185.367l43.142-1.031a1.763,1.763,0,0,1,1.816,1.769h0a1.866,1.866,0,0,1-1.816,1.854l-43.142.978a1.724,1.724,0,0,1-1.761-1.744h0A1.825,1.825,0,0,1,1071.688,185.367Z" transform="translate(-1069.927 -171.427)" opacity="0.6" fill="url(#g)"/></g><path d="M1041.764,340.1c2.4-29.354-15.626-41.47-8.751-68.065,8.5-32.874,41.185-34.283,52.317-66.52,4.089-11.842,5.807-29.5-4.825-54.906l44.59-1.458a2.3,2.3,0,0,1,2.4,2.3V407.868a2.239,2.239,0,0,1-2.4,2.242L1002.922,403.3C1031.893,379.6,1040.349,357.393,1041.764,340.1Z" transform="translate(-978.808 -145.728)" fill="#fff" opacity="0.35" style="mix-blend-mode:soft-light;isolation:isolate"/></g><g transform="translate(102.729 25.016)"><g transform="translate(12.535 30)"><g transform="translate(0 -31)"><path d="M942.17,142.049l147.367-4.988a5.833,5.833,0,0,1,6.107,5.831v267.7a5.676,5.676,0,0,1-6.107,5.69L942.17,407.9a6.024,6.024,0,0,1-5.514-6.039v-253.9A5.857,5.857,0,0,1,942.17,142.049Z" transform="translate(-936.656 -137.057)" fill="url(#j)"/><path d="M943.224,146.582l147.367-4.818a2.4,2.4,0,0,1,2.506,2.4V411.544a2.334,2.334,0,0,1-2.506,2.337l-147.367-8.21a2.478,2.478,0,0,1-2.268-2.481V149.012A2.409,2.409,0,0,1,943.224,146.582Z" transform="translate(-937.71 -138.211)" fill="#fff"/><g transform="translate(-5334.829 -706.036)"><path d="M5558.022,847.942l-1-.031-19.9,14.7a27.813,27.813,0,0,1,4.257,15.987l25.629.361A51.893,51.893,0,0,0,5558.022,847.942Z" transform="translate(-109.29 -32.5)" fill="#26264f"/><path d="M5502.981,822.284c4.543,1.664,7.873,4.872,10.915,8.6.024.03.035.1.071.106a4.321,4.321,0,0,0,1,.028l.045-.034,20.765-14.575a48.929,48.929,0,0,0-24.931-17.176l-1-.031Z" transform="translate(-88.773 -3.226)" fill="#26264f"/><path d="M5442.993,797.092l4.991,21.739a28.208,28.208,0,0,1,8.142-1.633,33.706,33.706,0,0,1,8.088,1.27l7.89-23.2a49.389,49.389,0,0,0-14.347-1.276A50.178,50.178,0,0,0,5442.993,797.092Z" transform="translate(-52.719 -0.047)" fill="#26264f"/><path d="M5382.943,821.743l15.91,12.162-.171.639,1,.031a27.726,27.726,0,0,1,10.674-8.411L5404.4,804.4a9.042,9.042,0,0,0-1-.04.125.125,0,0,0-.051.019A52.767,52.767,0,0,0,5382.943,821.743Z" transform="translate(-16.627 -6.323)" fill="#26264f"/><path d="M5357.793,880.736l20.618.32A28.5,28.5,0,0,1,5383,866.21l-16.669-12.775c-1-.031-.863-.065-1-.031-.172.041.554.733.455.894A52.775,52.775,0,0,0,5357.793,880.736Z" transform="translate(-1.511 -35.794)" fill="#26264f"/><path d="M5555.5,848.16l-20.9,14.615a27.726,27.726,0,0,1,4.258,15.963l25.628.4A51.35,51.35,0,0,0,5555.5,848.16Z" transform="translate(-107.776 -32.65)" fill="#aa80f9"/><path d="M5500.468,822.136a26.992,26.992,0,0,1,11.988,8.761l20.812-14.634a49.693,49.693,0,0,0-24.93-17.2Z" transform="translate(-87.262 -3.138)" fill="#c4afed"/><path d="M5440.478,797.014l5.995,21.77a27.364,27.364,0,0,1,8.042-1.406,27.067,27.067,0,0,1,7.263.807l7.813-22.992a49.4,49.4,0,0,0-14.347-1.276A50.182,50.182,0,0,0,5440.478,797.014Z" transform="translate(-51.207)" fill="#dcd9e1"/><path d="M5380.429,821.7l16.745,12.762a28.346,28.346,0,0,1,10.672-8.376l-5.962-21.75A52.333,52.333,0,0,0,5380.429,821.7Z" transform="translate(-15.116 -6.311)" fill="#cc88b2"/><path d="M5355.279,880.726l20.618.32a28.5,28.5,0,0,1,4.588-14.846l-16.669-12.775A52.789,52.789,0,0,0,5355.279,880.726Z" transform="translate(0 -35.814)" fill="#ba2f7d"/><g transform="translate(5379.203 814.782)"><path d="M5444.369,869.1l-26.612-22.689,18.467,30.029Z" transform="translate(-5416.753 -846.383)" fill="#26264f"/><path d="M5458.268,905.185a7.149,7.149,0,0,0,6.924,7.479,7.485,7.485,0,0,0,7.528-7.314,7.14,7.14,0,0,0-7.069-7.481A7.5,7.5,0,0,0,5458.268,905.185Z" transform="translate(-5441.099 -877.309)" fill="#26264f"/><path d="M5465.262,909.589a4.559,4.559,0,0,1,4.5-4.445,4.344,4.344,0,0,1,4.278,4.545,4.554,4.554,0,0,1-4.557,4.445A4.348,4.348,0,0,1,5465.262,909.589Zm.848.01a3.5,3.5,0,0,0,3.4,3.658,3.666,3.666,0,0,0,3.664-3.577,3.5,3.5,0,0,0-3.439-3.659A3.669,3.669,0,0,0,5466.109,909.6Z" transform="translate(-5445.304 -881.681)" fill="url(#k)"/><path d="M5441.854,869.025l-26.612-22.689,18.467,30.029Z" transform="translate(-5415.242 -846.336)" fill="url(#l)"/><path d="M5455.753,905.107a7.15,7.15,0,0,0,6.924,7.479,7.484,7.484,0,0,0,7.528-7.314,7.139,7.139,0,0,0-7.069-7.481A7.5,7.5,0,0,0,5455.753,905.107Z" transform="translate(-5439.588 -877.262)" fill="url(#m)"/><path d="M5462.747,909.511a4.56,4.56,0,0,1,4.5-4.445,4.344,4.344,0,0,1,4.278,4.545,4.555,4.555,0,0,1-4.557,4.445A4.348,4.348,0,0,1,5462.747,909.511Zm.848.01a3.5,3.5,0,0,0,3.4,3.658,3.666,3.666,0,0,0,3.664-3.577,3.5,3.5,0,0,0-3.438-3.658A3.669,3.669,0,0,0,5463.595,909.52Z" transform="translate(-5443.792 -881.634)" fill="#d8dee8"/></g></g></g><g transform="translate(29.752 210.789)"><path d="M979.662,416.286l89.42,3.223a3.993,3.993,0,0,1,3.824,3.956h0a3.65,3.65,0,0,1-3.824,3.671l-89.42-3.446a3.82,3.82,0,0,1-3.594-3.836h0A3.493,3.493,0,0,1,979.662,416.286Z" transform="translate(-976.068 -441.284)" fill="#d8dee8"/><path d="M979.662,433.757l89.42,3.621a4.015,4.015,0,0,1,3.824,3.974h0a3.63,3.63,0,0,1-3.824,3.654l-89.42-3.844a3.842,3.842,0,0,1-3.594-3.852h0A3.473,3.473,0,0,1,979.662,433.757Z" transform="translate(-976.068 -445.566)" fill="#d8dee8"/><path d="M979.662,451.227l89.42,4.019a4.038,4.038,0,0,1,3.824,3.991h0a3.612,3.612,0,0,1-3.824,3.637l-89.42-4.243a3.863,3.863,0,0,1-3.594-3.868h0A3.455,3.455,0,0,1,979.662,451.227Z" transform="translate(-976.068 -449.848)" fill="#d8dee8"/></g></g><g transform="translate(122.392 154.795)"><path d="M1093.778,414.277l70.23,2.124a2.758,2.758,0,0,0,2.877-2.754V386.52a2.916,2.916,0,0,0-2.877-2.887l-61.14-.987a2.687,2.687,0,0,0-2.721,2.715v23.314Z" transform="translate(-1103.778 -382.644)" fill="#646ecb"/><path d="M1115.283,394.978l46.509.956v-3.252l-46.509-.891Z" transform="translate(-1109.049 -384.886)" fill="#fff" opacity="0.67"/><path d="M1115.283,403.421l46.509,1.086v-3.252l-46.509-1.021Z" transform="translate(-1109.049 -386.956)" fill="#fff" opacity="0.67"/><path d="M1115.283,411.865l46.509,1.216v-3.252l-46.509-1.151Z" transform="translate(-1109.049 -389.025)" fill="#fff" opacity="0.67"/></g><g transform="translate(0 149.244)"><path d="M1009.852,341.55l-85.76-1.844a4.007,4.007,0,0,0-4.041,4.094v39.93a4.284,4.284,0,0,0,4.041,4.317l90.39,3.047a4.093,4.093,0,0,0,4.236-4.143V334.757Z" transform="translate(-920.051 -334.757)" fill="#646ecb"/><path d="M1008.206,387.866l-68.762-2.056v4.826l68.762,2.14Z" transform="translate(-924.804 -347.27)" fill="#fff" opacity="0.67"/><path d="M1008.206,374.913l-68.762-1.889v4.826l68.762,1.972Z" transform="translate(-924.804 -344.136)" fill="#fff" opacity="0.67"/><path d="M1008.206,361.96l-68.762-1.722v4.826l68.762,1.805Z" transform="translate(-924.804 -341.002)" fill="#fff" opacity="0.67"/></g><g transform="translate(152.517 137.183)"><path d="M1884.89,525.131s-1.049,27.8,17.308,29.9,15.21-15.21,15.21-15.21l-17.046.918s-10.909-6.282-12.666-14.877Z" transform="translate(-1843.282 -507.823)" fill="#fff"/><path d="M1884.89,525.131s-1.049,27.8,17.308,29.9,15.21-15.21,15.21-15.21l-17.046.918s-10.909-6.282-12.666-14.877Z" transform="translate(-1843.282 -507.823)" fill="#fff"/><path d="M2122.5,975.5s1.826,1.826,1.217,3.043a28.53,28.53,0,0,1-3.651,5.477c-1.217,1.217-1.825,1.826-3.651,1.826s-1.825-3.043,0-3.043,4.26-6.085,4.26-6.085Z" transform="translate(-1998.055 -810.669)" fill="url(#n)"/><path d="M2123.52,960.642l3.042,4.868a1.25,1.25,0,0,1-1.825,1.217l-3.651-3.651Z" transform="translate(-2002.115 -800.676)" fill="#febbba"/><path d="M1963.174,750.713a158.42,158.42,0,0,0,52.335,73.025l3.652-3.043a52.118,52.118,0,0,0-5.478-17.648c-6.313-12.024-13.986-14.544-19.473-24.342-3.024-5.4-5.93-13.983-4.26-27.384Z" transform="translate(-1895.93 -659.512)" fill="#5055d3"/><path d="M1979.042,751.074a13.456,13.456,0,0,0-.677,4.469c.145,6.541,5.182,9.125,7.749,21.033,1.631,7.568-.087,7.992,1.661,12.177,3.629,8.69,12.331,9.956,21.586,16.6a49.256,49.256,0,0,1,8.2,7.461,54.448,54.448,0,0,1,1.6,7.878l-3.652,3.042a158.418,158.418,0,0,1-52.335-73.025Z" transform="translate(-1895.93 -659.512)" opacity="0.3" fill="url(#o)" style="mix-blend-mode:multiply;isolation:isolate"/><path d="M1848.242,982.18a2.162,2.162,0,0,1-1.217,1.826c-1.217.609-7.911-3.043-8.52-4.868s1.825-2.435,3.043-1.217C1843.472,979.844,1848.242,982.18,1848.242,982.18Z" transform="translate(-1812.034 -811.868)" fill="url(#p)"/><path d="M1864.92,968.073l-2.613,6.854s.179,1.057,2,1.057l4.26-4.868Z" transform="translate(-1828.104 -805.673)" fill="#febbba"/><path d="M1884.217,718.745a233.4,233.4,0,0,1-17.648,79.719l4.868,4.26a48.337,48.337,0,0,0,16.431-18.865c3.465-7.385,2.278-10.4,3.234-17.039.132-.919.276-1.747.443-2.559a57.51,57.51,0,0,1,1.8-6.569c1.117-3.239,9.061-16.025,22.55-31.464a20.711,20.711,0,0,0-7.945-8.7C1897.116,711.189,1884.726,718.436,1884.217,718.745Z" transform="translate(-1830.97 -635.455)" fill="#5055d3"/><path d="M1920.809,536.229c-8.4,1.443-14.793,2.944-17.648,7.343-3.015,4.646,1.779,8.144,3.082,18.338,2,15.607-6.977,21.437-4.4,37.152a39.731,39.731,0,0,0,1.749,6.8,16.073,16.073,0,0,0,6.636,8.247,41.61,41.61,0,0,0,8.4,4.062c8.517,2.979,12.718,1.247,24.176,1.9,18.742,1.071,21.548,6.506,30.015,3.164,8.558-3.378,14.751-12.507,12.937-16.408-1.087-2.336-4.516-.877-9.434-3.745-6.338-3.7-5.273-8.741-10.415-13.069-7.386-6.216-14.491.061-20.809-5.344-6.39-5.468-7.153-18.765-4.437-26.68,1.774-5.17,1.807-10.793,3.123-16.1a3.4,3.4,0,0,0-.078-1.941c-1.047-3.049-6.626-3.634-10.843-4.037A48.17,48.17,0,0,0,1920.809,536.229Z" transform="translate(-1854.376 -514.919)" fill="#fff"/><path d="M1971.845,706.768c-2.594-1.729-1.189-6.631-5.032-9.233-3.567-2.415-6.349.743-11.606-.868-6.742-2.067-6.39-8.559-12.851-10.631-4.647-1.49-6.048,1.476-12.75,1.6s-15.461-2.633-21.015-9.725a23.883,23.883,0,0,1-4.4-9.2c-1.789,5.78-3.732,11.367-2.346,19.8a40.078,40.078,0,0,0,2.443,8.621,11.942,11.942,0,0,0,4.239,5.3,41.993,41.993,0,0,0,10.108,5.189c8.516,2.979,12.718,1.247,24.176,1.9,18.742,1.071,21.548,6.506,30.015,3.164a24.306,24.306,0,0,0,12.025-10.655C1977.447,707.419,1973.728,708.023,1971.845,706.768Z" transform="translate(-1854.376 -604.372)" fill="#e5d9fd" opacity="0.9" style="mix-blend-mode:multiply;isolation:isolate"/><path d="M1938.963,492.974s-2.314,4.345-2.46,7.393,3.295,2.827,3.295,2.827l-.129,1.923a4.169,4.169,0,0,1-2.72,3.633l-1.359.5s8.861,1.9,13.7-1.522l-1.394-.137a4.168,4.168,0,0,1-3.741-3.725l-.084-.823S1945.608,493.541,1938.963,492.974Z" transform="translate(-1877.381 -486.199)" fill="#febbba"/><path d="M1943.3,483.387c.458-.038.836-.619,1.15-.447s.292,1.028.006,1.622a2.144,2.144,0,0,1-.83.891,5.628,5.628,0,0,1,.992,2.246c.415,2.2-.756,3.974-1.242,5.01-2.195,4.673,1.219,12.061,4.967,15.792,3.046,3.033,4.467,1.813,6.285,4.29,3.539,4.821-1.345,10.12.485,16.608,2.783,9.866,18.362,12.8,19.007,12.915.255.045.425.073.69.115,6.988,1.11,17.581,2.793,25.041-2.943,5.581-4.291,8.141-11.761,7.718-18.34a21.249,21.249,0,0,0-5.988-13.661c-.85-.851-5.881-5.879-12.679-5.939-3.6-.032-4.327,1.237-7.081.452-3.77-1.074-6.092-4.5-7.533-6.628-2.649-3.911-1.573-4.746-3.479-6.669-3.736-3.768-8.118-.809-12.108-4.135-3.933-3.278-1.56-7.725-5.357-10.563-3.917-2.926-11.408-1.9-13,1.581C1938.969,478.578,1941.9,483.5,1943.3,483.387Z" transform="translate(-1880.337 -472.292)" fill="#444b8c"/><path d="M1875.146,513.986s-2.607-3.725-6.332-3.352,1.862,2.98,2.607,5.214S1878.125,516.593,1875.146,513.986Z" transform="translate(-1831.626 -498.057)" fill="#febbba"/><path d="M1764.357,625.867,1762.784,618l-.582,2.326a.378.378,0,0,1-.74-.038l-.252-1.763s-5.77,1.049-2.1,5.769C1762.167,628.221,1764.357,625.867,1764.357,625.867Z" transform="translate(-1757.89 -570.27)" fill="#febbba"/><path d="M1821.179,553.952h-2.673a4.98,4.98,0,0,0-4.4,2.633c-2.415,4.519-8.171,13.71-17.057,18.346a93.3,93.3,0,0,1-24.651,8.392l-2.549.175s7.794,12.413,28.773,9.79,26.749-17.833,26.749-17.833Z" transform="translate(-1765.934 -527.203)" fill="#fff"/></g><g transform="translate(91.448 268.462)"><g transform="translate(0 6.965)"><g transform="translate(0 1.481)"><path d="M1215.816,431.147c0,4.153-11.429,7.52-25.527,7.52s-25.526-3.367-25.526-7.52c0-.665-.424-3.681.127-4.3,2.887-3.221,13.56-3.225,25.4-3.225,11.964,0,22.538-.214,25.3,3.059C1216.088,427.269,1215.816,430.519,1215.816,431.147Z" transform="translate(-1164.608 -423.624)" fill="#ff9a2e"/></g><g transform="translate(0 1.481)"><path d="M1215.594,426.686c-2.766-3.272-13.341-3.059-25.3-3.059-11.839,0-22.512,0-25.4,3.225-.551.614-.127,3.63-.127,4.3a3.706,3.706,0,0,0,1.854,2.813v-5.1h.8v5.627a20.315,20.315,0,0,0,4.165,1.774v-5.115h.8v5.359c1.265.368,2.662.695,4.165.978v-5.538h.8v5.684q1.977.343,4.165.582v-5.395h.8v5.475c1.488.144,3.037.249,4.632.309v-5.784h.8v5.814q1.252.036,2.538.037c.661,0,1.313-.01,1.961-.024v-5.335h.8v5.314q2.023-.064,3.943-.22v-5.095h.8v5.028c1.66-.15,3.249-.349,4.746-.591v-5.133h.8v5a45.161,45.161,0,0,0,5.325-1.247v-5.217h.8v4.96a18.3,18.3,0,0,0,4.049-1.843v-5.4h.8v4.826a3.415,3.415,0,0,0,1.5-2.539C1215.816,430.519,1216.088,427.269,1215.594,426.686Z" transform="translate(-1164.608 -423.624)" fill="none"/><g transform="translate(2.009 5.236)"><path d="M1166.629,428.891v5.1q.368.268.8.527v-5.627Z" transform="translate(-1166.629 -428.891)" fill="#ef7f18"/></g><g transform="translate(6.976 7.522)"><path d="M1171.625,431.191v5.115c.261.083.528.165.8.244v-5.359Z" transform="translate(-1171.625 -431.191)" fill="#ef7f18"/></g><g transform="translate(11.943 8.321)"><path d="M1176.622,431.995v5.538q.395.075.8.146v-5.684Z" transform="translate(-1176.622 -431.995)" fill="#ef7f18"/></g><g transform="translate(16.909 9.192)"><path d="M1181.618,432.871v5.395c.265.029.533.055.8.081v-5.475Z" transform="translate(-1181.618 -432.871)" fill="#ef7f18"/></g><g transform="translate(22.343 9.192)"><path d="M1187.084,432.871v5.784c.266.011.533.022.8.03v-5.814Z" transform="translate(-1187.084 -432.871)" fill="#ef7f18"/></g><g transform="translate(27.643 9.684)"><path d="M1192.416,433.366V438.7c.268-.006.536-.012.8-.021v-5.314Z" transform="translate(-1192.416 -433.366)" fill="#ef7f18"/></g><g transform="translate(32.389 9.684)"><path d="M1197.19,433.366v5.095c.269-.021.537-.043.8-.067v-5.028Z" transform="translate(-1197.19 -433.366)" fill="#ef7f18"/></g><g transform="translate(37.936 8.987)"><path d="M1202.77,432.665V437.8q.405-.066.8-.135v-5Z" transform="translate(-1202.77 -432.665)" fill="#ef7f18"/></g><g transform="translate(44.062 7.522)"><path d="M1208.933,431.191v5.217q.41-.125.8-.256v-4.96Z" transform="translate(-1208.933 -431.191)" fill="#ef7f18"/></g><g transform="translate(48.912 5.236)"><path d="M1213.812,428.891v5.4a8.591,8.591,0,0,0,.8-.578v-4.826Z" transform="translate(-1213.812 -428.891)" fill="#ef7f18"/></g></g><g transform="translate(0.156)"><path d="M1215.817,427.368c0,2.891-7.5,7.276-25.567,7.238-20.45-.044-25.486-4.347-25.486-7.238s11.429-5.234,25.526-5.234S1215.817,424.477,1215.817,427.368Z" transform="translate(-1164.764 -422.134)" fill="#ffcb48"/></g></g><g transform="translate(5.582)"><g transform="translate(0 1.481)"><path d="M1221.431,424.14c0,4.153-11.429,7.519-25.527,7.519s-25.526-3.366-25.526-7.519c0-.666-.424-3.682.127-4.3,2.887-3.221,13.56-3.224,25.4-3.224,11.964,0,22.539-.214,25.3,3.058C1221.7,420.262,1221.431,423.511,1221.431,424.14Z" transform="translate(-1170.223 -416.617)" fill="#ff9a2e"/></g><g transform="translate(0 1.481)"><path d="M1221.209,419.678c-2.766-3.271-13.341-3.058-25.3-3.058-11.839,0-22.512,0-25.4,3.224-.551.614-.127,3.63-.127,4.3a3.707,3.707,0,0,0,1.854,2.813v-5.1h.8v5.627a20.314,20.314,0,0,0,4.165,1.775v-5.116h.8v5.36c1.266.367,2.663.695,4.165.978v-5.539h.8v5.684c1.318.229,2.709.425,4.165.583v-5.395h.8v5.474c1.488.144,3.037.249,4.632.31v-5.784h.8v5.813q1.253.036,2.538.037c.661,0,1.313-.009,1.961-.024V426.3h.8v5.315q2.025-.064,3.944-.22v-5.1h.8v5.028c1.66-.15,3.248-.349,4.745-.591V425.6h.8v5a44.681,44.681,0,0,0,5.325-1.247v-5.217h.8v4.96a18.3,18.3,0,0,0,4.049-1.842v-5.4h.8v4.826a3.415,3.415,0,0,0,1.5-2.538C1221.431,423.511,1221.7,420.262,1221.209,419.678Z" transform="translate(-1170.223 -416.617)" fill="none"/><g transform="translate(2.009 5.235)"><path d="M1172.244,421.883v5.1q.368.268.8.526v-5.627Z" transform="translate(-1172.244 -421.883)" fill="#ef7f18"/></g><g transform="translate(6.976 7.521)"><path d="M1177.24,424.183V429.3c.262.082.528.164.8.244v-5.36Z" transform="translate(-1177.24 -424.183)" fill="#ef7f18"/></g><g transform="translate(11.942 8.32)"><path d="M1182.236,424.987v5.539c.264.05.531.1.8.145v-5.684Z" transform="translate(-1182.236 -424.987)" fill="#ef7f18"/></g><g transform="translate(16.909 9.192)"><path d="M1187.233,425.864v5.395c.263.029.533.054.8.079v-5.474Z" transform="translate(-1187.233 -425.864)" fill="#ef7f18"/></g><g transform="translate(22.343 9.192)"><path d="M1192.7,425.864v5.784c.266.01.532.021.8.029v-5.813Z" transform="translate(-1192.699 -425.864)" fill="#ef7f18"/></g><g transform="translate(27.643 9.683)"><path d="M1198.031,426.358v5.335c.268-.006.536-.012.8-.02v-5.315Z" transform="translate(-1198.031 -426.358)" fill="#ef7f18"/></g><g transform="translate(32.389 9.683)"><path d="M1202.8,426.358v5.1c.268-.022.536-.044.8-.068v-5.028Z" transform="translate(-1202.805 -426.358)" fill="#ef7f18"/></g><g transform="translate(37.935 8.987)"><path d="M1208.384,425.658v5.133c.27-.044.536-.089.8-.136v-5Z" transform="translate(-1208.384 -425.658)" fill="#ef7f18"/></g><g transform="translate(44.061 7.521)"><path d="M1214.547,424.183V429.4q.412-.125.8-.256v-4.96Z" transform="translate(-1214.547 -424.183)" fill="#ef7f18"/></g><g transform="translate(48.912 5.235)"><path d="M1219.427,421.883v5.4a8.747,8.747,0,0,0,.8-.579v-4.826Z" transform="translate(-1219.427 -421.883)" fill="#ef7f18"/></g></g><g transform="translate(0.156)"><path d="M1221.432,420.36c0,2.891-7.5,7.276-25.568,7.238-20.45-.043-25.486-4.347-25.486-7.238s11.429-5.233,25.526-5.233S1221.432,417.47,1221.432,420.36Z" transform="translate(-1170.379 -415.127)" fill="#ffcb48"/></g></g></g></g><g transform="translate(0 123.87)"><path d="M934.235,496.244s9.367,4.284,9.518,4.965-6.029-.242-8.555-.151-4.6-.659-4.368-1.727,1.121-3.756,1.121-3.756Z" transform="translate(-859.959 -323.783)" fill="url(#q)"/><path d="M934.682,491.714l-.58,4.221a3.309,3.309,0,0,1-2.481-.1l-.415-4.631Z" transform="translate(-860.056 -322.711)" fill="#febbba"/><path d="M876.852,491.875l-1.095,1.748a2.09,2.09,0,0,0-.254,1.637c.378,1.457,1.133,4.3,1.464,5.037.45,1.009,6.517,1.622,6.517,1.622s.543-.76-.715-1.683-2.068-1.069-2.509-2.428a35.473,35.473,0,0,1-.729-5.2Z" transform="translate(-846.387 -322.876)" fill="url(#r)"/><path d="M881.746,485.828c-.4.316-2.362,6.227-2.362,6.227s-.633.805-1.829-.388-.541-.535-.541-.535l.239-5.818Z" transform="translate(-846.73 -321.268)" fill="#febbba"/><path d="M935.659,377.618c.464,12.595.451,26.278-.309,40.894-.855,16.458-2.531,31.668-4.631,45.454-.768.023-1.575.024-2.419,0-.569-.017-1.121-.047-1.654-.085a104.857,104.857,0,0,1-3.448-11.12,106.791,106.791,0,0,1-2.395-13.017c-1.772-14.269.347-15.509-1.093-26.083-1.275-9.366-3.12-9.736-5.255-23.034-2.316-14.429-.561-16.588.292-17.368C918.38,369.94,926.884,372.225,935.659,377.618Z" transform="translate(-855.668 -293.425)" fill="#5055d3"/><path d="M914.749,373.259c3.463-3.166,11.361-1.225,19.7,3.639-9.627,10.351-10.69,17.079-9.549,21.448,1.289,4.939,5.241,6.369,5.213,11.766-.034,6.632-6.024,8.374-5.913,15.392.073,4.64,2.7,4.6,3.31,10.332.719,6.784-2.723,9.112-1.622,14.132.473,2.16,1.834,4.984,5.718,7.9-.285,2.06-.578,4.1-.882,6.1-.768.023-1.575.025-2.419,0-.569-.017-1.121-.046-1.654-.084a104.853,104.853,0,0,1-3.448-11.12,106.791,106.791,0,0,1-2.395-13.017c-1.772-14.269.347-15.509-1.093-26.083-1.275-9.366-3.12-9.736-5.255-23.033C912.14,376.2,913.9,374.038,914.749,373.259Z" transform="translate(-855.668 -293.425)" opacity="0.2" fill="url(#s)" style="mix-blend-mode:multiply;isolation:isolate"/><path d="M920.144,376.948a282.778,282.778,0,0,0-38.967,82.884,5.056,5.056,0,0,1-2.769.423,5.154,5.154,0,0,1-3.131-1.7,81.47,81.47,0,0,1-.67-20.083,69.187,69.187,0,0,1,2.86-15.087c2.3-7.357,3.87-7.766,6.867-15.549,3.11-8.078,2.366-10.1,5.351-20.207a133.441,133.441,0,0,1,6.653-17.724Z" transform="translate(-846.102 -292.981)" fill="#5055d3"/><path d="M950.51,342.326c-.079,2.939-4.908,5.527-8.8,6.322-9.094,1.856-19.636-4.751-24.641-12.061-.982-1.435-2.074-3.175-2.337-3.04-.595.3,4.871,9.287,7.242,19.5,1.213,5.226.9,7.674,3.162,11.153.513.789,1.147,1.609.924,2.542-.557,2.335-5.9,2.942-9.6,3.362a85.451,85.451,0,0,1-11.164.348c-5.772-.084-6.226-.384-7.544.263-4.015,1.97-3.743,6.691-6.764,7.321-2.537.528-5.111-2.3-5.927-3.2-4.242-4.669-4.015-10.3-4.767-15.977-1.749-13.2-8.921-27.664-15.937-36.82-2.128-2.777-3.608-4.237-3.7-6.818-.272-7.575,11.73-15.937,21.722-16.9a75.033,75.033,0,0,1,12.241.253c1.838.173,3.794.428,5.9.8,5.1.892,8.65,1.513,12.268,3.168,14.589,6.675,11.405,21.533,27.195,31.807C945.409,337.877,950.592,339.248,950.51,342.326Z" transform="translate(-842.763 -275.4)" fill="#fff"/><path d="M897.211,287.96a21.713,21.713,0,0,1-2.069,5.986c-1.3,2.25-6.693,3.056-7.815,3.448s1.694,2.347,4.689,3.056,11.758,1.172,13.474.23-1.114-1.231-3.176-2.315-2.75-5.488-2.112-7.361S897.211,287.96,897.211,287.96Z" transform="translate(-849.239 -272.897)" fill="#fea29f"/><g transform="translate(45.466 7.247)"><path d="M905.383,284.41c2.173-1.554,2.776-5.755,1.568-6.7-.345-.269-.674-.146-5.58,1.822-2.436.978-3.634,1.5-4.029,2.574a3.416,3.416,0,0,0,.064,2.243,8.6,8.6,0,0,0,1,1.662c.527.758.492.732.653.953a11.945,11.945,0,0,0,2.509,2.455,8.371,8.371,0,0,1,.4-1.39,7.332,7.332,0,0,1,.889-1.651A8.294,8.294,0,0,1,905.383,284.41Z" transform="translate(-897.182 -277.607)" fill="url(#t)"/><path d="M900.133,290.239a4.514,4.514,0,0,0,4.057,1.831c2.358-.257,2.473-5.577.913-6.636a2.991,2.991,0,0,0-2.348-.2c-.479.157-.634.366-1.422.607-.726.223-.938.15-1.151.347-.267.245-.445.827.086,2.357a1.289,1.289,0,0,0-1.4-.391.813.813,0,0,0-.3.321C898.266,289.1,898.853,289.845,900.133,290.239Z" transform="translate(-897.503 -279.44)" fill="#febbba"/></g><path d="M954.526,351.189c-6.594-1.485-9.22-1.437-12.481-4.064-5.428-4.374-6.244-11.031-9.4-10.949-1.491.038-2.7,1.56-3.564,3.051l2.382,3.731c0-.048.014-.084.041-.1.263-.135,1.355,1.6,2.337,3.04,5,7.31,15.547,13.917,24.641,12.061a15.8,15.8,0,0,0,7.369-3.584A112.46,112.46,0,0,0,954.526,351.189Z" transform="translate(-859.536 -284.714)" opacity="0.3" fill="url(#u)" style="mix-blend-mode:multiply;isolation:isolate"/><path d="M977.012,363.041a25.422,25.422,0,0,0,5.937-1.318c2.217-.949,3.649.413,3.445,1.356s-3.851,2.256-5.308,2.3S977.012,363.041,977.012,363.041Z" transform="translate(-871.283 -290.897)" fill="url(#v)"/><path d="M862.558,368.513c-3.994.356-12.986.519-19.345-5.364-10.587-9.794-5.335-28.436-1.649-36.454,4.225-9.192,10.95-14.338,15.036-17.465,5.07-3.879,8.165-6.248,11.888-5.717,9.629,1.371,16.3,21.105,11.011,26.755-1.73,1.85-3.444.8-8.452,2.4-1.631.519-13.8,4.4-15.922,13.362-1.483,6.274,2.293,13.621,9.014,18.556Z" transform="translate(-836.955 -276.691)" fill="#fff"/><path d="M909.765,371.4c-4.522-2.858-5.191-5.754-10.255-7.711-6.578-2.542-9.74.687-13-1.92-3.882-3.1-.445-8.509-3.35-17.891-.493-1.592-4.237-13.687-12.83-15.229-4.006-.718-9.3.817-11.337,4.212-1.6,2.657-.109,4.638-2.049,7.571s-4.258,2.215-6.729,4.66c-3.925,3.882-4.526,12.069-.983,16.7,1.653,2.159,3.8,3.013,7.841,4.62a38.088,38.088,0,0,0,6.739,1.979c-4.948-4.749-7.516-10.874-6.251-16.224,1.321-5.589,6.548-9.2,10.693-11.253,4.148,7.806,7.538,16.852,8.668,25.374.752,5.678.525,11.308,4.767,15.977.816.9,3.39,3.732,5.927,3.2,3.021-.63,2.749-5.351,6.764-7.321,1.317-.647,1.772-.347,7.544-.263a85.437,85.437,0,0,0,11.164-.348c3.3-.374,7.875-.9,9.242-2.652A24.082,24.082,0,0,1,909.765,371.4Z" transform="translate(-839.39 -282.827)" opacity="0.3" fill="url(#w)" style="mix-blend-mode:multiply;isolation:isolate"/><g transform="translate(27.543)"><path d="M874.123,382.963l-.466-1.369a4.058,4.058,0,0,1,2.723-5.194L964.4,349.587l2.682,9.09-87.578,26.976A4.346,4.346,0,0,1,874.123,382.963Z" transform="translate(-873.44 -288.002)" fill="url(#x)"/><path d="M1046.188,366.021c-25.217,8.173-52.241-6.118-60.121-32.608-8.07-27.127,7.136-55.906,33.7-63.553,26.081-7.51,52.453,8.514,59.184,35.1C1085.524,330.945,1070.97,357.989,1046.188,366.021Zm-2.034-7.406c20.925-6.723,33.191-29.546,27.574-51.442-5.727-22.324-27.92-35.662-49.764-29.308-22.18,6.452-34.9,30.5-28.235,53.2C1000.266,353.321,1022.918,365.438,1044.154,358.615Z" transform="translate(-900.515 -268.006)" fill="url(#y)"/><path d="M964.4,349.587l-11.223,3.419a11.661,11.661,0,0,1-3.775,6.879c-5.669,4.7-13.239-.426-23.8,5.084-5.3,2.765-4.292,4.525-9.26,6.454-8.213,3.189-11.972-1.229-19.239,1.674-7.351,2.937-8.076,9.283-12.245,9.055-1.784-.1-4.079-1.394-6.64-6.314l-1.841.561a4.058,4.058,0,0,0-2.723,5.194l.466,1.369a4.345,4.345,0,0,0,5.385,2.69l87.578-26.975Z" transform="translate(-873.44 -288.002)" fill="#d8dee8" opacity="0.3" style="mix-blend-mode:multiply;isolation:isolate"/><path d="M1048.923,365.19c-21.965,7.068-45.416-5.449-52.2-28.479-6.922-23.51,6.256-48.417,29.233-55.089,22.618-6.568,45.576,7.259,51.489,30.363C1083.241,334.63,1070.556,358.228,1048.923,365.19Z" transform="translate(-903.205 -270.942)" fill="#fff" opacity="0.56"/><path d="M1048.447,369.042c-25.217,8.173-52.241-6.118-60.122-32.609-8.07-27.127,7.136-55.9,33.7-63.552,26.082-7.51,52.454,8.514,59.184,35.1C1087.782,333.966,1073.228,361.01,1048.447,369.042Zm-2.035-7.406c20.925-6.723,33.191-29.546,27.574-51.441-5.728-22.324-27.92-35.663-49.765-29.308-22.179,6.453-34.9,30.5-28.235,53.2C1002.525,356.342,1025.177,368.458,1046.412,361.635Z" transform="translate(-901.068 -268.747)" fill="url(#z)"/><path d="M1048.655,367.38c-23.812,7.693-49.287-5.833-56.69-30.826-7.569-25.559,6.757-52.657,31.763-59.884,24.58-7.1,49.477,7.966,55.855,33.045C1085.825,334.256,1072.078,359.811,1048.655,367.38Zm-1.317-4.793c20.925-6.723,33.191-29.546,27.574-51.441-5.727-22.324-27.92-35.663-49.764-29.308-22.179,6.453-34.9,30.5-28.235,53.2C1003.451,357.294,1026.1,369.41,1047.338,362.587Z" transform="translate(-901.995 -269.698)" fill="url(#aa)"/></g><path d="M871.32,387.383l.89-2.211a4.553,4.553,0,0,0,2.644-.766,3.438,3.438,0,0,1,2.136-.511c.335.093,1.6.038.159.725s-1.431,1.2-.83,1.763a10.457,10.457,0,0,0,3.71,1.837c.824.059-.665,1.332-1.495,1.495a5.126,5.126,0,0,1-3.876-.624C874.045,388.73,871.32,387.383,871.32,387.383Z" transform="translate(-845.378 -296.404)" fill="#febbba"/><g transform="translate(45.364 28.036)"><path d="M902.719,305.421a3.49,3.49,0,0,1-1.772,3.4,3,3,0,0,1-1.82.21l-2.08-3.889q1.117.108,2.308.178C900.524,305.39,901.647,305.421,902.719,305.421Z" transform="translate(-897.047 -305.145)" fill="url(#ab)"/><path d="M901.711,309.623s2.338,26.242,10.53,30.443c-.21.84,0,7.667,0,7.667s-7.637-2.3-8.072-2.147-9.249-14.457-4.776-35.454Z" transform="translate(-897.313 -306.242)" fill="url(#ac)"/></g></g><g transform="translate(206.444 41.988)"><g transform="translate(0)"><path d="M1194.547,184.773v60.69a3.485,3.485,0,0,1-3.267,3.657l-109.513.3a3.362,3.362,0,0,1-3.132-3.562v-59.4Z" transform="translate(-1078.634 -177.121)" fill="url(#ad)"/><path d="M1081.766,178.514l109.513-1.753a3.407,3.407,0,0,1,3.267,3.6v6.219l-115.913,1.646v-6.087A3.439,3.439,0,0,1,1081.766,178.514Z" transform="translate(-1078.634 -176.761)" fill="url(#ae)"/><path d="M1192.148,181.843a1.514,1.514,0,0,0,1.449,1.6,1.57,1.57,0,0,0,1.451-1.642,1.514,1.514,0,0,0-1.451-1.6A1.571,1.571,0,0,0,1192.148,181.843Z" transform="translate(-1083.735 -176.915)" fill="#fff"/></g><g transform="translate(13.781 18.646)"><path d="M1176.324,241.749l8.3-.035v-45.43l-8.3.1Z" transform="translate(-1096.805 -196.284)" fill="#fff"/><path d="M1176.324,242.872l8.3-.035V221.267l-8.3.068Z" transform="translate(-1096.805 -197.406)" fill="url(#af)"/><path d="M1164.278,241.8l8.264-.035V196.436l-8.264.1Z" transform="translate(-1096.263 -196.29)" fill="#fff"/><path d="M1164.278,243.431l8.264-.035V232.634l-8.264.051Z" transform="translate(-1096.263 -197.917)" fill="url(#ag)"/><path d="M1152.283,241.86l8.229-.035V196.587l-8.229.1Z" transform="translate(-1095.724 -196.297)" fill="#fff"/><path d="M1152.283,243.723l8.229-.035V238.05l-8.229.043Z" transform="translate(-1095.724 -198.16)" fill="url(#ah)"/><path d="M1140.339,241.915l8.194-.035V196.738l-8.194.1Z" transform="translate(-1095.188 -196.304)" fill="#fff"/><path d="M1140.339,242.375l8.194-.035V206.977l-8.194.088Z" transform="translate(-1095.188 -196.764)" fill="url(#ai)"/><path d="M1128.445,241.969l8.16-.034V196.889l-8.16.1Z" transform="translate(-1094.653 -196.311)" fill="#fff"/><path d="M1128.445,242.617l8.16-.034V211.3l-8.16.082Z" transform="translate(-1094.653 -196.958)" fill="url(#aj)"/><path d="M1116.6,242.024l8.125-.034V197.039l-8.126.1Z" transform="translate(-1094.121 -196.317)" fill="#fff"/><path d="M1116.6,242.331l8.125-.034V203.882l-8.126.092Z" transform="translate(-1094.121 -196.625)" fill="url(#ak)"/><path d="M1104.808,242.078l8.091-.034V197.188l-8.091.1Z" transform="translate(-1093.591 -196.324)" fill="#fff"/><path d="M1104.808,242.892l8.091-.034V215.305l-8.091.076Z" transform="translate(-1093.591 -197.138)" fill="url(#al)"/><path d="M1093.063,242.132l8.057-.034V197.336l-8.057.1Z" transform="translate(-1093.063 -196.331)" fill="#fff"/><path d="M1093.063,243.507l8.057-.034V227.932l-8.057.058Z" transform="translate(-1093.063 -197.706)" fill="url(#am)"/></g></g><g transform="translate(66.622)"><path d="M922.337,227.008a12.865,12.865,0,0,0,7-1.811,135.344,135.344,0,0,0,24.325-18.436c10.778-10.507,16.972-21.188,18.327-31.676l.021-.165.263-44.751c0-8.844-5.769-16.024-16.6-20.742-8.948-3.9-20.808-5.829-33.337-5.465-12.383.359-23.843,2.913-32.324,7.171-10.082,5.061-15.372,12.174-15.372,20.606l.24,42.761.02.157c1.238,10.043,6.936,20.425,17.006,30.923a140.453,140.453,0,0,0,23.475,19.227A13.323,13.323,0,0,0,922.337,227.008Z" transform="translate(-872.814 -103.919)" fill="url(#an)"/><path d="M919.286,227.008a12.567,12.567,0,0,0,6.909-1.811,133.747,133.747,0,0,0,24-18.436c10.636-10.507,16.747-21.188,18.084-31.676l.021-.165.26-44.751c0-8.844-5.693-16.024-16.38-20.742-8.83-3.9-20.533-5.829-32.9-5.465-12.22.359-23.527,2.913-31.9,7.171-9.95,5.061-15.169,12.174-15.169,20.606l.236,42.761.02.157c1.221,10.043,6.844,20.425,16.782,30.923a138.967,138.967,0,0,0,23.164,19.227A13.028,13.028,0,0,0,919.286,227.008Z" transform="translate(-872.221 -103.919)" fill="url(#ao)"/><path d="M966.067,131.093l-.261,44.526c-2.93,22.719-29.63,41.112-41.258,48.1a10.264,10.264,0,0,1-10.9-.294c-11.385-7.492-36.622-26.353-39.319-48.2l-.239-42.643C874.092,100.95,966.067,98.057,966.067,131.093Z" transform="translate(-872.679 -104.811)" fill="url(#ap)"/><path d="M921.731,219.555a1.586,1.586,0,0,0,.862-.228,126.376,126.376,0,0,0,22.143-16.9c8.721-8.567,13.751-16.9,14.9-24.719l.256-43.789c-.011-4.2-3.337-7.8-9.856-10.674-7.278-3.212-17.613-4.9-28.31-4.643-10.59.251-20.624,2.383-27.575,5.833-6.148,3.051-9.257,6.648-9.268,10.7l.239,42.272c1.077,7.57,5.8,15.731,14.087,24.31a131.28,131.28,0,0,0,21.656,17.57A1.644,1.644,0,0,0,921.731,219.555Z" transform="translate(-875.326 -107.51)" fill="url(#aq)"/><path d="M924.066,217.46A122.826,122.826,0,0,0,945,201.348c8.2-8.066,12.939-15.806,14.054-22.969l.255-43.534c-.008-3-2.769-5.759-8.187-8.157-6.894-3.053-16.772-4.661-27.056-4.43-10.186.229-19.787,2.241-26.384,5.5-5.127,2.536-7.72,5.3-7.727,8.233l.238,42.117c1.046,6.949,5.52,14.549,13.344,22.631A127.559,127.559,0,0,0,924.066,217.46Z" transform="translate(-876.567 -108.408)" fill="#f4f7fa"/><g transform="translate(25.971 25.902)"><g transform="translate(3.446 22.676)"><rect width="38.554" height="33.553" rx="12.874" fill="#ff9a2e"/></g><g transform="translate(0 22.676)"><rect width="37.404" height="33.553" rx="12.874" fill="#ffcb48"/></g><g transform="translate(14.034 29.71)"><path d="M984.256,180.731l-2.423-7.449a.306.306,0,0,1,.146-.358,3.8,3.8,0,0,0,1.932-3.339,4.336,4.336,0,0,0-8.618.09,3.843,3.843,0,0,0,2.142,3.366.278.278,0,0,1,.144.339l-2.637,7.375a.221.221,0,0,0,.229.283H984A.246.246,0,0,0,984.256,180.731Z" transform="translate(-974.931 -165.78)" fill="#ff9a2e"/><g transform="translate(1.749 0.422)"><path d="M982.035,173.318a.355.355,0,0,1,.138-.4,3.856,3.856,0,0,0,1.569-4.459,3.423,3.423,0,0,0-6.62.819c-.01.111-.014.226-.014.34a3.881,3.881,0,0,0,2.023,3.4.209.209,0,0,1,.1.249l-2.542,7.779h7.382a.205.205,0,0,0,.2-.263Z" transform="translate(-976.69 -166.205)" fill="#3b2b5b"/></g></g><g transform="translate(7.26)"><path d="M995.886,158.569h-3.894v-8.575a9.994,9.994,0,1,0-19.983,0v8.575h-3.893v-8.575a13.886,13.886,0,1,1,27.769,0Z" transform="translate(-968.117 -135.893)" fill="#aacbe8"/></g><g transform="translate(8.731 1.853)"><path d="M970.072,154.5c-.154-.976-.245-1.951-.34-2.927l-.113-1.463c-.019-.245-.013-.5-.018-.755s-.017-.511.009-.763a12,12,0,0,1,1.934-5.778,11.841,11.841,0,0,1,4.592-4.009,10.486,10.486,0,0,1,5.875-.949,14.572,14.572,0,0,0-5.353,1.91,13.365,13.365,0,0,0-3.956,3.819,13.557,13.557,0,0,0-2.008,5.126c-.07.462-.11.925-.167,1.4l-.114,1.463C970.317,152.545,970.225,153.52,970.072,154.5Z" transform="translate(-969.597 -137.757)" fill="#d5eaf5"/></g></g></g></svg>