<svg xmlns="http://www.w3.org/2000/svg" viewBox="0 0 103 28.41"><defs><style>.cls-1{fill:#fff;}</style></defs><title>Logo_MiDC_White</title><g id="Capa_2" data-name="Capa 2"><g id="Diseño"><path class="cls-1" d="M21.31,0H7.1A7.13,7.13,0,0,0,0,7.1V21.31a7.13,7.13,0,0,0,7.1,7.1H21.31a7.13,7.13,0,0,0,7.1-7.1V7.1A7.13,7.13,0,0,0,21.31,0ZM17.93,18.69a.29.29,0,0,1-.3.3h-1a.29.29,0,0,1-.29-.3V14.44c0-1.14-.5-1.71-1.49-1.71a1.5,1.5,0,0,0-1.52,1.63v4.33a.29.29,0,0,1-.3.3h-1a.29.29,0,0,1-.29-.3V14.44c0-1.14-.5-1.71-1.49-1.71a1.48,1.48,0,0,0-1.53,1.63v4.33a.29.29,0,0,1-.29.3h-1a.29.29,0,0,1-.29-.3v-7a.28.28,0,0,1,.29-.29h1a.28.28,0,0,1,.29.29V12a2.55,2.55,0,0,1,1.91-.74,2.45,2.45,0,0,1,2.15,1,2.87,2.87,0,0,1,2.35-1,2.59,2.59,0,0,1,2.74,2.88Zm3.2,0a.29.29,0,0,1-.29.3h-1a.29.29,0,0,1-.29-.3v-7a.28.28,0,0,1,.29-.29h1a.28.28,0,0,1,.29.29Zm0-8.91a.29.29,0,0,1-.3.29h-1a.29.29,0,0,1-.3-.29V8.67a.29.29,0,0,1,.3-.29h1a.29.29,0,0,1,.3.29Z"/><path class="cls-1" d="M37.63,8.12h.84V18.63h-.84V17.7a2.43,2.43,0,0,1-2.3,1c-2,0-3-1.27-3-3.36v-1.1c0-2.16,1.08-3.33,3-3.33A2.42,2.42,0,0,1,37.63,12Zm0,7.25V14.28c0-1.56-.61-2.58-2.24-2.58-1.45,0-2.19.9-2.19,2.56v1.1c0,1.6.71,2.59,2.19,2.59C37.1,18,37.63,16.87,37.63,15.37Z"/><path class="cls-1" d="M43.34,14.31h2.23v-1c0-1.29-.52-1.64-1.92-1.64-.92,0-1.51.06-2,.87L41,12.14a2.66,2.66,0,0,1,2.65-1.21c1.86,0,2.75.57,2.75,2.43v5.27h-.84v-.94a2.17,2.17,0,0,1-2.17,1c-1.69,0-2.65-.8-2.65-2.26S41.77,14.31,43.34,14.31Zm2.23.74H43.34c-1.31,0-1.75.61-1.75,1.42,0,1.07.75,1.46,1.81,1.46,1.24,0,2.17-.42,2.17-2.13Z"/><path class="cls-1" d="M47.87,11h1V9.34h.84V11h1.88v.77H49.68v4.27c0,1.22.14,1.77,1.37,1.77h.51v.8H51c-1.69,0-2.18-.76-2.18-2.34v-4.5h-1Z"/><path class="cls-1" d="M55.29,14.31h2.22v-1c0-1.29-.52-1.64-1.92-1.64-.91,0-1.51.06-2,.87L53,12.14a2.65,2.65,0,0,1,2.65-1.21c1.86,0,2.74.57,2.74,2.43v5.27h-.84v-.94a2.16,2.16,0,0,1-2.16,1c-1.69,0-2.65-.8-2.65-2.26S53.72,14.31,55.29,14.31Zm2.22.74H55.29c-1.31,0-1.75.61-1.75,1.42,0,1.07.74,1.46,1.81,1.46,1.23,0,2.16-.42,2.16-2.13Z"/><path class="cls-1" d="M66.62,17.49A2.85,2.85,0,0,1,64,18.72c-2,0-3.21-1.21-3.21-3.36v-1.1c0-2.16,1.2-3.33,3.21-3.33a3,3,0,0,1,2.58,1.17l-.67.46A2.33,2.33,0,0,0,64,11.7a2.24,2.24,0,0,0-2.37,2.56v1.1c0,1.51.7,2.59,2.37,2.59A2.15,2.15,0,0,0,66,17Z"/><path class="cls-1" d="M68.78,14.05v4.58H68V11h.83v1a1.94,1.94,0,0,1,1.92-1.12A2.48,2.48,0,0,1,72.85,12l-.7.51a1.79,1.79,0,0,0-1.52-.77C69.44,11.72,68.78,12.66,68.78,14.05Z"/><path class="cls-1" d="M74.3,15v.32c0,1.51.7,2.59,2.31,2.59a2.15,2.15,0,0,0,2-.93l.67.47a2.82,2.82,0,0,1-2.61,1.23c-2,0-3.2-1.24-3.2-3.36v-1.1c0-2.16,1-3.33,2.94-3.33s2.94,1.17,2.94,3.33V15Zm0-.76h4.2v0c0-1.66-.71-2.56-2.1-2.56s-2.1.92-2.1,2.56ZM77,7.59h1L76.61,10h-.8Z"/><path class="cls-1" d="M86.11,8.12h.83V18.63h-.83V17.7a2.43,2.43,0,0,1-2.3,1c-2,0-3-1.27-3-3.36v-1.1c0-2.16,1.09-3.33,3-3.33A2.42,2.42,0,0,1,86.11,12Zm0,7.25V14.28c0-1.56-.61-2.58-2.24-2.58-1.45,0-2.2.9-2.2,2.56v1.1c0,1.6.72,2.59,2.2,2.59C85.57,18,86.11,16.87,86.11,15.37Z"/><path class="cls-1" d="M89.21,8.12h1v1h-1Zm.1,2.9h.83v7.61h-.83Z"/><path class="cls-1" d="M91.83,11h1V9.34h.84V11h1.87v.77H93.65v4.27c0,1.22.13,1.77,1.37,1.77h.5v.8H95c-1.69,0-2.18-.76-2.18-2.34v-4.5h-1Z"/><path class="cls-1" d="M99.91,18.72c-2,0-3.09-1.21-3.09-3.35V14.26c0-2.16,1.14-3.33,3.09-3.33S103,12.1,103,14.26v1.11C103,17.45,102,18.72,99.91,18.72Zm2.25-4.46c0-1.66-.81-2.56-2.25-2.56s-2.26.9-2.26,2.56v1.11c0,1.6.72,2.58,2.26,2.58s2.25-1,2.25-2.58Z"/></g></g></svg>