<?xml version="1.0" encoding="utf-8"?>
<!-- Generator: Adobe Illustrator 23.0.2, SVG Export Plug-In . SVG Version: 6.00 Build 0)  -->
<svg version="1.1" id="Capa_1" xmlns="http://www.w3.org/2000/svg" xmlns:xlink="http://www.w3.org/1999/xlink" x="0px" y="0px"
	 viewBox="0 0 120 22" style="enable-background:new 0 0 120 22;" xml:space="preserve">
<style type="text/css">
	.st0{fill:#FFFFFF;}
</style>
<g>
	<g>
		<path class="st0" d="M10.94,5.38H8.52c-0.72,0-1.3-0.58-1.3-1.29v-2.4c0-0.71,0.58-1.29,1.3-1.29h2.42c0.72,0,1.3,0.58,1.3,1.29
			v2.4C12.24,4.81,11.65,5.38,10.94,5.38"/>
		<path class="st0" d="M4.68,10.77H1.96c-0.81,0-1.46-0.65-1.46-1.45V6.61c0-0.8,0.66-1.46,1.46-1.46h2.72
			c0.81,0,1.46,0.65,1.46,1.46v2.71C6.15,10.12,5.49,10.77,4.68,10.77"/>
		<path class="st0" d="M4.42,16.39H2.76c-0.49,0-0.9-0.4-0.9-0.89v-1.65c0-0.49,0.4-0.89,0.9-0.89h1.66c0.49,0,0.89,0.4,0.89,0.89
			v1.65C5.32,15.99,4.92,16.39,4.42,16.39"/>
		<path class="st0" d="M8.88,21.61H6.92c-0.58,0-1.06-0.47-1.06-1.05V18.6c0-0.58,0.47-1.05,1.06-1.05h1.96
			c0.58,0,1.06,0.47,1.06,1.05v1.95C9.94,21.14,9.47,21.61,8.88,21.61"/>
		<path class="st0" d="M16.08,6.37h-1.36c-0.4,0-0.73-0.33-0.73-0.73V4.29c0-0.4,0.33-0.73,0.73-0.73h1.36
			c0.4,0,0.73,0.33,0.73,0.73v1.35C16.81,6.04,16.48,6.37,16.08,6.37"/>
		<g>
			<path class="st0" d="M102.53,7.73c-0.34,0-0.62,0.28-0.62,0.62c0,0.34,0.28,0.62,0.62,0.62s0.62-0.28,0.62-0.62
				C103.15,8.01,102.88,7.73,102.53,7.73z M87.05,9.67c-0.79,0-1.53,0.3-2.07,0.79v-0.25c0-0.26-0.24-0.49-0.52-0.49
				c-0.25,0-0.5,0.23-0.5,0.49v7.48c0,0.26,0.25,0.49,0.5,0.49c0.28,0,0.52-0.23,0.52-0.49v-2.64c0.54,0.49,1.27,0.79,2.07,0.79
				c1.73,0,3.11-1.37,3.11-3.07C90.16,11.05,88.78,9.67,87.05,9.67z M87.05,14.82c-1.15,0-2.07-0.91-2.07-2.06
				c0-1.16,0.91-2.07,2.07-2.07c1.17,0,2.08,0.91,2.08,2.07C89.13,13.91,88.22,14.82,87.05,14.82z M83.15,10.26
				c0-0.17-0.08-0.35-0.24-0.43c-0.08-0.05-0.17-0.07-0.26-0.07c-0.17,0-0.34,0.07-0.43,0.22l-1.19,1.85l-1.18-1.85
				c-0.1-0.14-0.26-0.22-0.43-0.22c-0.1,0-0.18,0.02-0.26,0.07c-0.16,0.08-0.24,0.26-0.24,0.43c0,0.08,0.02,0.18,0.07,0.25
				l1.44,2.26l-1.44,2.26c-0.05,0.07-0.07,0.15-0.07,0.24c0,0.18,0.1,0.36,0.23,0.44c0.08,0.05,0.19,0.07,0.29,0.07
				c0.17,0,0.32-0.07,0.42-0.21l1.18-1.84l1.19,1.84c0.1,0.14,0.25,0.21,0.42,0.21c0.1,0,0.2-0.02,0.29-0.07
				c0.13-0.08,0.23-0.26,0.23-0.44c0-0.08-0.02-0.17-0.07-0.24l-1.44-2.26l1.44-2.26C83.12,10.44,83.15,10.34,83.15,10.26z
				 M75.53,9.67c-1.73,0-3.11,1.37-3.11,3.07c0,1.72,1.38,3.09,3.11,3.09c0.83,0,1.6-0.32,2.15-0.87c0.11-0.1,0.18-0.24,0.18-0.38
				c0-0.27-0.24-0.51-0.52-0.51c-0.16,0-0.3,0.1-0.41,0.2c-0.35,0.37-0.87,0.54-1.41,0.54c-1.03,0-1.87-0.7-2.05-1.68h4.64
				c0,0,0.01,0,0.01,0h0.01c0.01,0,0.02,0,0.03-0.01c0.02,0,0.04-0.01,0.05-0.01c0.22-0.06,0.4-0.27,0.4-0.53
				C78.6,11.01,77.19,9.67,75.53,9.67z M73.55,12.11c0.26-0.83,1.04-1.42,1.98-1.42c0.93,0,1.71,0.59,1.97,1.42H73.55z M102.54,9.72
				c-0.28,0-0.52,0.23-0.52,0.49v5.09c0,0.26,0.24,0.49,0.52,0.49c0.25,0,0.5-0.23,0.5-0.49v-5.09
				C103.04,9.95,102.79,9.72,102.54,9.72z M93.99,9.67c-1.73,0-3.11,1.37-3.11,3.07c0,1.72,1.38,3.09,3.11,3.09
				c0.83,0,1.6-0.32,2.15-0.87c0.11-0.1,0.18-0.24,0.18-0.38c0-0.27-0.24-0.51-0.52-0.51c-0.16,0-0.3,0.1-0.41,0.2
				c-0.35,0.37-0.87,0.54-1.41,0.54c-1.03,0-1.87-0.7-2.05-1.68h4.63c0,0,0.01,0,0.01,0h0.02c0.01,0,0.03-0.01,0.04-0.01
				c0.01,0,0.01,0,0.02,0c0.23-0.05,0.42-0.26,0.42-0.54C97.05,11.01,95.64,9.67,93.99,9.67z M92,12.11
				c0.26-0.83,1.04-1.42,1.98-1.42c0.93,0,1.71,0.59,1.97,1.42H92z M109.58,9.72c-0.28,0-0.52,0.23-0.52,0.49v0.25
				c-0.55-0.49-1.27-0.79-2.07-0.79c-1.73,0-3.11,1.37-3.11,3.07c0,1.72,1.38,3.09,3.11,3.09c0.79,0,1.51-0.3,2.07-0.79v0.25
				c0,0.26,0.24,0.49,0.52,0.49c0.25,0,0.5-0.23,0.5-0.49v-5.09C110.09,9.95,109.83,9.72,109.58,9.72z M107,14.81
				c-1.17,0-2.08-0.91-2.08-2.07c0-1.15,0.91-2.06,2.08-2.06c1.15,0,2.07,0.91,2.07,2.06C109.07,13.9,108.15,14.81,107,14.81z
				 M113.68,9.67c-0.6,0-1.15,0.18-1.59,0.51c-0.01-0.25-0.26-0.47-0.5-0.47c-0.28,0-0.52,0.23-0.52,0.49v5.09
				c0,0.26,0.24,0.49,0.52,0.49c0.25,0,0.5-0.23,0.5-0.49v-3.1c0-1.2,0.77-1.53,1.6-1.53c0.85,0,1.6,0.74,1.6,1.59v3.04
				c0,0.26,0.24,0.49,0.52,0.49c0.25,0,0.5-0.23,0.5-0.49v-3.18C116.31,10.76,115.07,9.67,113.68,9.67z M100.51,9.67
				c-0.59,0.01-1.13,0.19-1.55,0.51c-0.01-0.25-0.26-0.47-0.5-0.47c-0.28,0-0.52,0.23-0.52,0.49v5.09c0,0.26,0.24,0.49,0.52,0.49
				c0.25,0,0.5-0.23,0.5-0.49v-3.1c0-1.2,0.74-1.48,1.55-1.51c0.31,0,0.56-0.25,0.56-0.53C101.07,9.92,100.83,9.67,100.51,9.67z"/>
			<path class="st0" d="M13.58,7.45c-0.28,0-0.52,0.23-0.52,0.49v2.63c-0.54-0.49-1.27-0.79-2.06-0.79c-1.73,0-3.1,1.37-3.1,3.06
				c0,1.72,1.38,3.09,3.1,3.09c0.79,0,1.52-0.3,2.06-0.79v0.25c0,0.26,0.24,0.49,0.52,0.49c0.25,0,0.5-0.23,0.5-0.49V7.94
				C14.09,7.68,13.84,7.45,13.58,7.45z M11.01,14.91c-1.16,0-2.07-0.91-2.07-2.06c0-1.14,0.91-2.05,2.07-2.05
				c1.15,0,2.06,0.91,2.06,2.05C13.07,14.01,12.16,14.91,11.01,14.91z M25.82,9.98h-1.31V8.65c0-0.26-0.25-0.49-0.5-0.49
				c-0.28,0-0.52,0.23-0.52,0.49v1.32h-1.31c-0.23,0-0.42,0.24-0.42,0.45c0,0.24,0.19,0.47,0.42,0.47h1.31v4.51
				c0,0.26,0.24,0.49,0.52,0.49c0.25,0,0.5-0.23,0.5-0.49V10.9h1.31c0.23,0,0.42-0.23,0.42-0.47C26.24,10.22,26.05,9.98,25.82,9.98z
				 M31.96,9.83c-0.28,0-0.52,0.23-0.52,0.49v0.25c-0.55-0.49-1.27-0.79-2.06-0.79c-1.73,0-3.1,1.37-3.1,3.06
				c0,1.72,1.38,3.09,3.1,3.09c0.79,0,1.51-0.3,2.06-0.79v0.25c0,0.26,0.24,0.49,0.52,0.49c0.25,0,0.5-0.23,0.5-0.49v-5.08
				C32.47,10.06,32.21,9.83,31.96,9.83z M29.39,14.91c-1.16,0-2.07-0.91-2.07-2.06c0-1.14,0.91-2.05,2.07-2.05
				c1.15,0,2.06,0.91,2.06,2.05C31.45,14.01,30.54,14.91,29.39,14.91z M38.67,13.55c-0.22,0-0.4,0.17-0.49,0.36
				c-0.29,0.62-1.02,1-1.77,1c-1.16,0-2.07-0.91-2.07-2.06c0-1.14,0.91-2.05,2.07-2.05c0.69,0,1.33,0.32,1.68,0.85
				c0.1,0.15,0.26,0.26,0.44,0.26c0.26,0,0.52-0.25,0.52-0.51c0-0.13-0.07-0.25-0.16-0.36c-0.61-0.7-1.47-1.25-2.48-1.25
				c-1.73,0-3.1,1.37-3.1,3.06c0,1.72,1.38,3.09,3.1,3.09c1.21,0,2.28-0.66,2.74-1.69c0.02-0.06,0.04-0.12,0.04-0.18
				C39.18,13.8,38.93,13.55,38.67,13.55z M42.53,9.79c-0.59,0.01-1.13,0.19-1.55,0.51c-0.01-0.25-0.26-0.46-0.5-0.46
				c-0.28,0-0.52,0.23-0.52,0.49v5.08c0,0.26,0.24,0.49,0.52,0.49c0.25,0,0.5-0.23,0.5-0.49v-3.09c0-1.19,0.74-1.48,1.55-1.5
				c0.31,0,0.56-0.25,0.56-0.52C43.1,10.04,42.86,9.79,42.53,9.79z M46.07,9.79c-1.73,0-3.1,1.37-3.1,3.06
				c0,1.72,1.38,3.09,3.1,3.09c0.83,0,1.59-0.32,2.15-0.87c0.11-0.1,0.18-0.24,0.18-0.38c0-0.27-0.24-0.51-0.52-0.51
				c-0.16,0-0.3,0.1-0.41,0.2c-0.35,0.37-0.86,0.54-1.4,0.54c-1.03,0-1.87-0.7-2.05-1.68h4.61c0,0,0,0,0,0h0.03
				c0.25-0.02,0.48-0.25,0.48-0.55C49.12,11.12,47.72,9.79,46.07,9.79z M44.09,12.22c0.26-0.83,1.04-1.42,1.98-1.42
				c0.93,0,1.7,0.59,1.96,1.42H44.09z M55.51,7.45c-0.28,0-0.52,0.23-0.52,0.49v2.63c-0.54-0.49-1.27-0.79-2.06-0.79
				c-1.73,0-3.1,1.37-3.1,3.06c0,1.72,1.38,3.09,3.1,3.09c0.79,0,1.52-0.3,2.06-0.79v0.25c0,0.26,0.24,0.49,0.52,0.49
				c0.25,0,0.5-0.23,0.5-0.49V7.94C56.01,7.68,55.76,7.45,55.51,7.45z M52.93,14.91c-1.16,0-2.07-0.91-2.07-2.06
				c0-1.14,0.91-2.05,2.07-2.05c1.15,0,2.06,0.91,2.06,2.05C54.99,14.01,54.08,14.91,52.93,14.91z M62.95,9.98h-1.31V8.65
				c0-0.26-0.25-0.49-0.5-0.49c-0.28,0-0.52,0.23-0.52,0.49v1.32h-1.31c-0.23,0-0.42,0.24-0.42,0.45c0,0.24,0.19,0.47,0.42,0.47
				h1.31v4.51c0,0.26,0.24,0.49,0.52,0.49c0.25,0,0.5-0.23,0.5-0.49V10.9h1.31c0.23,0,0.42-0.23,0.42-0.47
				C63.37,10.22,63.18,9.98,62.95,9.98z M66.43,9.79c-1.73,0-3.1,1.37-3.1,3.06c0,1.72,1.38,3.09,3.1,3.09
				c1.7,0,3.08-1.37,3.08-3.09C69.51,11.16,68.13,9.79,66.43,9.79z M66.43,14.91c-1.16,0-2.07-0.91-2.07-2.06
				c0-1.14,0.91-2.05,2.07-2.05c1.15,0,2.06,0.91,2.06,2.05C68.49,14.01,67.58,14.91,66.43,14.91z M44.65,8.69l0.01,0.03
				c0.12,0.27,0.3,0.32,0.43,0.32c0.08,0,0.16-0.02,0.25-0.06l1.82-0.74c0.32-0.13,0.36-0.34,0.36-0.46c0-0.09-0.02-0.17-0.05-0.24
				l-0.01-0.02c-0.06-0.09-0.18-0.25-0.41-0.25c-0.09,0-0.18,0.02-0.28,0.06l-1.83,0.73c-0.22,0.1-0.33,0.24-0.33,0.42
				c0,0.06,0.01,0.11,0.03,0.15C44.64,8.65,44.65,8.67,44.65,8.69z M57.55,7.85c-0.34,0-0.63,0.28-0.63,0.62
				c0,0.34,0.28,0.62,0.63,0.62c0.34,0,0.62-0.28,0.62-0.62C58.17,8.13,57.89,7.85,57.55,7.85z M57.55,9.83
				c-0.28,0-0.51,0.23-0.51,0.49v5.08c0,0.26,0.24,0.49,0.51,0.49c0.25,0,0.5-0.23,0.5-0.49v-5.08
				C58.06,10.06,57.81,9.83,57.55,9.83z M20.54,9.83c-0.28,0-0.52,0.23-0.52,0.49v0.25c-0.55-0.49-1.27-0.79-2.06-0.79
				c-1.73,0-3.1,1.37-3.1,3.06c0,1.72,1.38,3.09,3.1,3.09c0.79,0,1.51-0.3,2.06-0.79v0.25c0,0.26,0.24,0.49,0.52,0.49
				c0.25,0,0.5-0.23,0.5-0.49v-5.08C21.05,10.06,20.8,9.83,20.54,9.83z M17.97,14.91c-1.16,0-2.07-0.91-2.07-2.06
				c0-1.14,0.91-2.05,2.07-2.05c1.15,0,2.06,0.91,2.06,2.05C20.03,14.01,19.12,14.91,17.97,14.91z"/>
		</g>
	</g>
	<g>
		<g>
			<path class="st0" d="M117.61,15.93c-0.06,0-0.11-0.05-0.11-0.1v-1.09h-0.24c-0.06,0-0.1-0.05-0.1-0.11c0-0.06,0.04-0.11,0.1-0.11
				h0.71c0.06,0,0.1,0.05,0.1,0.11c0,0.06-0.05,0.11-0.1,0.11h-0.25v1.09C117.72,15.89,117.67,15.93,117.61,15.93z"/>
		</g>
		<g>
			<path class="st0" d="M118.88,15.94c-0.06,0-0.09-0.04-0.11-0.08l-0.3-0.89v0.87c0,0.06-0.05,0.1-0.11,0.1
				c-0.06,0-0.11-0.05-0.11-0.1v-1.15c0-0.09,0.08-0.16,0.16-0.16c0.07,0,0.13,0.05,0.15,0.12l0.31,0.9l0.31-0.9
				c0.02-0.07,0.09-0.12,0.16-0.12c0.09,0,0.16,0.07,0.16,0.16v1.15c0,0.06-0.05,0.1-0.11,0.1c-0.06,0-0.11-0.05-0.11-0.1v-0.87
				c-0.05,0.14-0.12,0.35-0.18,0.53c-0.12,0.36-0.12,0.36-0.12,0.36C118.96,15.91,118.92,15.94,118.88,15.94z"/>
		</g>
	</g>
</g>
</svg>
